<?xml version="1.0" encoding="utf-8"?>
<!-- Generator: Adobe Illustrator 27.0.0, SVG Export Plug-In . SVG Version: 6.00 Build 0)  -->
<svg version="1.1" id="Layer_1" xmlns="http://www.w3.org/2000/svg" xmlns:xlink="http://www.w3.org/1999/xlink" x="0px" y="0px"
	 viewBox="0 0 379.7 572.6" style="enable-background:new 0 0 379.7 572.6;" xml:space="preserve">
<style type="text/css">
	.st0{opacity:0.45;fill:#1C1C1C;enable-background:new    ;}
</style>
<path class="st0" d="M100.6,139.9c0.8-1.8,2.5-2.9,2.9-5.2c-1.6,0.6-2.6,2.1-4.7,2.1c1.6-1.7,3.4-2.5,4.4-4.1c0.4-0.6,1.2-1.2,0.8-2
	c-0.4-0.9-1.3-0.5-2.1-0.4c-1.7,0.2-3.3,0.5-4.8,1.1c-8.6,3.4-17.5,4.1-26.6,3.8c-0.3,0-0.6-0.1-1.2-0.3c1.2-0.9,2.4-0.6,3.4-0.7
	c3.6-0.3,5-2,4.4-5.6c-0.5-3.2-0.8-6.4,1-9.8c-2.1,0.7-3.7,1.2-5.3,1.8c-1.3,0.5-2,0.3-2.4-1.3c-0.8-3.2-0.8-6.3,0-9.4
	c0.4-1.4,1-1.8,2.2-1.3c1.5,0.6,3,1.1,4.4,1.8c1.1,0.4,1.8,0.6,1.5-1c-0.8-4.3,0.6-8.1,3.4-11.3c1.7-1.9,1.2-3.6-1.2-4.2
	c-2.2-0.6-4.6-0.7-7.4-1.2c2.4-0.7,4.3-0.4,6.2-0.5c8.3-0.2,16.3,1.1,23.9,4.7c2,0.9,3.9,1.9,5.9,2.9c4.2,2.2,6.9,5.5,8.6,9.9
	c0.8,2.2,1.7,4.4,2.8,6.4c1,1.7,0.7,3.1-0.2,4.5c-2.4,3.7-5.2,7.2-9.7,8.6c-1.3,0.4-1.7,1.4-2.3,2.4
	C106.8,134.9,104.4,138.1,100.6,139.9L100.6,139.9z"/>
<path class="st0" d="M318.6,70c0.1,1.2-0.7,1.7-1.2,2.3c-2.1,2.8-4.1,5.6-5.8,8.7c-2.1,4-2,7.7,0.3,11.6c1.8,3,3.8,5.8,6,8.5
	c0.3,0.4,0.9,0.8,0.5,1.3c-0.5,0.7-1.1,0-1.5-0.3c-4.6-3.3-8.7-7.3-12.3-11.8c-1.9-2.3-3.4-2.4-5.7-0.6c-1.1,0.9-2.5,1.4-3.5,2.5
	c-0.6,0.7-1.6,0-2.3-0.4c-2.2-1.1-4-0.6-6,0.7c-2.3,1.5-4.1,3.1-4,6c0,0.6-0.4,0.8-1,0.5c-0.1-0.1-0.3-0.2-0.4-0.2
	c-2.9-1.4-4.6-5-8.6-4.3c-3.2,0.6-6.5,0.2-10,0.3c1,1.2,2.7,0.8,3.8,2.1c-3.5-0.3-6.6-0.1-9.4-2.1c-2.5-1.8-5.7-1.2-8.6-2.1
	c-2.6-0.8-5.6-0.8-7.9-2.1c-4-2.3-8.1-0.9-12.1-1.4c-0.3,0-0.6-0.1-0.8-0.7c2.2-0.2,4.3-0.4,6.4-0.5c5.6-0.3,10.7-1.9,14.9-6
	c0.6-0.6,1.4-1.3,2.2-1.5c3.9-0.8,5.4-3.9,7-7c0.3-0.7,0.8-1.3,1.2-1.9c0.2-0.4,0.5-0.8,1-0.7c0.5,0.1,0.4,0.6,0.5,0.9
	c0.6,3.6,3.1,5.3,6.4,5.9c5.2,0.9,10.5,1.6,15.7,2.4c2.6,0.4,5.3,0.5,7.5,2.1c0.7,0.5,1-0.1,1.3-0.4c1.8-1.7,3.4-1.6,4.9,0.4
	c0.5,0.6,1,1.3,1.9,1.5c2.2,0.6,3.9,0.7,5.5-1.7C308.3,77.2,315,71.5,318.6,70L318.6,70z"/>
<path class="st0" d="M15,25.6c-2-0.1-3.7,0.6-5.4,1.4c-2.1,1.1-4.2,2.2-6.5,2.8c-0.7,0.2-1.4,0.4-1.9-0.2c-0.6-0.7-0.2-1.5,0.3-2.1
	c0.9-1,1.7-2.1,2.8-3c1.7-1.3,1.3-2.3-0.2-3.3c-1.3-0.9-2.6-1.9-3.5-3.2c-0.3-0.4-0.6-0.9-0.4-1.5c0.3-0.7,0.9-0.7,1.5-0.7
	c1.5,0,2.8,0.5,4.1,1.1c3.3,1.6,6.8,2.6,10.7,2.1c-1.1-1.9,0.1-2.9,1.4-4c2.1-1.8,4.7-2.7,7.3-3.6c1.8-0.6,3.1-1.4,3.8-3.2
	c0.5-1.4,1.5-1.6,2.4-0.4c2.6,3.5,5.9,5.2,10.2,6.1c4.3,0.9,7.5,4.4,10.9,7.2c0.5,0.5,0.9,1.1,0.6,1.8c-0.5,1-1.4,1.9-2.6,1.9
	c-2.8,0.2-5.5,1.1-8.2,1.6c-0.8,0.1-1.3,0.7-1.8,1.3c-0.8,1.1-1.9,1.7-3.2,2.1c-0.9,0.3-1.7,0.1-1.7-1.1c0-0.6,0.3-1.3-0.6-1.4
	c-0.8-0.1-1.3,0.2-1.7,0.9c-0.7,1.1-1.6,2-2.7,2.8c-0.9,0.6-1.9,1.5-2.8,0.3c-0.8-1,0.2-1.8,0.9-2.5c0.4-0.4,0.9-0.8,1.7-1.4
	c-2.6-0.2-5,0.1-7.4-0.3c-0.6-0.1-1,0.3-1.3,0.7c-0.4,0.5-0.8,0.9-1.3,1.3c-1.2,1-2.1,2.8-4.1,2.2C15.2,31.2,14.4,27.4,15,25.6
	L15,25.6z"/>
<path class="st0" d="M168.4,543.2c-1.3,0.7-2.5,0.3-3.6,0.5c-1.8,0.4-2.3,1.5-1.2,2.9c1.4,1.7,2.1,3.7,2,5.9c0,1.2,0.2,1.8,1.6,1.2
	c3.9-1.7,3.3-0.6,3.8,2.5c0.6,4.2-0.5,5-4.7,3.8c0.4,1.7,0.6,3.3,0.3,5c-0.4,2.8,0.3,3.6,3.2,4c0.3,0,0.6,0.1,0.8,0.3
	c-5.6,0.7-11.1,0.2-16.4-1.8c-1-0.4-2-0.7-3.1-0.8c-0.4,0-1-0.2-1.2,0.3c-0.2,0.5,0.2,0.8,0.5,1.2c0.7,0.7,1.4,1.3,2.1,2
	c-1,0.6-1.4-0.6-2.1-0.5c0,1.1,1.2,1.5,1.5,2.8c-2.4-1-3.7-2.8-4.9-4.7c-0.8-1.2-1.6-2.1-2.9-2.7c-2.2-0.9-3.6-2.8-4.7-4.8
	c-0.5-0.8-0.5-1.6-0.3-2.6c2.2-8.4,8.4-12.2,16.2-14.1c3.6-0.9,7.4-0.9,11.1-1.1C167,542.6,167.7,542.6,168.4,543.2L168.4,543.2z"/>
<path class="st0" d="M103.5,11.4c0.2-1.4,1-2.4,1.9-3.2c1.2-1.1,0.9-1.9-0.1-2.8c-0.7-0.6-1.3-1.3-1.9-2c-0.3-0.4-0.9-0.8-0.4-1.4
	c0.4-0.5,1-0.2,1.5,0c0.7,0.3,1.5,0.4,2.1,0.9c3.4,2.4,7,1,10.6,0.5c0.8-0.1,0.8-0.7,1.1-1.2c1.7-2.7,3-2.9,5.4-0.9
	c1,0.8,2,1.2,3.3,1.3c3.5,0.2,6.9,1,10.2,2.2c1.1,0.4,1.7,1.1,1.9,2.3c0.2,1.3-0.9,1.5-1.6,1.9c-3.1,1.9-6.5,2.5-10,2.7
	c-1.9,0.1-3.6,0.6-5.1,1.6c-0.4,0.3-1,0.5-1.5,0.2c-0.7-0.4-0.1-0.9,0-1.4c0.3-1.9-1.7-1.7-2.1-1.4c-2.6,1.6-4.3-0.1-5.9-1.4
	c-1.5-1.3-2.6-0.9-4.1-0.2C107.1,10.1,105.6,11.5,103.5,11.4L103.5,11.4z"/>
<path class="st0" d="M44.2,167c-0.2,0.8-0.6,1.2-1.1,1.6c-1.5,0.9-1.3,1.7-0.2,2.8c0.5,0.5,1.3,1.2,0.7,1.9
	c-0.6,0.8-1.4,0.2-2.1-0.1c-0.8-0.3-1.5-0.6-2.3-1c-1.3-0.7-2.2-0.9-2.5,1c-0.3,1.6-1.4,1.4-2.3,0.5c-0.9-0.9-1.8-1.6-3.2-1.4
	c-0.6,0.1-1.2,0.1-1.2,1c0,0.5-0.4,1.2-0.5,1c-1.5-2-4,0-5.6-1.5c-1.3-1.2-3-1.3-4.6-1.6c-0.9-0.2-1.7-0.3-2-1.2
	c-0.3-1,0.6-1.4,1.3-1.9c2-1.5,3.9-3.2,6.6-3.2c1.2,0,1.6-1.3,2.3-2c0.8-0.8,1.5-1.2,2.4-0.1c0.9,1.2,2.4,1.5,3.7,2.1
	c0.7,0.3,1.6,0.6,1.9,1.1c1.3,2.6,3.2,1.9,5.2,1.1c0.8-0.3,1.6-0.5,2.4-0.7C43.7,166.2,44.1,166.4,44.2,167L44.2,167z"/>
<path class="st0" d="M295.1,140.8c-3.5,1.3-6.6,1.9-10.6,1.4c2.7-0.7,2.2-2.3,2.2-3.8c0-0.6-0.1-0.8-0.8-0.7c-1.6,0.3-1.5-1-1.5-1.9
	c-0.1-1,0-1.9,1.4-2.2c2.2-0.3,1.4-2.7,2.4-3.9c0.3-0.4-1.4-0.4-2-0.9c5.4-1.6,12.1,1.4,14.4,6.2c1,2.1,0.2,3.4-1.3,4.5
	c-1.3,1-2.4,2-3.4,3.3c-0.4,0.5-0.7,1.5-1.5,1c-0.7-0.4-0.5-1.3,0.1-2C294.7,141.7,294.7,141.5,295.1,140.8L295.1,140.8z"/>
<path class="st0" d="M273,394c0,0.9-0.7,1-1.3,0.8c-1.1-0.4-2.3-0.9-3.3-1.4c-1.1-0.6-1.7-0.4-1.9,0.9c-0.4,2-1.4,1.9-2.6,0.7
	c-0.7-0.8-1.5-1.3-2.6-1.1c-0.4,0.1-1.1,0-1.1,0.5c-0.2,2.3-1.2,1.3-2.1,0.5c-0.6-0.5-1.1-1-1.9-0.2c-0.5,0.5-1.2,0.2-1.6-0.2
	c-1.4-1.3-3.1-1.8-5-1.9c-0.8,0-1.4-0.3-1.6-1c-0.3-0.8,0.4-1.2,0.9-1.7c1.8-1.5,3.6-3,6.1-3.4c0.4-0.1,1-0.2,1.2-0.5
	c1.6-2.4,3.3-2.1,5.3-0.5c1.5,1.2,3.7,1.5,4.5,3.6c0.4,0.9,1.3,0.6,2,0.4c1.4-0.4,2.7-0.9,4.1-1.4c0.4-0.1,0.9-0.2,1.3,0.2
	c0.3,0.4,0.2,1-0.2,1.2c-2,1.3-2.2,2.6-0.3,4.2C272.9,393.7,272.9,393.9,273,394L273,394z"/>
<path class="st0" d="M229.9,163.2c-4.2,0.4-8.1,1.1-11.8,2.7c-0.6,0.2-1.2,0.3-1.8,0c-0.2-0.1-0.4-0.3-0.6-0.4
	c-1.8-0.7-3.4,0.7-5,0.8c-1.4,0-2-2.9-4.2-2.1c-0.1,0.1-0.4,0.1-0.4,0.1c-3.1-2.6-4.2,0.6-5.9,2c-0.7,0.6-1.3,1.5-2.6,1.6
	c0.5-2.1,2.7-3.4,2.7-5.6c0-2.3-1.9-3.7-2.7-5.9c2,0.7,3.3,2,4.4,3.4c0.9,1.2,1.6,1.4,3.2,0.7c1.9-0.8,4.2-0.7,6.4-1
	c2.3-0.4,4.8,0.1,6.4-2.3c0.4-0.6,0.9-0.1,1.3,0.4c2.5,3.2,5.7,5.1,9.9,5.1c0.2,0,0.4,0.1,0.6,0.2
	C229.7,162.7,229.8,162.8,229.9,163.2L229.9,163.2z"/>
<path class="st0" d="M197.6,292.4c0,0.3-0.6,0.7-1.2,1.1c-1.7,1-3.6,1.6-5.6,1.8c-1.7,0.2-3.5,0-5,1.2c-0.4,0.3-1.4,0.5-1.4,0
	c-0.2-2.2-1.5-1.5-2.8-1.4c-0.8,0.1-1.5-0.5-2-0.9c-1.5-1.2-3-1.3-4.6-0.1c-0.4,0.3-0.9,0.5-1.4,0.7c-0.5,0.2-1,0.7-1.4,0.1
	c-0.4-0.5,0-1.1,0.4-1.4c2.1-1.5,1.3-2.7-0.3-3.9c-0.4-0.3-1-0.7-0.5-1.3c0.3-0.4,0.9-0.1,1.3,0c1.7,0.6,3.4,1.5,5.2,1.3
	c1.8-0.1,3.8-0.1,5-2c0.6-1,1.7-1.3,2.7-0.3c1.2,1.2,2.8,1.4,4.4,1.4c2.1,0,4,0.7,5.9,1.6C197,290.8,197.6,291.1,197.6,292.4
	L197.6,292.4z"/>
<path class="st0" d="M309.1,35.3c-0.2,0.1-0.6,0.1-0.7,0.3c-0.7,1.5-1.6,1.2-2.7,0.4c-0.3-0.2-1-0.4-1.3-0.3
	c-3.3,2.3-5.8-1.2-8.7-1.3c-0.8,0-0.8-1-0.2-1.6c1.1-0.9,2.1-1.9,3.6-2.3c0.4-0.1,1-0.1,1.3-0.3c2.6-3,4.6-0.2,6.4,1
	c1.4,0.9,2.4,1.3,3.9,0.5c0.6-0.3,1.4-0.6,1.9,0c0.4,0.5-0.2,0.9-0.4,1.4c-0.1,0.2-0.3,0.6-0.2,0.8c1.5,3.6-0.9,1.8-2.2,1.6
	C309.6,35.5,309.4,35.4,309.1,35.3L309.1,35.3z"/>
<path class="st0" d="M94.3,341.3c1.1,1.2,2.8,1.4,3.8,2.5c1.3,1.3,2.5,1.4,4.1,0.8c0.5-0.2,1.2-0.6,1.7,0c0.5,0.5-0.1,1-0.5,1.3
	c-0.7,0.7-0.4,1.2,0.1,1.8c0.3,0.4,0.6,0.8,0.2,1.2c-0.3,0.3-0.7,0.2-1.1,0.1c-1.3-0.6-2.6-1.5-3.6,0.4c0,0.1-0.3,0.2-0.4,0.1
	c-3.6-1.1-7.6,0.1-11-2c-1-0.6-1.1-1.2-0.3-1.9c0.9-0.8,1.8-1.8,3-2C92,343.3,93,342.2,94.3,341.3L94.3,341.3z"/>
<path class="st0" d="M121.1,234.8c0.8-0.3,1.3,0.1,1.8,0.4c1.4,0.8,3,0.9,4.1,0.1c3.5-2.5,6.6,0.4,9.9,0.6c1.3,0.1,1.8,1.3,0.5,2.2
	c-2.2,1.6-5.1,1.2-7.6,2c-0.2,0.1-2.2-0.7-3.2-1.3c-1.3-0.8-2.4-0.8-3.6,0.1c-0.4,0.3-1,0.7-1.4,0.2c-0.4-0.4,0-0.9,0.3-1.2
	C123.4,236.5,121.1,236,121.1,234.8L121.1,234.8z"/>
<path class="st0" d="M23.2,286.8c-0.4-1-1.4-1.6-1.6-2.9c0.9,0.3,1.4,1.1,2.6,1.2c-0.9-0.9-1.9-1.4-2.5-2.3
	c-0.2-0.4-0.6-0.7-0.5-1.1c0.2-0.5,0.8-0.3,1.1-0.2c0.9,0.1,1.8,0.3,2.7,0.6c4.8,1.9,9.7,2.3,14.8,2.1c0.2,0,0.3-0.1,0.7-0.2
	c-0.7-0.5-1.3-0.3-1.9-0.4c-2-0.2-2.8-1.1-2.5-3.1c0.3-1.8,0.4-3.6-0.5-5.5c1.1,0.4,2,0.7,3,1c0.7,0.2,1.1,0.2,1.3-0.7
	c0.4-1.8,0.5-3.5,0-5.2c-0.2-0.8-0.5-1-1.2-0.7c-0.8,0.3-1.7,0.6-2.5,1c-0.6,0.2-1,0.4-0.8-0.6c0.4-2.4-0.3-4.5-1.9-6.3
	c-0.9-1.1-0.7-2,0.7-2.4c1.2-0.3,2.5-0.4,4.1-0.6c-1.3-0.4-2.4-0.2-3.5-0.3c-4.6-0.1-9.1,0.6-13.3,2.6c-1.1,0.5-2.2,1-3.3,1.6
	c-2.3,1.2-3.9,3.1-4.8,5.5c-0.5,1.2-0.9,2.5-1.6,3.6c-0.5,0.9-0.4,1.7,0.1,2.5c1.3,2.1,2.9,4,5.4,4.8c0.7,0.2,1,0.8,1.3,1.3
	C19.8,284.1,21.1,285.8,23.2,286.8L23.2,286.8z"/>
<path class="st0" d="M82.6,454c1,0.9,1.7,1.4,2.2,2c0.5,0.6,0.9,1.3,0.5,2.1c-0.5,0.8-1.4,0.5-2.1,0.3c-1.4-0.4-2.6-1.2-3.8-2.1
	c-1.4-1.1-2.9-1.4-4.6-1.5c-7.6-0.3-15-1.8-22-5.1c-1.4-0.6-2.7-1.3-3.8-2.4c-0.5-0.5-1.5-1.3,0.1-1.8c0.3-0.1,0.6-0.3,0.4-0.6
	c-1.6-2,0.5-2.3,1.5-2.9c5.5-3,11.7-4.2,17.9-5c2.2-0.3,4.4-0.4,6.6-0.5c1.2,0,2.2-0.6,3-1.4c1.3-1.1,2.6-2.1,3.8-3.3
	c1.4-1.4,2.6-1.1,3.9,0.1c1.2,1.1,2.3,2.2,3.5,3.2s0,1.5-0.5,2.6c5.8,0.7,11.2,2.6,16.9,2.4c3.2-0.1,5.8-2.3,8.6-3.4
	c1.7-0.7,3.3-1.4,5.1-1.9c0.4-0.1,1-0.3,1.3,0.2c0.4,0.6-0.1,1-0.4,1.4c-2.1,2.4-4,5-6.8,6.7c-1.6,1-1.2,2,0,2.8
	c2.3,1.7,4,3.9,5.3,6.4c0.3,0.6,1.1,1.2,0.6,1.8c-0.6,0.8-1.4,0-2.1-0.2c-3.3-1-6.1-3-9.1-4.6c-1.3-0.7-2.6-1.2-4.1-1.4
	c-1.1-0.1-2.4-0.8-2.7,1.3c-0.1,0.7-1.3,0.9-2,1.3c-0.8,0.5-1.7,0.8-2.3,1.4c-2.4,2-4.8,2.5-7.8,0.8C87.7,451.6,85.4,453.6,82.6,454
	L82.6,454z"/>
<path class="st0" d="M289.4,243.4c-2-0.1-3.7,0.6-5.4,1.4c-2.1,1.1-4.1,2.2-6.5,2.8c-0.7,0.2-1.4,0.4-1.9-0.2
	c-0.6-0.7-0.2-1.5,0.3-2.1c0.9-1.1,1.7-2.1,2.8-3c1.6-1.3,1.3-2.3-0.2-3.3c-1.3-0.9-2.6-1.9-3.5-3.2c-0.3-0.4-0.6-0.9-0.4-1.5
	c0.3-0.7,0.9-0.7,1.5-0.7c1.5,0,2.8,0.5,4.1,1.1c3.3,1.6,6.8,2.6,10.7,2.1c-1.1-1.9,0.1-2.9,1.4-4c2.1-1.8,4.7-2.7,7.3-3.6
	c1.8-0.6,3.1-1.4,3.8-3.2c0.5-1.4,1.5-1.6,2.4-0.4c2.6,3.5,5.9,5.2,10.2,6.1c4.3,0.9,7.5,4.4,10.9,7.2c0.5,0.5,0.9,1.1,0.6,1.8
	c-0.5,1-1.4,1.9-2.6,1.9c-2.8,0.2-5.5,1.1-8.2,1.6c-0.8,0.1-1.3,0.7-1.8,1.3c-0.8,1.1-1.9,1.7-3.2,2.1c-0.9,0.3-1.7,0.1-1.7-1.1
	c0-0.6,0.3-1.3-0.6-1.4c-0.8-0.1-1.3,0.2-1.7,0.9c-0.7,1.1-1.6,2.1-2.7,2.8c-0.9,0.6-1.9,1.5-2.8,0.3c-0.8-1,0.2-1.8,0.9-2.5
	c0.4-0.4,0.9-0.8,1.7-1.4c-2.6-0.2-5,0.1-7.4-0.3c-0.6-0.1-1,0.3-1.3,0.7c-0.4,0.4-0.8,0.9-1.3,1.3c-1.2,1-2.1,2.8-4.1,2.2
	C289.6,248.9,288.9,245.1,289.4,243.4L289.4,243.4z"/>
<path class="st0" d="M336.5,348.4c-2.6-1-5-1.7-7.4-0.2c-0.5,0.3-1.1,0.4-1.5,0c-1.8-1.6-4.5-1.9-5.7-4.3c-0.3-0.7-1.1-0.4-1.7-0.4
	c-2,0.1-3.6,1.2-5.2,2.2c-1.7,1.1-3.4,2-5.3,2.6c-0.5,0.2-1.1,0.5-1.5,0c-0.4-0.5,0.1-1,0.4-1.4c0.9-1.8,2.1-3.3,3.7-4.5
	c1.3-1,1.4-1.9,0-2.8c-1.8-1.2-3.1-2.9-4.5-4.5c-0.3-0.4-1-0.7-0.5-1.3c0.3-0.4,0.8-0.2,1.3-0.1c1.9,0.4,3.6,1.1,5.3,2.1
	c3,1.8,6.2,2.2,9.6,1.4c1.4-0.3,2.9-0.5,4.3-0.8c1.5-0.3,3.1,0,3.6-2.4c0.3-1.2,2-2.4,3.4-3.2c0.8-0.5,1.8-0.6,2.3,0.2
	c3.3,4.4,8.3,3.7,12.8,4.5c3.5,0.6,6.8,1.4,10.1,2.8c1.7,0.7,3,1.6,3.5,3.6c0.2,1-0.4,1.2-0.9,1.6c-2.3,1.7-5,2.6-7.6,3.5
	c-3.7,1.2-7.5,2.1-11.4,2c-1.7,0-3.1,0.3-4.4,1.4c-0.2,0.1-0.4,0.3-0.5,0.4c-1.2,0.7-2.7,2-3.7,0.9
	C333.7,350.3,335.7,349.5,336.5,348.4L336.5,348.4z"/>
<path class="st0" d="M321.6,484.8c-2.5-0.7-4.7-1.9-7.1-0.2c-0.4,0.3-1.1,0.4-1.5,0c-1.9-1.7-4.7-2.1-6.4-4.2
	c-0.7-0.8-1.5-0.5-2.3-0.2c-2.2,0.6-4,2.1-6,3.1c-1.5,0.8-3.9,2.2-4.4,1.4c-0.9-1.5,1.1-2.9,2-4.3c0.8-1.2,2.8-1.6,2.7-3.2
	c-0.1-1.4-2-1.7-2.9-2.8c-0.9-1-1.8-2.1-2.7-3.1c-0.3-0.3-0.7-0.7-0.4-1.2c0.3-0.4,0.8-0.2,1.3-0.1c1.8,0.4,3.5,1.1,5,2
	c3.1,2,6.4,2.1,9.8,1.5c0.4-0.1,0.8-0.1,1.1-0.2c2.5-0.8,5.9,0.2,7.1-3.5c0.3-1,1.6-1.6,2.4-2.4c0.9-0.8,2-1,2.8,0
	c2.8,3.4,6.6,3.7,10.6,4.1c4.9,0.5,9.7,1.6,14.1,4c2.1,1.1,2.2,3.3,0.2,4.6c-5.2,3.4-11.2,4.7-17.3,5c-2.3,0.1-4.5,0.2-6.3,1.9
	c-0.3,0.3-0.8,0.5-1.2,0.7c-0.8,0.3-1.6,1-2.3,0.2c-0.8-0.9,0.2-1.6,0.7-2.3C321,485.5,321.3,485.2,321.6,484.8L321.6,484.8z"/>
<path class="st0" d="M303.1,562.1c0.2-1.4,1-2.4,1.9-3.2c1.2-1,0.9-1.9-0.1-2.8c-0.7-0.6-1.3-1.3-1.9-2c-0.3-0.4-0.9-0.8-0.5-1.3
	c0.4-0.5,1-0.2,1.5,0c0.7,0.3,1.5,0.4,2.1,0.9c3.4,2.4,7,1,10.6,0.5c0.8-0.1,0.8-0.7,1.1-1.2c1.7-2.7,3-2.9,5.4-0.9
	c1,0.8,2,1.2,3.3,1.3c3.5,0.2,6.9,1,10.2,2.2c1.1,0.4,1.7,1.1,1.9,2.3c0.2,1.3-0.9,1.5-1.6,1.9c-3,1.9-6.5,2.5-10,2.7
	c-1.9,0.1-3.5,0.6-5.1,1.6c-0.4,0.3-1,0.5-1.5,0.2c-0.7-0.4-0.1-0.9,0-1.4c0.3-1.9-1.7-1.7-2.1-1.4c-2.5,1.6-4.3,0-5.9-1.4
	c-1.5-1.3-2.6-0.9-4.1-0.2C306.8,560.9,305.3,562.2,303.1,562.1L303.1,562.1z"/>
<path class="st0" d="M29.7,524.2c0.5,1.4-0.1,1.9-0.9,1.4c-3.7-2.2-8-1.3-11.8-3c-1.5-0.7-3.7-0.7-3.8-2.7c-0.1-2.2,2.1-2.5,3.8-3
	c1.9-0.5,3.8-1.1,5.8-1.2c2-0.1,3.8-0.5,5.4-1.9c1.7-1.6,2.9,0.2,3.6,1.3c0.7,1.1,1.5,1.2,2.5,1.5c3.3,0.7,6.5,0.7,9.4-1.1
	c0.5-0.3,1.4-0.8,1.9-0.2c0.6,0.8-0.4,1.3-0.8,1.9c-0.3,0.4-0.7,0.8-1.2,1.1c-1.1,0.7-1.2,1.4-0.1,2.3c0.9,0.8,2.5,2.1,1.7,3
	c-0.8,1-2.4-0.3-3.3-1c-2.1-1.5-4-1.9-6.1,0c-1.1,1-2.4,1.5-4,0.8C31.1,522.9,29.8,522.8,29.7,524.2L29.7,524.2z"/>
<path class="st0" d="M89.5,513.2c-3.5,1.3-6.6,1.8-10.6,1.4c2.7-0.7,2.2-2.3,2.2-3.8c0-0.6-0.1-0.8-0.8-0.7c-1.6,0.3-1.5-1-1.5-1.9
	c-0.1-1,0-1.9,1.4-2.2c2.2-0.3,1.4-2.7,2.4-3.9c0.3-0.4-1.4-0.4-2-0.9c5.4-1.6,12.1,1.4,14.4,6.2c1,2.1,0.2,3.4-1.3,4.5
	c-1.3,1-2.4,2-3.4,3.3c-0.4,0.5-0.7,1.5-1.5,1c-0.7-0.4-0.5-1.3,0.1-2C89.1,514.2,89.1,514,89.5,513.2L89.5,513.2z"/>
<path class="st0" d="M379.7,111.4c-4.2,0.4-8.1,1.1-11.8,2.7c-0.6,0.2-1.2,0.3-1.8,0c-0.2-0.1-0.4-0.3-0.6-0.4
	c-1.8-0.7-3.4,0.7-5,0.8c-1.4,0-2-2.9-4.2-2.1c-0.1,0.1-0.4,0.1-0.4,0.1c-3-2.6-4.2,0.6-6,2c-0.7,0.6-1.3,1.5-2.6,1.6
	c0.5-2.1,2.7-3.4,2.7-5.6c0-2.3-1.9-3.7-2.7-5.9c2,0.7,3.3,2,4.4,3.4c0.9,1.2,1.6,1.4,3.2,0.7c1.9-0.8,4.2-0.7,6.4-1
	c2.3-0.4,4.8,0.1,6.4-2.3c0.4-0.6,1-0.1,1.3,0.4c2.5,3.2,5.7,5.1,9.9,5.1c0.2,0,0.4,0.1,0.6,0.2C379.4,111,379.5,111.1,379.7,111.4
	L379.7,111.4z"/>
<path class="st0" d="M354,446.2c1.1,1.2,2.8,1.4,3.8,2.5c1.3,1.3,2.5,1.4,4.1,0.8c0.5-0.2,1.2-0.6,1.7,0c0.5,0.5-0.1,1-0.5,1.3
	c-0.7,0.7-0.4,1.2,0.1,1.8c0.3,0.4,0.6,0.8,0.2,1.2c-0.3,0.3-0.7,0.2-1.1,0.1c-1.3-0.6-2.6-1.5-3.6,0.4c0,0.1-0.3,0.2-0.4,0.1
	c-3.6-1.1-7.6,0.1-11-2c-1-0.6-1.1-1.2-0.3-1.9c0.9-0.8,1.8-1.8,3-2C351.7,448.2,352.7,447.1,354,446.2L354,446.2z"/>
</svg>
