<?xml version="1.0" encoding="UTF-8"?>
<svg id="visual" xmlns="http://www.w3.org/2000/svg" viewBox="0 0 332.25 351.54">
  <defs>
    <style>
      .cls-1 {
        fill: #fff;
      }

      .cls-2 {
        opacity: .63;
      }

      .cls-3 {
        opacity: .92;
      }
    </style>
  </defs>
  <g class="cls-2">
    <path class="cls-1" d="M253.84,28.84c28.2,11.5,52.5,34.9,61.3,62.9,8.9,28,2.3,60.6,2.9,93.6,.5,33,8.3,66.4-6.1,84.8-14.3,18.5-50.7,22.1-79.6,38-28.8,15.8-50.2,43.9-71.2,43.4-21.1-.4-42-29.3-66.9-47.4-25-18.1-54.1-25.3-72.5-43.4C3.34,242.74-4.46,213.84,2.54,189.04c6.9-24.8,28.5-45.7,45.7-65.7,17.3-20.1,30.2-39.4,48.2-56.8,18.1-17.4,41.2-33,69-40.9,27.7-7.9,60.1-8.3,88.4,3.2"/>
  </g>
  <g class="cls-3">
    <path class="cls-1" d="M232.8,47.99c18,20.1,28.9,42.8,48.7,64.6,19.7,21.8,48.3,42.7,50.6,64.8,2.3,22.2-21.6,45.7-41.4,67.5-19.7,21.8-35.3,41.9-55.6,57.5-20.4,15.5-45.5,26.6-73,30.7-27.5,4-57.4,1-81.8-12.2-24.4-13.3-43.3-36.8-52.7-62.6-9.4-25.9-9.3-54-3.8-79,5.5-25,16.3-46.9,24-75.7,7.6-28.9,12.1-64.8,31-84.4C97.7-.41,131.1-3.61,160.3,3.39c29.3,7.1,54.4,24.5,72.5,44.6"/>
  </g>
</svg>