<?xml version="1.0" encoding="UTF-8"?>
<svg id="visual" xmlns="http://www.w3.org/2000/svg" viewBox="0 0 395.13 329.61">
  <defs>
    <style>
      .cls-1 {
        fill: #6a21db;
      }

      .cls-2 {
        opacity: .65;
      }
    </style>
  </defs>
  <g class="cls-2">
    <path class="cls-1" d="M331.1,5.88c27.66,11.78,44.11,44.27,50.6,77.72,6.49,33.45,2.98,67.62-3.37,102.04-6.37,34.53-15.51,69.09-37.22,91.74-21.69,22.54-55.94,33.06-87.63,32.76-31.82-.22-60.98-11.24-94.11-14.96-33.15-3.62-70.07,.1-93.33-15.01-23.26-15.11-32.83-49.14-33.7-80.54-.74-31.48,7.16-60.57,16.43-87.36,9.29-26.89,19.86-51.62,37.62-68.52,17.76-16.9,42.62-26,66.98-30.01,24.37-4.01,48.35-2.9,79.66-6.78,31.44-3.96,70.41-12.86,98.07-1.07"/>
  </g>
  <g class="cls-2">
    <path class="cls-1" d="M229.06,10c31.57,1.17,66.4,.79,96.37,11.82,30.06,10.9,55.13,33.24,64.87,60.7,9.77,27.56,4.11,60.27-11.46,88.67-15.66,28.54-41.28,52.56-66.92,79.81-25.8,27.18-51.62,57.58-85.01,70.72-33.39,13.14-74.2,9.08-104.08-6.36-29.75-15.48-48.41-42.28-66.51-65.17-18.22-22.86-35.79-41.93-45.97-64.78C.17,162.57-2.5,135.92,2.34,107.83c4.84-28.09,17.25-57.44,41.6-75.12C68.29,15.02,104.76,9.16,137.01,7.57c32.25-1.59,60.56,1.13,92.04,2.43"/>
  </g>
</svg>