<svg id="visual" viewBox="0 0 900 200" width="900" height="200" xmlns="http://www.w3.org/2000/svg" xmlns:xlink="http://www.w3.org/1999/xlink" version="1.1"><rect x="0" y="0" width="900" height="200" fill="#005cb1"></rect><path d="M0 105L18.8 107C37.7 109 75.3 113 112.8 112C150.3 111 187.7 105 225.2 102C262.7 99 300.3 99 337.8 101C375.3 103 412.7 107 450.2 110.7C487.7 114.3 525.3 117.7 562.8 114.7C600.3 111.7 637.7 102.3 675.2 100.5C712.7 98.7 750.3 104.3 787.8 111.3C825.3 118.3 862.7 126.7 881.3 130.8L900 135L900 201L881.3 201C862.7 201 825.3 201 787.8 201C750.3 201 712.7 201 675.2 201C637.7 201 600.3 201 562.8 201C525.3 201 487.7 201 450.2 201C412.7 201 375.3 201 337.8 201C300.3 201 262.7 201 225.2 201C187.7 201 150.3 201 112.8 201C75.3 201 37.7 201 18.8 201L0 201Z" fill="#fcf0ad"></path><path d="M0 139L18.8 139.7C37.7 140.3 75.3 141.7 112.8 138.7C150.3 135.7 187.7 128.3 225.2 126C262.7 123.7 300.3 126.3 337.8 124.2C375.3 122 412.7 115 450.2 115.2C487.7 115.3 525.3 122.7 562.8 124.8C600.3 127 637.7 124 675.2 126.3C712.7 128.7 750.3 136.3 787.8 135.7C825.3 135 862.7 126 881.3 121.5L900 117L900 201L881.3 201C862.7 201 825.3 201 787.8 201C750.3 201 712.7 201 675.2 201C637.7 201 600.3 201 562.8 201C525.3 201 487.7 201 450.2 201C412.7 201 375.3 201 337.8 201C300.3 201 262.7 201 225.2 201C187.7 201 150.3 201 112.8 201C75.3 201 37.7 201 18.8 201L0 201Z" fill="#fcd78d"></path><path d="M0 137L18.8 138.8C37.7 140.7 75.3 144.3 112.8 144C150.3 143.7 187.7 139.3 225.2 140.3C262.7 141.3 300.3 147.7 337.8 148.8C375.3 150 412.7 146 450.2 142.5C487.7 139 525.3 136 562.8 136.7C600.3 137.3 637.7 141.7 675.2 145.5C712.7 149.3 750.3 152.7 787.8 153C825.3 153.3 862.7 150.7 881.3 149.3L900 148L900 201L881.3 201C862.7 201 825.3 201 787.8 201C750.3 201 712.7 201 675.2 201C637.7 201 600.3 201 562.8 201C525.3 201 487.7 201 450.2 201C412.7 201 375.3 201 337.8 201C300.3 201 262.7 201 225.2 201C187.7 201 150.3 201 112.8 201C75.3 201 37.7 201 18.8 201L0 201Z" fill="#febc73"></path><path d="M0 160L18.8 160.8C37.7 161.7 75.3 163.3 112.8 163.7C150.3 164 187.7 163 225.2 161.3C262.7 159.7 300.3 157.3 337.8 156.2C375.3 155 412.7 155 450.2 155C487.7 155 525.3 155 562.8 156.2C600.3 157.3 637.7 159.7 675.2 160.8C712.7 162 750.3 162 787.8 162.7C825.3 163.3 862.7 164.7 881.3 165.3L900 166L900 201L881.3 201C862.7 201 825.3 201 787.8 201C750.3 201 712.7 201 675.2 201C637.7 201 600.3 201 562.8 201C525.3 201 487.7 201 450.2 201C412.7 201 375.3 201 337.8 201C300.3 201 262.7 201 225.2 201C187.7 201 150.3 201 112.8 201C75.3 201 37.7 201 18.8 201L0 201Z" fill="#ff9f61"></path></svg>