<svg id="visual" viewBox="0 0 900 600" width="900" height="600" xmlns="http://www.w3.org/2000/svg" xmlns:xlink="http://www.w3.org/1999/xlink" version="1.1"><rect x="0" y="0" width="900" height="600" fill="#056ccd"></rect><path d="M0 482L9.3 484.5C18.7 487 37.3 492 56.2 492C75 492 94 487 112.8 484.8C131.7 482.7 150.3 483.3 169 481.2C187.7 479 206.3 474 225 471.7C243.7 469.3 262.3 469.7 281.2 470.7C300 471.7 319 473.3 337.8 475.2C356.7 477 375.3 479 394 482.3C412.7 485.7 431.3 490.3 450 488.2C468.7 486 487.3 477 506.2 471.8C525 466.7 544 465.3 562.8 466.5C581.7 467.7 600.3 471.3 619 477.5C637.7 483.7 656.3 492.3 675 491.5C693.7 490.7 712.3 480.3 731.2 479C750 477.7 769 485.3 787.8 486.3C806.7 487.3 825.3 481.7 844 482.2C862.7 482.7 881.3 489.3 890.7 492.7L900 496L900 601L890.7 601C881.3 601 862.7 601 844 601C825.3 601 806.7 601 787.8 601C769 601 750 601 731.2 601C712.3 601 693.7 601 675 601C656.3 601 637.7 601 619 601C600.3 601 581.7 601 562.8 601C544 601 525 601 506.2 601C487.3 601 468.7 601 450 601C431.3 601 412.7 601 394 601C375.3 601 356.7 601 337.8 601C319 601 300 601 281.2 601C262.3 601 243.7 601 225 601C206.3 601 187.7 601 169 601C150.3 601 131.7 601 112.8 601C94 601 75 601 56.2 601C37.3 601 18.7 601 9.3 601L0 601Z" fill="#fcf0ad"></path><path d="M0 495L9.3 500C18.7 505 37.3 515 56.2 515C75 515 94 505 112.8 502.8C131.7 500.7 150.3 506.3 169 507.3C187.7 508.3 206.3 504.7 225 502.7C243.7 500.7 262.3 500.3 281.2 501.3C300 502.3 319 504.7 337.8 506.8C356.7 509 375.3 511 394 510.5C412.7 510 431.3 507 450 505.8C468.7 504.7 487.3 505.3 506.2 503.5C525 501.7 544 497.3 562.8 499.8C581.7 502.3 600.3 511.7 619 512C637.7 512.3 656.3 503.7 675 499C693.7 494.3 712.3 493.7 731.2 498C750 502.3 769 511.7 787.8 512.2C806.7 512.7 825.3 504.3 844 500.3C862.7 496.3 881.3 496.7 890.7 496.8L900 497L900 601L890.7 601C881.3 601 862.7 601 844 601C825.3 601 806.7 601 787.8 601C769 601 750 601 731.2 601C712.3 601 693.7 601 675 601C656.3 601 637.7 601 619 601C600.3 601 581.7 601 562.8 601C544 601 525 601 506.2 601C487.3 601 468.7 601 450 601C431.3 601 412.7 601 394 601C375.3 601 356.7 601 337.8 601C319 601 300 601 281.2 601C262.3 601 243.7 601 225 601C206.3 601 187.7 601 169 601C150.3 601 131.7 601 112.8 601C94 601 75 601 56.2 601C37.3 601 18.7 601 9.3 601L0 601Z" fill="#fcd78d"></path><path d="M0 543L9.3 541C18.7 539 37.3 535 56.2 533.8C75 532.7 94 534.3 112.8 533.8C131.7 533.3 150.3 530.7 169 530.2C187.7 529.7 206.3 531.3 225 532.7C243.7 534 262.3 535 281.2 533.3C300 531.7 319 527.3 337.8 528.8C356.7 530.3 375.3 537.7 394 540.3C412.7 543 431.3 541 450 540C468.7 539 487.3 539 506.2 537.2C525 535.3 544 531.7 562.8 530.7C581.7 529.7 600.3 531.3 619 534C637.7 536.7 656.3 540.3 675 539.7C693.7 539 712.3 534 731.2 532.7C750 531.3 769 533.7 787.8 536.7C806.7 539.7 825.3 543.3 844 545.2C862.7 547 881.3 547 890.7 547L900 547L900 601L890.7 601C881.3 601 862.7 601 844 601C825.3 601 806.7 601 787.8 601C769 601 750 601 731.2 601C712.3 601 693.7 601 675 601C656.3 601 637.7 601 619 601C600.3 601 581.7 601 562.8 601C544 601 525 601 506.2 601C487.3 601 468.7 601 450 601C431.3 601 412.7 601 394 601C375.3 601 356.7 601 337.8 601C319 601 300 601 281.2 601C262.3 601 243.7 601 225 601C206.3 601 187.7 601 169 601C150.3 601 131.7 601 112.8 601C94 601 75 601 56.2 601C37.3 601 18.7 601 9.3 601L0 601Z" fill="#febc73"></path><path d="M0 572L9.3 570.7C18.7 569.3 37.3 566.7 56.2 565C75 563.3 94 562.7 112.8 563C131.7 563.3 150.3 564.7 169 564.5C187.7 564.3 206.3 562.7 225 562.7C243.7 562.7 262.3 564.3 281.2 565.2C300 566 319 566 337.8 564.2C356.7 562.3 375.3 558.7 394 558.7C412.7 558.7 431.3 562.3 450 563C468.7 563.7 487.3 561.3 506.2 562.7C525 564 544 569 562.8 568.7C581.7 568.3 600.3 562.7 619 562.2C637.7 561.7 656.3 566.3 675 565.8C693.7 565.3 712.3 559.7 731.2 557.8C750 556 769 558 787.8 561C806.7 564 825.3 568 844 569C862.7 570 881.3 568 890.7 567L900 566L900 601L890.7 601C881.3 601 862.7 601 844 601C825.3 601 806.7 601 787.8 601C769 601 750 601 731.2 601C712.3 601 693.7 601 675 601C656.3 601 637.7 601 619 601C600.3 601 581.7 601 562.8 601C544 601 525 601 506.2 601C487.3 601 468.7 601 450 601C431.3 601 412.7 601 394 601C375.3 601 356.7 601 337.8 601C319 601 300 601 281.2 601C262.3 601 243.7 601 225 601C206.3 601 187.7 601 169 601C150.3 601 131.7 601 112.8 601C94 601 75 601 56.2 601C37.3 601 18.7 601 9.3 601L0 601Z" fill="#ff9f61"></path></svg>