<?xml version="1.0" encoding="utf-8"?>
<!-- Generator: Adobe Illustrator 27.0.0, SVG Export Plug-In . SVG Version: 6.00 Build 0)  -->
<svg version="1.1" id="visual" xmlns="http://www.w3.org/2000/svg" xmlns:xlink="http://www.w3.org/1999/xlink" x="0px" y="0px"
	 viewBox="0 0 900 155.4" style="enable-background:new 0 0 900 155.4;" xml:space="preserve">
<style type="text/css">
	.st0{fill:#FFFFFF;}
	.st1{fill:#6DBEFF;}
	.st2{fill:#4CA4F7;}
</style>
<polygon class="st0" points="0,-0.5 900,0.1 900,155.4 0,155.4 "/>
<path class="st1" d="M0,61.4l21.5-0.7c21.5-0.6,64.5-2,107.3,2.9c42.9,4.8,85.5,15.8,128.4,13.8c42.8-2,85.8-17,128.6-22.3
	c42.9-5.4,85.5-1,128.4,3.6c42.8,4.7,85.8,9.7,128.6,8.9c42.9-0.9,85.5-7.5,128.4-8.4c42.8-0.8,85.8,4.2,107.3,6.7l21.5,2.5v88
	h-21.5c-21.5,0-64.5,0-107.3,0c-42.9,0-85.5,0-128.4,0c-42.8,0-85.8,0-128.6,0c-42.9,0-85.5,0-128.4,0c-42.8,0-85.8,0-128.6,0
	c-42.9,0-85.5,0-128.4,0c-42.8,0-85.8,0-107.3,0H0V61.4z"/>
<path class="st2" d="M0,61.4l21.5,7.8C43,77.1,86,92.7,128.8,96.7c42.9,4,85.5-3.6,128.4-3.8c42.8-0.2,85.8,7.2,128.6,10
	c42.9,2.8,85.5,1.2,128.4-4C557,93.7,600,85.1,642.8,86.2c42.9,1.2,85.5,12.2,128.4,13.9c42.8,1.6,85.8-6,107.3-9.9l21.5-3.8v70
	h-21.5c-21.5,0-64.5,0-107.3,0c-42.9,0-85.5,0-128.4,0c-42.8,0-85.8,0-128.6,0c-42.9,0-85.5,0-128.4,0c-42.8,0-85.8,0-128.6,0
	c-42.9,0-85.5,0-128.4,0c-42.8,0-85.8,0-107.3,0H0V61.4z"/>
</svg>
