<svg id="visual" viewBox="0 0 900 200" width="900" height="200" xmlns="http://www.w3.org/2000/svg" xmlns:xlink="http://www.w3.org/1999/xlink" version="1.1"><rect x="0" y="0" width="900" height="200" fill="#ffffff"></rect><path d="M0 86L16.7 92C33.3 98 66.7 110 100 108C133.3 106 166.7 90 200 83.7C233.3 77.3 266.7 80.7 300 87.3C333.3 94 366.7 104 400 99.8C433.3 95.7 466.7 77.3 500 76.3C533.3 75.3 566.7 91.7 600 93C633.3 94.3 666.7 80.7 700 81.8C733.3 83 766.7 99 800 102.3C833.3 105.7 866.7 96.3 883.3 91.7L900 87L900 201L883.3 201C866.7 201 833.3 201 800 201C766.7 201 733.3 201 700 201C666.7 201 633.3 201 600 201C566.7 201 533.3 201 500 201C466.7 201 433.3 201 400 201C366.7 201 333.3 201 300 201C266.7 201 233.3 201 200 201C166.7 201 133.3 201 100 201C66.7 201 33.3 201 16.7 201L0 201Z" fill="#56acf3"></path></svg>