<?xml version="1.0" encoding="utf-8"?>
<!-- Generator: Adobe Illustrator 27.0.0, SVG Export Plug-In . SVG Version: 6.00 Build 0)  -->
<svg version="1.1" id="visual" xmlns="http://www.w3.org/2000/svg" xmlns:xlink="http://www.w3.org/1999/xlink" x="0px" y="0px"
	 viewBox="0 0 900 272.7" style="enable-background:new 0 0 900 272.7;" xml:space="preserve">
<style type="text/css">
	.st0{fill:#005CB1;}
	.st1{fill:#3CB51A;}
	.st2{fill:#E36841;}
	.st3{fill:#3CB0C9;}
	.st4{fill:#40B1C8;}
	.st5{fill:#D67353;}
	.st6{fill:#E82340;}
	.st7{fill:#04A7BC;}
	.st8{fill:#4193AF;}
	.st9{fill:#2590BD;}
	.st10{fill:#2F91B8;}
	.st11{fill:#FCFDFF;}
	.st12{fill:#F6F9F8;}
	.st13{fill:#FFFFFF;}
	.st14{fill:#D5E2DE;}
	.st15{fill:#EFF5F7;}
	.st16{fill:#FCF0AD;}
	.st17{fill:#FCD78D;}
	.st18{fill:#FEBC73;}
	.st19{fill:#FF9F61;}
	.st20{fill:#7FB20F;}
	.st21{fill:#DD4571;}
	.st22{fill:#343482;}
	.st23{fill:#2B274C;}
	.st24{fill:#A5C6E5;}
	.st25{fill:#2F3E7C;}
	.st26{fill:#577593;}
	.st27{fill:#366399;}
	.st28{fill:#FFB600;}
	.st29{fill:#CE8E00;}
	.st30{fill:#EA5615;}
	.st31{fill:#DA6C49;}
	.st32{fill:#F69875;}
	.st33{fill:#2A4981;}
	.st34{fill:#63A800;}
	.st35{fill:#4E8910;}
	.st36{fill:#EF4B9D;}
	.st37{fill:#00ABE0;}
	.st38{fill:#C63470;}
	.st39{fill:#566B55;}
	.st40{fill:#1D561A;}
	.st41{fill:#007EA5;}
	.st42{fill:#4F6B7F;}
	.st43{fill:#68384C;}
	.st44{fill:#4F1027;}
	.st45{fill:#587F79;}
	.st46{fill:#3B5D98;}
	.st47{fill:#6C546C;}
	.st48{fill:#295AA2;}
	.st49{fill:#ED984C;}
	.st50{fill:#DB6F16;}
	.st51{fill:#9F5ACC;}
	.st52{fill:#BE9FD6;}
	.st53{fill:#F5FAF9;}
	.st54{fill:#00B798;}
</style>
<rect x="0.1" y="-0.3" class="st0" width="900" height="200"/>
<path class="st1" d="M266.2,138.7c0.7,0.1,1.4,0,1.7-0.3c1.4-1.4,2.7-0.8,4.2-0.2c3.7,1.6,7.4,1.5,11-0.4c0.6-0.3,1.2-0.6,1.1-1.3
	c0-0.8-0.7-0.9-1.3-1.1c-3.9-1.2-7.9-1.5-11.8,0.1c-1,0.4-1.9,0.5-2.7-0.5c-0.3-0.4-0.8-0.7-1.3-1c-0.4-0.3-0.9-0.5-1.3-0.1
	c-0.5,0.4-0.1,0.8,0,1.3C266.1,136.3,266.1,137.5,266.2,138.7z"/>
<g>
	<path class="st2" d="M317.3,115.5c2.3,1.1,4.5-0.4,5.1-3.2l0,0c0.5,0,1,0,1.4-0.1c0.4-0.1,0.7-0.2,0.9,0.2c0.2,0.4,0,0.6-0.3,0.9
		c-0.9,0.6-0.7,1.4-0.6,2.3c0.4,2-0.4,3.1-2.5,3.3l-0.1,0c-0.3-0.9-0.4-2-1.5-2.1c-1.2-0.1-2.5-0.3-3.6,0.4
		c-0.4,0.3-0.4,0.7-0.4,1.2c-0.2,0.1-0.4,0.2-0.6,0.2c-0.9,0-1.8-0.3-2.7,0.2c-2,1.2-4.1,1.5-6.4,1.5c-0.9,0-1.9-0.4-2.8,0.3
		c-0.3,0.1-0.6,0.1-0.8-0.1c-2-1.4-4.2-2.3-6.6-2.4l0,0c-0.7-2.5-0.7-2.6,2-3.5c1-0.3,2-0.8,3-0.8c1.1,0,1.8-0.6,2.5-1.2
		c0.2-0.1,0.3-0.2,0.5-0.3c0.3,0.1,0.6,0.1,0.9,0.2c1.1,0.6,2.2,0.6,3.3,0c0.4-0.1,0.8-0.1,1.3,0.1c0.1,0.4,0.2,0.6,0.7,0.7"/>
	<path class="st2" d="M309.7,113.1c2.6,0.6,5.2,1.1,7.6,2.3"/>
	<path class="st3" d="M307,141.6c0.3,0,0.5-0.1,0.8-0.1c0.5,0,1,0.2,1.3-0.3l0,0c0.6,0,1.2,0,1.9,0c3.7,0,7.1,0.9,10.2,3
		c-0.3,1.5-1.3,2.2-2.6,2.6c-3.6,1-7.2,2-11,1c-1.9-0.5-3.6-1.4-5.5-1.7c-1-0.1-0.6-1.2-1-1.7C302.9,143,305,142.5,307,141.6z"/>
	<path class="st4" d="M310.2,89.2c-1.5,0.1-2.9-0.1-4.3-0.6c-1.4-0.5-2.7-0.6-3.8,0.6c-0.4,0.4-1,0.8-1.5,0.5
		c-0.5-0.3-0.2-0.9,0-1.4c0.2-0.4-0.2-0.7-0.1-1.1c0.1-2,0.6-2.4,2.2-1.4c1,0.7,1.8,0.6,2.9,0.1c3.2-1.6,6.4-1.6,9.6,0
		c0.6,0.3,1.3,0.6,1.3,1.3c0,0.8-0.8,0.9-1.3,1.2C313.5,89.1,311.9,89.4,310.2,89.2z"/>
	<path class="st4" d="M301.1,144.3c0.4,0.5,0,1.5,1,1.7c1.9,0.3,3.7,1.2,5.5,1.7c3.8,1.1,7.4,0.1,11-1c1.2-0.3,2.3-1,2.6-2.6
		c0.3,0,0.5,0,0.8,0.1c0.3,0.3,0.3,0.7,0.4,1.1c-0.6,1.1-1.7,1.4-2.7,1.9c-1.3,0.6-2.8,0.5-4,1.3c-0.4,0-0.8,0.1-1.2,0.1
		c-2.2,0-4.4,0-6.7,0c-0.3,0-0.5-0.1-0.8-0.1c-1.5-0.5-3-1-4.6-1.3c-0.2-0.4-0.5-0.4-0.8-0.4c-1.1-1.1-1.9-0.8-2.5,0.5l0,0
		c-1.1,0.9-2.1,1.9-3.4,2.4c-0.7,0.2-1.5,0.1-1.4-0.7c0.2-1.4,1.1-2.6,0.3-4.1c1-0.7,0.6-1.8,0.4-2.8c1.7-0.4,2.9,0.5,4.1,1.4
		C299.6,143.9,300.1,144.7,301.1,144.3z"/>
	<path class="st5" d="M322.4,112.2c0.2-0.2,0.3-0.5,0.5-0.6c0.8-0.3,1.6-1.2,2.4-0.2c0.7,0.9,0.2,1.9-0.4,2.5
		c-1,1.2,0.1,1.4,0.6,1.9l0,0c0,0.4-0.1,0.7-0.4,0.9c-0.9,0.8-0.9,1.6-0.1,2.5c-0.1,0.4-0.3,0.7-0.6,0.9c-1.1-0.3-2.3-0.5-3.2-1.4
		c2-0.2,2.9-1.3,2.5-3.3c-0.2-0.9-0.3-1.7,0.6-2.3c0.3-0.2,0.6-0.4,0.3-0.9c-0.2-0.4-0.5-0.3-0.9-0.2
		C323.4,112.3,322.9,112.2,322.4,112.2z"/>
	<path class="st5" d="M319.7,114.6c0.8-0.9,1.5-2,2.7-2.3"/>
	<path class="st5" d="M306.2,117c2.6,0.7,5.2,1.3,7.6,2.6"/>
	<path class="st5" d="M295.7,118c-0.4,0-0.8-0.2-1.1-0.5c-1.3-1.1-1.2-2.1,0.3-2.8c1.9-0.9,3.9-1.5,5.9-1.9c0.3-0.1,0.5-0.2,0.8-0.2
		c0.5,0,1-0.3,1.6,0c-0.7,0.6-1.4,1.2-2.5,1.2c-1,0-2,0.5-3,0.8C295,115.3,295,115.4,295.7,118z"/>
	<path class="st5" d="M304.5,112.4c1-0.1,1.9-0.1,2.9-0.2"/>
	<path class="st5" d="M315.1,118.5c-3.7,2.1-7.7,2.8-11.9,2"/>
	<path class="st5" d="M302.4,120.4c-2.4-0.3-4.6-1-6.6-2.4"/>
</g>
<g>
	<path class="st6" d="M366.9,113.2c0.4,0.1,0.9,0.1,1.3,0.2c3.5,0.9,7,1.9,10.3,3.7c1.1,0.6,2.4,1.1,2.3,2.5
		c-0.1,1.4-1.5,1.9-2.6,2.2c-3.1,0.9-6.1,1.8-9.2,2.7c-0.7,0.1-1.3,0.1-2,0.2c-6.7,0.2-13.1-0.7-19.2-3.5c-1.3-0.6-2.2-0.4-3.2,0.7
		c-1.4,1.4-2.7,3-4.7,3.7c-0.9,0.3-2,0.9-2.8-0.1c-0.7-0.8-0.4-1.7,0.1-2.5c0.7-1.1,1.4-2-0.1-3.1c-0.4-0.3-0.3-0.9,0-1.2
		c1.6-1.2,0.5-2.8,0.6-4.2c3.1-0.4,5.2,1.2,7.2,2.7c0.8,0.6,1.4,1.4,2.6,0.7c3.9-2.5,8.3-3.6,12.8-4.7c0.4,0,0.9-0.1,1.3-0.1
		C363.3,113.2,365.1,113.2,366.9,113.2z"/>
	<path class="st7" d="M431.6,124.9c-1.2,0.2-2.3-0.1-2.8-0.6c-2.3-2.2-4.5-1.4-7-0.3c-6.1,2.7-12.2,2.4-18.1-0.7
		c-0.9-0.5-1.9-0.9-1.8-2.1c0.1-1.3,1.2-1.5,2.1-1.8c6.5-2,12.9-2.4,19.3,0.2c1.7,0.7,3.1,0.9,4.4-0.7c0.5-0.7,1.4-1.1,2.1-1.6
		c0.7-0.5,1.4-0.8,2.2-0.2c0.8,0.7,0.1,1.3,0,2.1C431.8,121,431.8,122.9,431.6,124.9z"/>
	<path class="st1" d="M397.2,87c2.2-1.5,5-1.7,7.4-2.6c1.8,0,3.6,0,5.3,0c2.7,0.9,5.6,1.3,8.1,2.8c0.2,1.8-0.4,2.8-2.3,3.3
		c-3.4,0.9-6.6,2.3-10.3,1.2c-1.4-0.4-3.3-0.7-4.8,0.5c-0.5,0.1-0.9,0.1-1.3-0.2c-0.1-0.6-0.4-1-1-1.2
		C395.7,90.2,396.1,88.7,397.2,87z"/>
	<path class="st5" d="M407.4,162.4c0.4-3.1,0.8-6.1,1.1-9.3c2.2-0.6,3.8,0.7,5.3,2c1.3,1.1,2.4,1.1,3.8,0.2c1.2-0.8,2.6-1.3,3.9-1.9
		c0.7-0.2,1.3-0.3,2-0.5c0.4,0.1,0.7-0.1,0.9-0.4c0.6-0.1,1.2-0.2,1.8-0.3c0.8,0.1,1.6,0.2,2.3-0.4c0.9,0.2,1.9,0.2,2.8,0
		c2,0.8,4.2,0.7,6.3,1.2c0.1,0.1,0.3,0.2,0.5,0.1c1.3,1.1,3.3,1,4.4,2.4l-0.2,0.2c-3.3,0.3-6-1.9-9.1-2.4c-5.9-1-10.7,1.2-15.6,3.7
		c4.1,3.3,8.6,4,13.4,3.3c1.6-0.2,2.8,0,4,0.7c-0.3,0.2-0.5,0.4-0.8,0.6c-0.9,0.1-1.7,0.2-2.6,0.3c-3.7-0.1-7.6,0-10.8-1.6
		c-4.3-2.1-7.4-1.3-10.3,2.2c-0.4,0.1-0.8,0.2-1.1,0.3c-0.5,0-0.9,0-1.4,0C407.8,162.5,407.6,162.5,407.4,162.4z"/>
	<path class="st1" d="M418.1,87.3c1,0.1,1.8,0.8,2.5,1.4c0,0.8-0.5,1.5-0.8,2.2c-5.2,1.7-10.4,3-16,2.2c-1.1-0.1-2.2,0.1-3.2-0.8
		c1.5-1.2,3.4-0.9,4.8-0.5c3.7,1,6.9-0.4,10.3-1.2C417.7,90.1,418.3,89.1,418.1,87.3z"/>
	<path class="st5" d="M442.5,155.5c2.4,1.6,2.4,2.4,0.1,3.6c-1.2,0.6-2.5,1-3.7,1.5c-0.2,0-0.4,0.1-0.5,0.3c-0.7,0-1.4,0-2.1,0
		c0.6-1.6,2.3-1.3,3.5-1.8c1.4-0.6,2.9-1.2,2.5-3.2L442.5,155.5z"/>
	<path class="st1" d="M399.3,92.1c-0.1,0-0.3,0.1-0.3,0c-4-2.4-7.2-1.1-10,2c-1.7,0.4-2.9,0.4-2.3-2.1c0.5-2.1,0.5-4.3,0.7-6.7
		c1.3-0.1,2.6,0.2,3.4,1c2.1,1.9,4.2,2,6.5,0.7c-1.2,1.7-1.5,3.2,1.1,3.9C398.9,91.1,399.2,91.5,399.3,92.1z"/>
	<path class="st2" d="M436.2,160.8c-0.5,0-0.9,0.1-1.4,0.1c-1.2-0.7-2.4-1-4-0.7c-4.7,0.7-9.2,0-13.4-3.3c4.9-2.5,9.7-4.7,15.6-3.7
		c3.2,0.6,5.8,2.7,9.1,2.4c0.4,2-1.1,2.6-2.5,3.2C438.5,159.4,436.9,159.1,436.2,160.8z"/>
</g>
<g>
	<path class="st8" d="M77.6,84c0.2-0.5,0.4-1,0.6-1.5c1-1.1,1.8-2.5,3.5-2.4l0,0c1.8,2,0.4,5.1,2.5,7c2.4,2.2,2.2,4.8,0.7,7.3
		c-1.2,2-1.5,3.9-0.8,6.1c0.6,1.8-0.1,3.5-0.9,5.3c-1.7,4.1-3.9,7.3-8.2,8.9c-1.1,0.4-1,1.5-1.4,2.3c-1.4,0.8-2,2.3-2.8,3.5
		c-0.7,0.6-1.4,1.2-2.1,1.7c-3.4,1.5-5.4,4.1-5.5,8c-0.1,0.3-0.1,0.5-0.2,0.8c-1.1,2.3-1.8,4.8-2.4,7.3c-0.2,0.2-0.2,0.4-0.1,0.6
		c-1.5,2.9-2.4,6-2.9,9.2c-0.1,0.4-0.2,0.9-0.3,1.3c-1.6,3.5-2.3,7.3-3,11c2.5,0.4,2.8-1.5,3.7-2.7c0.8,4.7,3.8,6.3,8.1,4
		c0.9-0.5,1.7-0.6,2.7-0.6c-0.9,0.9-1.7,1.9-2.6,2.8c-0.5,0.2-1,0.4-1.6,0.6c-1.4-0.2-2.9-0.2-4.3-0.8c-4.6-1.8-7.2-0.3-7.7,4.4
		c-0.3,2.5-1.3,5-0.8,7.6c-0.1,0.8-0.2,1.6-0.3,2.3c-1,2.9-0.6,6-0.7,9l0,0c-1,4.7-0.9,9.4-0.1,14.2c0,0.6-0.1,1.1-0.1,1.7
		c-0.2,0.4-0.4,0.8-0.6,1.1c-0.5,0.1-1.1,0.1-1.6,0.2c-0.3-0.3-0.6-0.6-1-0.9c0-1.1,0.2-2.3-0.4-3.3c0-2.1-0.1-4.3-0.1-6.4
		c0.2-3.9,0.4-7.8,0.7-11.6c0.1-1.7-0.6-2.9-1.6-4.3c-2.5-3.2-5.9-5.3-8.9-7.9c0-0.2-0.1-0.4-0.3-0.6c-0.7-4.9-1.9-9.4-6-12.7
		c-0.9-0.7-1.5-2.1-1.3-3.3c0.6-3.7-0.7-7.2-1.4-10.7c0.5-0.6,1-1.1,1.5-1.7c1.3,0,2.2,0.6,3.3,1.4c4.2,3,8.7,5.7,9.5,11.5
		c0,0.3,0.5,0.6,0.7,1c3.5,4.9,2.7,10.4,2.4,15.8c0,0.4-0.6,0.8-1,1.2c0.7-4.1-0.2-8.1-1-12.2c-0.5-2.5-3-3.8-3.3-6.3
		c-0.7-5.6-5.7-6.8-9.3-9.6c0.6,2.8,0.4,5.5,0.3,8.1c-0.1,1.9,0.4,3.7,2,4.5c3.9,2,4,5.3,3.7,8.9c-0.1,1.5,0,3.5,1.4,3.9
		c2.2,0.7,3.8,2.6,6.1,2.9c1.4,0.6,1.6,2.8,3.6,2.8c0.9-4.9,1.7-9.7,2.7-14.4c1.1-4.7,2.5-9.4,3.8-14c1.1-3.8-0.2-7.6-3.9-9.2
		c-2.8-1.2-3.4-3.1-3.4-5.7c0.5-0.1,1.3-0.1,1.2,0.5c-0.5,2.4,1.4,2.9,2.8,3.8c0.6,0.4,1.3,0.6,1.9,0.2c0.7-0.5,0.2-1.2,0.1-1.8
		c-0.7-3.9-1.3-7.9-1.9-11.8c1.4,0.3,2.3,1.4,2.2,2.6c-0.4,3.4,2,6.4,0.9,9.9c-0.5,1.6,0.7,2.8,2.1,3.5c6.1-13.7,7.3-26.2,3-42
		c1,0,2,0,3.1,0.1c2.8,7.6,2.7,15.5,2.5,23.6c4.9-2.8,6-5,4.5-9.1c-0.7-2.1-0.6-4,0.5-5.8c1.1-1.9,1.9-3.9,1.5-6.1
		c-0.6-3.9,0.8-6.9,4-9.1c0,1.1,0.4,2.4-0.4,3.1c-2.4,1.9-2,4.5-2,7c0,1.2-0.1,2.5-0.7,3.5c-2.3,3.8-0.3,7.8-1,12
		c3.8-3.1,6.7-6,9.1-9.7c1.6-2.3,2-4.3,0.8-6.7c-0.6-1.3-0.4-2.1,0.4-3.5c1.6-2.7,3.1-5.8,0.1-8.8c-0.3-0.3-0.4-0.7-0.5-1.1
		c-0.3-0.9,0.2-2.4-1.5-2.3c-1.4,0.1-0.7,1.6-1.2,2.2c-0.8,1.2-0.3,3.6-2.8,3.3c0-0.5-0.1-0.9-0.1-1.4l0-0.1c0.8-0.4,0.7-1,0.6-1.7
		C77.3,85.1,77.7,84.6,77.6,84z"/>
	<path class="st9" d="M51.9,52.1c0-0.2,0-0.4-0.2-0.5c-0.1-1.7-1-3.3,0.1-5.1c1.4-2.2,2.2-4.5,2.5-7.1c0.3-2.1,1.7-3.6,3.9-4.2
		c2.4-0.6,3.8,0.7,5,2.5l0,0.1c0,0.3-0.1,0.6-0.1,0.9c0.1,1.6-0.5,3.3,1.2,4.4c2,1.3,2.2,3.1,1.2,5.2c-0.5,1.1-0.8,2.2-0.8,3.5
		c0,4.1,0.6,8.2-1.6,12c-0.3,0.3-0.5,0.5-0.8,0.8c-1.9,0.3-3.5,1.1-4.5,2.8c-0.6,1.1-1.4,1.4-2.6,1.3c0-0.5-0.1-1.1-0.1-1.6
		c0.8-0.5,0.9-1.3,0.5-2c-1-2-2.1-4.1-3.1-6.1C53,56.5,54.4,54.1,51.9,52.1z"/>
	<path class="st9" d="M68.8,161.1c-0.9,0-1.8,0.1-2.7,0.6c-4.3,2.3-7.4,0.7-8.1-4l0.1,0c1.6-0.4,2.5-1.5,2.7-3.1
		c2.3,0,4-0.8,4.3-3.2c0.5-4.1,2.6-7.1,6.1-9.2l0,0c1.2,0.2,1.7-0.3,1.8-1.4l0,0c0.7-0.1,1.5-0.1,1.2-1.2l0.1,0
		c0.6,0.1,0.9-0.1,0.7-0.7l0-0.1c1-0.1,2.3-0.7,3.1-0.4c3.3,1.4,3.9-0.8,4.5-3.1c0.3-0.3,0.6-0.5,0.9-0.8c1.2-0.9,2.6-1.8,4-0.9
		c1.7,1.1,0.5,2.6,0.2,4c-0.3,1.6-1.7,3.2-0.3,4.9c0,1.3,0.1,2.7,0.1,4c-1.4,2.1-3.1,3.7-5.6,4.3c0.3-2.2-0.7-3.5-2.6-4.4
		c-4.7-2.3-8,0.1-7.9,5.9c0.2,1.6-0.3,3.1-1,4.5C69.5,158.1,68.6,159.4,68.8,161.1L68.8,161.1z"/>
	<path class="st8" d="M55.2,68.6c1.1,0.1,1.9-0.2,2.6-1.3c1-1.7,2.6-2.5,4.5-2.8l0.2,0.2c-3,2.9-5.6,6.1-6.7,10.3l0,0
		c-0.8,0.4-0.5,0.8,0,1.2c-0.1,0.2,0,0.4,0.2,0.5c0,0.5,0.2,0.9,0.6,1.2c-0.1,0.2-0.1,0.3,0.1,0.4c0.9,3.3,3.2,6,3.5,9.5
		c-1,0.3-1.9,0.6-1.9,1.9c-1.2-1.1-0.9-3-2.1-4.1c-1.8-1.8-1.8-4.4-2.9-6.5c-4.8-9.2-10.3-17.9-16.9-26c-0.3-0.7-0.8-1-1.6-1.1
		c-0.4-0.4-0.8-0.7-1.1-1.1c0.1-0.1,0.2-0.2,0.3-0.3c1.3,0,3.5,2,3.2-1.5c1.2,1.3,2.3,2.6,3.5,3.9c2,2.8,3.7,5.9,6.1,8.4
		c0.1,0.6,0.3,1.1,0.8,1.4c0.7,1.4,1.3,2.9,2.5,4c0,0.4,0.2,0.7,0.6,0.9c0.6,1.4,1.2,2.9,2.5,3.9C54.5,70.9,54.4,69.5,55.2,68.6z"/>
	<path class="st8" d="M40.2,90.9c-0.9-0.6-1.6-1.6-2.6-1.9c-5.1-1.3-6.5-6-9.2-9.5c-0.8-1.1-1.1-2.5-0.4-3.8
		c0.9-1.5,2.2-1.2,3.5-0.7c1.9,0.8,3.6-1,5.5-0.5c0.8,0.5,1.5,1,2.3,1.4c0.7,1.2,1.7,2.4,3.1,2.3c3.9-0.3,5.8,2.4,7.9,4.8
		c-0.2,0-0.3,0-0.5,0c-0.5,0-1.3,0.1-1.6-0.2c-2.1-1.8-4.2-3.3-7.2-3.2c-0.4,0-1-0.5-1.3-0.9c-2.3-3.2-5.6-2-8.6-2.1
		c-1.3,0-1.8,1.3-1.1,1.9c2.8,2.5,3.4,6.8,7.3,8.4C39.1,87.7,40.7,88.6,40.2,90.9z"/>
	<path class="st10" d="M62.3,93.7c0.2,0.1,0.3,0.1,0.5,0.1c0.1,0.8,0.2,1.5,0.3,2.3c-1,0-2,0-3.1-0.1c-1.4-0.1-2.8-0.2-4.1-0.3
		c-0.8,0.1-1.7,0.3-2.5,0.4c-0.5-0.1-1.1-0.2-1.6-0.2c-0.4-2.6,0.8-3.5,3.3-3.2c0.3-0.1,0.7-0.2,1-0.2c0,0,0,0.1,0,0.1
		c0.1,3,2.2,2.5,4.2,2.5c-0.1-1.2-0.4-2-1.3-2.4c0-0.5,0-1.1,0-1.6C60.4,91.5,61.1,93,62.3,93.7z"/>
	<path class="st8" d="M42.2,94c-0.8-0.8-1.9-1.4-1.9-2.8c1.9,0.5,3.9,0.7,5.9,0.9c1.7,0.2,4.4,0,3.8,3.3c-1.9-1.8-4-2.2-6.3-1.2
		C43.2,94.3,42.7,94.1,42.2,94z"/>
	<path class="st8" d="M33.7,51c-1.1-0.1-1.8-1.4-3-1.2c-0.4-0.1-0.8-0.1-1.2-0.2c-1.7-0.8-3.6-1.4-4.2-3.5c3.4,0.6,6.2,2.2,8.7,4.6
		C33.9,50.8,33.8,50.9,33.7,51z"/>
	<path class="st11" d="M33.9,24.7"/>
	<path class="st9" d="M76.4,88.8c2.5,0.3,2-2.1,2.8-3.3c0.5-0.7-0.2-2.1,1.2-2.2c1.7-0.2,1.2,1.4,1.5,2.3c0.1,0.4,0.2,0.8,0.5,1.1
		c3,2.9,1.5,6-0.1,8.8c-0.8,1.4-1,2.2-0.4,3.5c1.2,2.4,0.7,4.3-0.8,6.7c-2.4,3.6-5.4,6.6-9.1,9.7c0.7-4.2-1.3-8.1,1-12
		c0.6-1.1,0.7-2.3,0.7-3.5c-0.1-2.5-0.4-5.1,2-7c0.8-0.7,0.4-2,0.4-3.1C76.2,89.4,76.3,89.1,76.4,88.8z"/>
	<path class="st9" d="M44.8,171.6l0,0.1c-2.4-0.2-3.9-2.1-6.1-2.9c-1.4-0.5-1.6-2.4-1.4-3.9c0.3-3.6,0.1-6.9-3.7-8.9
		c-1.6-0.8-2.1-2.6-2-4.5c0.1-2.6,0.3-5.3-0.3-8.1c3.6,2.8,8.6,4,9.3,9.6c0.3,2.5,2.8,3.8,3.3,6.3C44.6,163.5,45.5,167.5,44.8,171.6
		z"/>
	<path class="st9" d="M49.4,114.7c2.3,2,1.1,5.1,2.4,7.4c0.6,3.9,1.2,7.9,1.9,11.8c0.1,0.6,0.6,1.3-0.1,1.8
		c-0.6,0.4-1.3,0.1-1.9-0.2c-1.5-0.9-3.3-1.4-2.8-3.8c0.1-0.6-0.7-0.6-1.2-0.5l0,0c-1.5-3.3-3.8-6.1-4.8-9.7c0-0.1-0.5-0.1-0.8-0.2
		c-0.2-0.1-0.2-0.2-0.2-0.4c0.2-0.8,0.1-1.7-0.6-2.2c-1.6-1.3-1.8-3.2-2-5c1.7-0.9,3-1.5,4.8,0.5C45,115.2,47.4,116,49.4,114.7z"/>
	<path class="st12" d="M76.3,87.3"/>
	<path class="st8" d="M49.4,114.7c-1.9,1.3-4.4,0.5-5.3-0.6c-1.8-2.1-3.1-1.4-4.8-0.5c0.2,1.9,0.4,3.7,2,5c0.7,0.5,0.7,1.4,0.6,2.2
		c-1.9-0.9-3.3-2.3-4-4.3c0-1.7,0.1-3.4,0.1-5c1.2-2,3.3-2.5,4.7-1C44.7,112.4,47.3,113.1,49.4,114.7z"/>
	<path class="st8" d="M42.1,121.3c0.3,0.1,0.7,0.1,0.8,0.2c1,3.5,3.3,6.4,4.8,9.7C43.5,129.2,41.6,125.9,42.1,121.3z"/>
	<path class="st12" d="M63.2,131.8"/>
	<path class="st12" d="M76.4,136.2c-0.1,0.2-0.2,0.4-0.4,0.5"/>
	<path class="st8" d="M66.1,54.9c0.1,0.8,0.2,1.5,0.4,2.3c-0.4,2.5-0.1,5.4-3,6.8c-0.1-0.1-0.2-0.2-0.3-0.4c2.2-3.8,1.6-7.9,1.6-12
		c0-1.3,0.3-2.4,0.8-3.5c1.1-2.1,0.9-3.9-1.2-5.2c-1.7-1.1-1.1-2.8-1.2-4.4c0.4,0.5,0.7,1.2,1.3,1.5c3.9,2.7,4.3,6.1,2.2,10.2
		C65.9,51.6,65.1,53.2,66.1,54.9z"/>
	<path class="st8" d="M55.1,66.9c-0.4-0.3-0.8-0.7-1.2-1c0-0.2-0.1-0.4-0.3-0.5c-0.1-0.8-0.3-1.4-1-1.8c0-0.2,0-0.5-0.2-0.7
		c0.2-1.4-1.4-2.7,0-4.1c1,2,2.1,4,3.1,6.1C56,65.6,55.9,66.4,55.1,66.9z"/>
	<path class="st8" d="M62.3,64.5c0.3-0.3,0.5-0.5,0.8-0.8c0.1,0.1,0.2,0.2,0.3,0.4c-0.3,0.2-0.7,0.4-1,0.6L62.3,64.5z"/>
	<path class="st13" d="M17.4,139.8"/>
	<path class="st9" d="M81.8,150.8c0.1,1.4-1.4,1.8-1.6,3c-0.1,0.2-0.1,0.4-0.1,0.7c-1.1,0.6-0.4,2.5-2,2.7c-1-1.1-1.5,0-2.1,0.6
		c-0.7,0.7-0.7,1.3,0.2,1.8c-1.6,1.2-3.4,0.5-5.1,0.5c0-3,1.2-5.2,4.1-6.2c1.1-0.4,1.8-1.2,2.3-2.1c0.3-0.5,0.3-1-0.1-1.5
		c-0.5-0.5-1.2-0.4-1.4,0.1c-1,2.3-3,1.8-4.8,1.9c0-5.8,3.3-8.2,7.9-5.9C81.1,147.3,82.1,148.6,81.8,150.8z"/>
	<path class="st8" d="M65.7,144.1c1.6-1.2,3.4-2.1,5.5-1.9c-3.5,2.1-5.6,5.1-6.1,9.2c-0.3,2.4-2.1,3.2-4.3,3.2l-0.2-0.3
		c0.5-1.3,2.3-1.5,2.4-3.1c0.1-0.2,0.2-0.5,0.2-0.8c1-1.7,1.4-3.7,1.8-5.6l-0.1,0C65.4,144.9,65.6,144.6,65.7,144.1L65.7,144.1z"/>
	<path class="st8" d="M71.3,152.2c1.8-0.1,3.8,0.4,4.8-1.9c0.2-0.4,0.9-0.6,1.4-0.1c0.4,0.4,0.4,1,0.1,1.5c-0.5,1-1.3,1.7-2.3,2.1
		c-2.9,1.1-4.1,3.3-4.1,6.2c-0.8,0.3-1.5,0.7-2.3,1c-0.2-1.7,0.6-3,1.4-4.4C71,155.3,71.4,153.8,71.3,152.2z"/>
	<path class="st8" d="M81.2,135.4c0.5,0,0.9,0,1.4-0.1c-0.6,2.3-1.2,4.5-4.5,3.1c-0.8-0.3-2.1,0.2-3.1,0.4c-0.1-0.9,0.8-1.3,1-2.1"
		/>
	<path class="st8" d="M58.1,157.7c-0.1-1.2,1-2,1.3-3c0.2,0,0.4-0.1,0.5-0.3l0.3,0l0.3,0l0.2,0.3C60.6,156.3,59.7,157.3,58.1,157.7z
		"/>
	<path class="st8" d="M71.1,142.3c0.4-0.7,1-1.2,1.8-1.4C72.9,142,72.3,142.5,71.1,142.3z"/>
	<path class="st8" d="M72.9,140.8c0.2-0.6,0.5-1.1,1.2-1.2C74.4,140.7,73.6,140.7,72.9,140.8z"/>
	<path class="st8" d="M74.2,139.6c0-0.5,0.2-0.7,0.7-0.7C75.1,139.6,74.9,139.8,74.2,139.6z"/>
	<path class="st10" d="M34,50.7c-2.4-2.4-5.3-3.9-8.7-4.6c-0.6-0.1-1-0.4-1.1-1c-0.7-1.5-2.1-0.7-3.2-0.9c-0.8-0.1-1.3-0.7-1.4-1.3
		c-0.6-3-1.7-5.6-4.6-7.1c-0.3-0.2-0.5-0.6-0.7-1c-0.9-1.6,0.2-9.8,1.4-11.1c2-2.2,4.1-1,6.2-0.1l0.3-0.1c0.3,1.2,1.1,2,2,2.8
		c0,0.4,0.1,0.7,0.5,0.9c0.4,0.7,1.1,1.3,1.9,1.4c2.7,0.5,4.3,1.9,4.3,4.8c0,1.3,1,2.2,2,2.9c2.6,1.8,3.4,4.4,3.5,7.3
		c0,1.9,0.5,3.7,0.9,5.5C37.5,52.6,35.3,50.7,34,50.7z"/>
	<path class="st10" d="M58.8,91c-0.2-0.4-0.4-0.8-0.6-1.3c0-1.3,0.9-1.7,1.9-1.9l0,0.1C59.7,88.9,59.3,89.9,58.8,91z"/>
	<path class="st8" d="M54.1,85.7c1.1,2.2,1.9,4.5,2,7c-0.3,0.1-0.7,0.2-1,0.2c0.2-1.4-0.5-2.6-0.9-3.8c-1-2.9-1.2-2.9-3.8-0.9
		c0-1.5,0-2.9,0-4.3c0.4,0.1,0.9,0.2,1.3,0.3l0.1,0c0.3,0.7,1,0.7,1.6,0.9C53.5,85.2,53.8,85.5,54.1,85.7z"/>
	<path class="st14" d="M50.3,83.9c-0.2-0.2-0.3-0.5-0.5-0.7c0.2,0,0.3,0,0.5,0"/>
	<path class="st8" d="M21,44.2c1.1,0.2,2.5-0.5,3.2,0.9C23.1,44.9,21.9,45.1,21,44.2z"/>
	<path class="st9" d="M49.8,83.1c0.2,0.2,0.3,0.5,0.5,0.7c0,1.4,0,2.9,0,4.3c2.6-2.1,2.9-2,3.8,0.9c0.4,1.2,1.1,2.4,0.9,3.8
		c-2.4-0.3-3.7,0.5-3.3,3.2c-0.5,0-1.1,0.1-1.6,0.1c0-0.2-0.1-0.4-0.1-0.6c0.6-3.2-2.1-3.1-3.8-3.3c-2-0.2-4-0.5-5.9-0.9
		c-0.1-0.1-0.2-0.2-0.1-0.4c0.5-2.3-1.1-3.2-2.7-3.9c-3.9-1.5-4.4-5.9-7.3-8.4c-0.8-0.7-0.2-1.9,1.1-1.9c3,0.1,6.3-1.1,8.6,2.1
		c0.3,0.4,0.9,0.9,1.3,0.9c2.9-0.1,5.1,1.4,7.2,3.2C48.6,83.2,49.3,83.1,49.8,83.1z"/>
	<path class="st8" d="M58.8,91c0.4-1,0.9-2.1,1.3-3.1c1.4,0.9,1,2.7,2,3.7c0.1,0.7,0.1,1.4,0.2,2.1c-1.2-0.8-1.9-2.2-3.4-2.5
		L58.8,91z"/>
	<path class="st8" d="M76.2,159.6c-0.9-0.5-0.9-1.2-0.2-1.8c0.6-0.5,1.1-1.7,2.1-0.6C77.9,158.3,77.6,159.4,76.2,159.6z"/>
	<path class="st8" d="M56.1,92.7c0.9,0,1.9,0.1,2.8,0.1c1,0.4,1.2,1.3,1.3,2.4C58.3,95.2,56.2,95.7,56.1,92.7z"/>
	<path class="st15" d="M64.9,145"/>
</g>
<path class="st16" d="M0,177.7l18.8,2c18.9,2,56.5,6,94,5s74.9-7,112.4-10s75.1-3,112.6-1s74.9,6,112.4,9.7c37.5,3.6,75.1,7,112.6,4
	s74.9-12.4,112.4-14.2s75.1,3.8,112.6,10.8s74.9,15.4,93.5,19.5l18.7,4.2v66h-18.7c-18.6,0-56,0-93.5,0s-75.1,0-112.6,0
	s-74.9,0-112.4,0s-75.1,0-112.6,0s-74.9,0-112.4,0s-75.1,0-112.6,0s-74.9,0-112.4,0s-75.1,0-94,0H0V177.7z"/>
<path class="st17" d="M0,211.7l18.8,0.7c18.9,0.6,56.5,2,94-1s74.9-10.4,112.4-12.7s75.1,0.3,112.6-1.8c37.5-2.2,74.9-9.2,112.4-9
	c37.5,0.1,75.1,7.5,112.6,9.6c37.5,2.2,74.9-0.8,112.4,1.5c37.5,2.4,75.1,10,112.6,9.4c37.5-0.7,74.9-9.7,93.5-14.2l18.7-4.5v84
	h-18.7c-18.6,0-56,0-93.5,0s-75.1,0-112.6,0s-74.9,0-112.4,0s-75.1,0-112.6,0s-74.9,0-112.4,0s-75.1,0-112.6,0s-74.9,0-112.4,0
	s-75.1,0-94,0H0V211.7z"/>
<path class="st18" d="M0,209.7l18.8,1.8c18.9,1.9,56.5,5.5,94,5.2s74.9-4.7,112.4-3.7s75.1,7.4,112.6,8.5
	c37.5,1.2,74.9-2.8,112.4-6.3s75.1-6.5,112.6-5.8c37.5,0.6,74.9,5,112.4,8.8s75.1,7.2,112.6,7.5s74.9-2.3,93.5-3.7l18.7-1.3v53
	h-18.7c-18.6,0-56,0-93.5,0s-75.1,0-112.6,0s-74.9,0-112.4,0s-75.1,0-112.6,0s-74.9,0-112.4,0s-75.1,0-112.6,0s-74.9,0-112.4,0
	s-75.1,0-94,0H0V209.7z"/>
<path class="st19" d="M0,232.7l18.8,0.8c18.9,0.9,56.5,2.5,94,2.9c37.5,0.3,74.9-0.7,112.4-2.4c37.5-1.6,75.1-4,112.6-5.1
	c37.5-1.2,74.9-1.2,112.4-1.2s75.1,0,112.6,1.2c37.5,1.1,74.9,3.5,112.4,4.6c37.5,1.2,75.1,1.2,112.6,1.9c37.5,0.6,74.9,2,93.5,2.6
	l18.7,0.7v35h-18.7c-18.6,0-56,0-93.5,0s-75.1,0-112.6,0s-74.9,0-112.4,0s-75.1,0-112.6,0s-74.9,0-112.4,0s-75.1,0-112.6,0
	s-74.9,0-112.4,0s-75.1,0-94,0H0V232.7z"/>
<g>
	<path class="st20" d="M817.7,130c2.5,0.5,2.6,2.4,2.1,4.3c-0.7,2.5-1.9,4.9-4.6,5.7c-3.2,1-3.4,2.8-2.2,5.4
		c0.2,0.4,0.3,0.8,0.5,1.3c1.5-0.5,1.7-2.1,2.9-2.9c1.1-0.7,2-1.7,3.4-1.1c1.6,0.7,1.7,2.3,1.6,3.6c-0.2,2.4-0.7,5-2.9,6.3
		c-2.7,1.5-2.2,3.1-1,5.2c0.8,1.4,1.4,2.8,2.2,4.4c1.6-1.5,2.1-3.7,3.9-4.9c2.5-1.7,4-1.2,4.5,1.7c0.6,3.3-0.2,6.4-3,8.3
		c-2,1.4-1.7,2.6-0.8,4.2c0.8,1.5,1.5,3,2.5,4.8c1.3-1.5,2.4-2.9,3.6-4.2c0.9-0.9,2-1.8,3.4-1.2c1.3,0.6,1.6,1.9,1.7,3.2
		c0.1,3-0.7,6-3.3,7.4c-2.7,1.5-2.1,3.2-1.4,5.2c0.3,1.1,0.6,2.2,0.9,3.3c1.6,0.7,1.9-1.5,3.2-1.4c4.5,0.5,4.6,0.5,2.8,5
		c-0.3,0.7-0.4,1.3-0.2,2l-0.3-0.2l0.3,0.2c-2.3-0.7-3.8,0-4.5,2.4l-0.3,0.1c-1.3,0.8-2.6,1.2-4.1,0.8c-0.2,0.1-0.4,0-0.6-0.1
		c-2.1-1.4-3.8-3.9-6.9-3.4c-1.4-1.4-2.5-3.1-1.2-4.8c1.3-1.7,3.3-0.8,5.1-0.3c1.1,0.3,1.9,1.6,3.4,1.3c-0.3-2.2-0.4-4.5-1.8-6
		c-1.1-1.3-3.2-0.1-4.9-0.4c-4.2-0.8-6.5-3.5-6.2-7.5l-0.2-0.2l0.2,0.2c2.6-0.6,5.2-0.8,8.4,0.4c-0.8-1.7-1.4-2.8-1.8-4
		c-1-2.6-2.5-4.2-5.7-3.4c-1.8,0.5-3.6-0.5-5.3-1.1l0,0c-1.1-1.4-2.2-2.8-3.3-4.2c1.6-4,5.3-1.9,8.1-2.6c-0.5-2.4-1.3-4.6-2.7-6.3
		c-1-1.3-3.2-0.1-4.9-0.5c-2.6-0.6-4.7-1.8-6-4.2c-1-1.8-0.3-3,1.6-3.4c2-0.4,4.1,0,6.4,0.6c-0.5-4.1-0.6-7.7-5.6-8.2
		c-2.1-0.2-3.3-2.1-4.2-3.9c-0.7-1.3-1.3-2.7-0.2-4c0.9-1.1,2.3-0.7,3.6-0.5c1.5,0.2,2.6,1.7,4.3,1.3c0.3-4.7,1.8-9.7-3.6-12.6
		c-0.4-0.2-0.7-0.9-1-1.3c0.2-0.1,0.1-0.3,0-0.4c0-1.7,0.1-3.3,0.1-5c0,0-0.1,0-0.1,0c3.6-2,5,1.7,7.3,3.2c0.6-1.6,1-2.9,1.6-4.2
		c0.8-1.7,1.2-3-1.1-4c-2.3-1.1-3.3-3.4-3.6-5.9c-0.1-1.1-0.3-2.3,0.8-3.1c1.1-0.8,2.2-0.1,3.2,0.4c1.7,0.8,2.6,2.5,3.9,3.8
		c0.8-0.9,1-2,1.5-3c1-2.2,0.8-3.5-1.8-4.4c-1.7-0.6-3-2.1-3.8-3.9c-0.6-1.4-1.3-3.1,0.1-4.3c1.2-1,2.6-0.3,4,0.2
		c1.4,0.5,2,2.2,3.7,2.4c0.1-4.8,0.1-4.8-4-6.2c-1.8-0.6-3.2-1.8-4.2-3.3c-0.7-1.1-1.4-2.2-0.6-3.5c0.7-1.2,2-0.9,3.1-0.9
		c0.7,0,1.6,0.6,2.2-0.4c-0.4-1.3-1.5-1.5-2.6-2c-3-1.2-4.7-3.6-5.5-6.6c-0.7-2.7,0.8-4.1,3.5-3.3c3,0.9,5.3,2.8,6.1,5.9
		c0.6,2.5,1.8,4.7,3.2,7c1-1.1,1.9-2.1,2.9-3.1c0.9-0.8,1.9-1.4,3.1-0.7c0.9,0.5,1.2,1.5,1.3,2.5c0.1,2.2-0.3,4.6-2.1,5.8
		c-3.8,2.5-3.1,5.8-2.7,9.3c2.8-0.9,5.4-1.6,8.1-0.5c-0.1,0.2,0,0.4,0.2,0.5c0,0.6,0,1.1,0,1.7c-0.3,0.6-0.6,1.1-0.9,1.7
		c-2.2,1.5-4.1,3.5-7.1,3.1c-1.4-0.2-2,0.7-2.3,1.9c-0.5,1.6-1,3.2-1.6,5.1c1.8,0.1,3.5-0.5,5.1-0.1c1.1,0.3,2.3,0.4,2.6,1.7
		c0.3,1.3-0.4,2.2-1.3,2.9c-1.8,1.5-3.8,2.8-6.1,2.2c-2.6-0.7-3.6,0.3-4.2,2.5c-0.3,1.2-1.2,2.2-0.8,3.8c1.3-0.3,2.5-0.7,3.7-0.8
		c1.3-0.1,2.6-0.2,3.4,1.1c0.8,1.2-0.3,2.1-0.8,3.1c-0.7,1.4-2.1,2.2-3.3,3.2c-0.9,0.1-1.7,0.3-2.6,0.4c-0.5,0-1.1,0-1.6,0
		c-0.5-0.2-0.8-0.1-0.9,0.5l0,0c-1.4,2.3-0.8,4.8-0.8,7.9C813.6,132.3,815.4,130.8,817.7,130z"/>
	<path class="st20" d="M809.7,213.4c-3.2,0.1-5.3-1.7-6.7-4.4c-0.5-1-1.1-2.1-0.3-3.2c0.9-1.3,2.2-1.1,3.5-0.7
		c0.8,0.2,1.5,0.9,2.4,0.3c0.4-1.1-0.3-2.1-0.5-3.2c-0.3-2.3-1.1-3.8-4.1-3.2c-3.3,0.7-6.2-0.6-8.1-3.5c-1.5-2.2-0.8-3.9,1.7-4.3
		c1.7-0.2,3.4,0,5.1,0c0-1.7-1.3-2.5-2-3.6c-1.3-2-2.7-2.8-5.3-1.4c-3.1,1.6-6.4,1.2-9.1-1.1c-1.8-1.5-1.7-3.2,0.3-4.4
		c1.6-0.9,3.4-1.2,5.2-1.6c-0.3-1.6-1.7-2.3-2.4-3.5c-1.8-2.8-3.7-4.5-7.5-2.9c-2.5,1.1-5.3,0-7.5-1.9c-2.4-2.1-2.1-3.8,0.9-5
		c1.9-0.7,3.8-0.8,6.3-0.2c-1.3-2.9-2.5-5.4-3.5-7.9c-0.7-1.6-1.9-1.8-3.4-1.9c-3.3-0.2-6-1.5-7.8-4.4c-0.7-1.1-1.2-2.3-0.5-3.6
		c0.7-1.2,1.9-1,3-1c1.7-0.1,3.3,0.6,5.2,1.2c-0.3-1.8-0.5-3.1-0.7-4.5c-0.2-2.1-1-3.2-3.3-3.6c-3.1-0.6-5.1-2.9-6.4-5.7
		c-0.5-1.1-0.8-2.5,0.2-3.6c1-1.1,2.4-0.8,3.6-0.5c1.3,0.4,2.6,1.1,3.9,1.7c1.1-1.2,0.7-2.7,1-4c0.4-1.7-0.2-2.9-2-3.6
		c-2.7-1-4.2-3.2-4.8-6.1c-0.2-1-0.3-2.1,0.5-2.8c1-1,2.2-0.5,3.2,0c1.4,0.7,2.6,1.6,4,2.4c0.3-1.2,0.6-2.3,0.9-3.3
		c0.5-1.6,0.2-2.8-1.2-4c-3.5-3.1-3.9-6.1-1.6-10.1c0.3,0.2,0.6,0.2,0.9-0.1c1.9,0.9,3.2,2.5,4.6,4.3c1.8-2.6,2.3-5.2,2.8-7.8
		c1.2-5.7,4.8-8.8,9.2-8.4c0.1,0.6,0.2,1.1,0.4,1.7c-0.1,1.1-0.3,2.3-0.4,3.4l-0.1,0.4c-2.2,4-6.9,6.3-7.6,11.5c1.2,0,2.2,0,3.1,0
		c3.1,0.1,3.8,1.3,2.2,4c-1.4,2.4-3.3,3.9-6.1,3.9c-2.4,0-2.9,1.2-2.4,3.1c0.7,0.4,1.2,0,1.7-0.2c1.1-0.4,2.2-0.9,3.2,0.1
		c1,1,0.9,2.3,0.4,3.6c-0.8,2.2-2,4.3-4.4,4.9c-2.5,0.6-3,2-2.9,4.3c0.1,1.1-0.2,2.2,0.3,3.6c1.2-0.8,2.3-1.6,3.5-2.3
		c1.2-0.7,2.7-1.4,4-0.3c1.4,1.2,1.1,2.8,0.5,4.3c-0.9,2.5-2.2,4.7-4.9,5.5c-2.5,0.8-2.9,2.2-2.3,4.5c0.3,1,0.5,2.1,1.3,3.3
		c1.2-1.6,2.3-2.9,3.8-3.8c2.5-1.4,4.1-0.6,4.2,2.3c0.2,3.2-0.8,6.1-3.6,7.6c-2.7,1.4-2.3,3-1.1,5c0.6,1,0.8,2.3,2.1,3.2
		c0.8-1.3,1.4-2.6,2.3-3.7c1.9-2.3,3.4-2.1,4.7,0.6c1.5,3.2,1.1,6.3-0.9,9.2c-0.7,0.9-1.6,1.7-0.5,2.9c1.7,2,3.3,4.1,5.3,5.5
		c1-0.5,0.9-1.2,1-1.7c0.5-2.1,1-4.7,3.4-4.8c2.5-0.1,3,2.6,3.8,4.5c-0.1,0.5,0,0.8,0.4,1.1c0,0.4,0,0.8,0,1.2
		c-0.5,0.6-0.6,1.2-0.5,1.9c-0.1,0.5-0.3,1-0.4,1.5c-1.3,1.5-2.7,3,0,4.5c0.1,0.6,0.6,1,1.1,1.3c0.6,1.7,1.8,2.9,3,4.3
		c0.9-1.6,1.7-3,2.6-4.4c0,0,0.2-0.2,0.2-0.2c3.7-1.5,4.8-0.9,5.2,3c0.2,2.4-0.1,4.9-1.9,6.3c-3,2.4-2.5,4.9-1.5,7.8
		c0.5,1.4,0.8,2.9,1.2,4.6c1.1-0.8,2.1-1.6,3.1-2.3c1.1-0.8,2.4-1.4,3.5-0.6c1.5,0.9,0.9,2.6,0.6,3.9c-0.4,1.5-0.9,3-2.6,3.7
		c-1.3-0.1-2.8,0-3.4,1C812.7,214.7,811.1,213.2,809.7,213.4z"/>
	<path class="st20" d="M836.2,203c4,2.1,4.6,2.8,5.4,7.7c3.3-1.9,4.7-5.1,6.8-8c-2.3-2-4.7-3.8-4.9-7.1c-0.1-1.4-0.4-3,0.9-3.9
		c1.6-1.1,2.9,0.2,4.2,1c1.3,0.8,1.8,2.4,2.8,3.7c1.4-1.6,1.5-3.3,2.2-4.8c1-2.1,0.8-3.6-1.8-4.5c-2.5-0.9-3.6-3.1-4.2-5.5
		c-0.3-1.1-0.5-2.3,0.4-3.2c1.1-1.1,2.4-0.6,3.6,0c1.2,0.6,2.4,1.5,4.1,2.6c0-1.8-0.1-3.2,0-4.6c0.2-2.6-0.2-4.6-3.5-4.3
		c-0.4,0-0.8-0.2-1.2-0.4c-2.9-1.1-5.5-4.2-4.6-5.8c1.5-2.6,4-1.1,6.1-0.8c0.3,0,0.5,0.2,1,0.3c0.6-1.6-0.5-3-0.8-4.4
		c-0.4-1.8-1.4-2.5-3.3-2c-2.6,0.7-5.1,0-7-2c-1.8-1.8-1.6-3.2,0.8-4.2c1.7-0.7,3.6-0.6,5.6-0.2c-0.4-1.8-1.6-2.9-2.3-4.2
		c-0.9-1.6-2-2.1-3.9-1.6c-2.6,0.7-5.1,0-7.2-1.7c-0.9-0.7-1.7-1.6-1.3-2.9c0.3-1.1,1.3-1.4,2.3-1.7c1.8-0.6,3.6-0.2,5.6,0
		c-0.9-3.9-1.5-7.6-1.5-11.4c0-3.1,0.9-5.9,3-8.2c1.8-2,3.6-1.6,4.2,1.1c0.8,3.6-0.5,6.7-2.1,9.7c-1.2,2.2-1.4,4.2,0,6.9
		c1.3-1.7,2.3-3.4,4-4.3c2.2-1.2,3.5-0.5,3.7,2c0.2,2.8-0.7,5.1-2.9,6.7c-2,1.4-1.6,2.6-0.4,4.1c1,1.2,1.7,2.6,2.7,4.1
		c1.2-1.7,2.1-3.5,3.8-4.5c0.9-0.5,1.8-1.1,2.8-0.6c1.2,0.6,1.4,1.8,1.3,2.9c-0.2,2.6-1,5.1-3.4,6.4c-1.7,1-1.9,2.2-1.2,3.9
		c0.8,2,1.3,4,2,6.3c1.9-0.8,3-2.9,5-3.3c1.1-0.3,2.3-0.6,3.2,0.2c1,0.9,0.6,2.1,0.3,3.2c-0.8,2.8-2.7,4.6-5.5,5.4
		c-1.5,0.4-2,1.2-1.9,2.7c0.2,2.7,0,5.4,0,8.4c2.2-0.6,3.9-1.9,6.1-1.9c2.7,0.1,3.6,1.6,2.2,3.9c-1.4,2.4-3.3,4.5-6.3,4.4
		c-2.6-0.1-3.5,1-3.9,3.3c-0.3,1.6-1,3.2-1.5,4.7c1.3,0.7,2.4-0.2,3.5-0.1c1.5,0.1,3.4-0.1,4,1.8c0.6,1.8-0.9,2.9-2,3.9
		c-1.2,1-2.7,2.1-4.2,1.8c-4.8-1.1-6.8,1.8-8.6,5.4c0.2,0.2,0.3,0.5,0.5,0.6c1.8,0.4,4.1,0.3,4.2,2.7c0.1,2.3-2,3.3-3.9,4
		c-1.6,0.6-3.3,1.3-4.9,0.5c-2.2-1.1-3.6-0.1-5.3,1.3c-3.7,3.1-8,5.4-12.5,7.1c-2.1,0.8-3.3,0.5-3.3-2c5-2.9,10.6-4.6,14.8-9
		c-3.7-2.9-4.9-6.5-3.3-11c0.3,0,0.5-0.1,0.6-0.4C835.6,203.1,835.9,203.1,836.2,203z"/>
	<path class="st20" d="M809.8,224.1c-0.6,1.3-1.8,1.2-2.9,1c-2.5-0.6-5-1.1-7.4-2c-2.7-1-5.3-2-7.9,0.2c-0.2,0.2-0.5,0.2-0.8,0.3
		c-2.3,0.4-5,0.7-6.2-1.5c-1.3-2.5,2-2.8,3.1-4.4c-1.5-2.5-3.4-4.3-6.8-3.2c-0.4,0.1-0.8,0-1.3-0.1c-3.1-0.4-6.4-3-5.7-4.7
		c1.2-2.8,3.9-2.2,6.2-1.9c0.4,0,0.8,0.3,1.2-0.2c0.3-1.3-0.6-2.3-1-3.5c-0.5-1.7-1.2-3-3.7-2.1c-2.2,0.9-4.5,0.3-6.5-1
		c-0.9-0.6-1.9-1.4-1.8-2.7c0.2-1.3,1.1-1.8,2.3-2.1c0.9-0.2,1.9-0.6,3-0.9c-1-1.5-2.4-1.3-3.7-1.6c-2.1-0.5-4.1-1.2-5.4-3
		c-1.7-2.2-0.8-4.1,1.9-4.5c2.7-0.4,4.7,0.8,6.3,2.7c1.5,1.7,2.9,3.5,5,4.6c0.8-1.5,1.1-3.2,2.3-4.5c1.4-1.6,2.8-1.3,3.7,0.5
		c1,2.1,1.9,4.5,0.4,6.5c-2.4,3.1-1.6,5.7,0.3,8.4c0.1-0.1,0.4-0.1,0.5-0.3c1.1-1.4,2.1-3.6,4.3-2.4c1.7,1,1.8,3.1,1.5,5
		c-0.2,1.1-0.7,2.2-1.2,3.1c-1.7,3.2-1.8,3.2,1.5,5.4c0.3-1.5,0.4-3.1,1-4.5c0.7-1.7,2-2,3.3-0.7c1.7,1.7,2.6,3.9,1.9,6.2
		c-0.6,2.1,0.2,2.8,2,3.2c2.9,0.7,5.7,1.6,8.6,2.4C808.5,222.8,810,222.8,809.8,224.1z"/>
	<path class="st20" d="M832.5,198.1c-0.5,9.7-4.9,17.7-11.5,24.6c-1,0.7-2,1.4-2.9,2.3c-1.8,1.6-3.1,1.3-4-1l0,0
		c4.1-3.8,8.5-7.4,11.1-12.6c2-3.9,3.9-7.8,3.1-12.5C829.8,199.4,831.2,198.9,832.5,198.1z"/>
	<path class="st20" d="M809.8,224.1c0.2-1.3-1.3-1.3-1.6-2.2c1.2,0.1,2.4,0.3,2.4-1.5c0-2.4,0.4-4.8-0.8-7.1
		c1.5-0.1,3.1,1.3,4.4-0.8c0.6-1,2.1-1.1,3.4-1c-3.1,1.3-4.2,3.6-3.6,6.9c0.1,0.5-0.1,1.1-0.2,1.7c-3,0-2.9,2.2-3.1,4.3
		C810.4,224.3,810.1,224.2,809.8,224.1z"/>
	<path class="st20" d="M837.3,195.7c-0.2-0.7-0.1-1.4,0.2-2c1.8-4.4,1.7-4.5-2.8-5c0.6-0.9,1.5-1.3,2.4-1.5c2.1-0.6,3.4,0.3,3.2,2.5
		C840.2,192,839.8,194.4,837.3,195.7z"/>
	<path class="st20" d="M834.5,198.1c-0.6,0-1.1,0-1.7,0c0.7-2.4,2.2-3.1,4.5-2.4C837,197.2,835.3,197.1,834.5,198.1z"/>
	<path class="st20" d="M827.7,198.9c-3,0.3-5.3-0.9-6.9-3.4C823.9,195,825.5,197.4,827.7,198.9z"/>
</g>
<path class="st21" d="M73.3,189.1c-2.7-4.4-6.4-8-9.7-11.9c-3.4-4-6.1-8.3-7.4-13.3c-0.5-1.8-1.4-3.3-2.5-4.8
	c-2.8-3.9-5.1-8.1-6.9-12.6c-1.3-3.2-0.9-3.6,3-3.9c1.4,2.9,2.3,6.1,4.9,9.2c0.2-2.9,0.4-5,0.6-7.1c0.2-1.7,0.4-3.6,2.8-3.2
	c2,0.4,1.6,2,1.4,3.6c-0.5,4.6-1.2,9.2,0.3,13.8c0.6,5.7,2.7,10.5,7.1,14.3c-0.1-4.1,0.6-7.8,1.3-11.6c0.3-1.6,0.7-3.6,3.1-3
	c1.9,0.5,1.6,2.2,1.2,3.7c-0.8,3.6-1,7.3-0.5,10.9c1.1,7.4,4.4,13.6,10.7,19.1c0.7-7.2,1.9-13.5,4.7-19.1c3-5.9,3.1-11.7,1.6-17.9
	c0.1-0.6-0.1-1-0.7-1.2l0.1-0.1c-2.6-3.6-6.4-5.1-10.4-6.4c-6.1-2.1-10.2-6.1-12-12.3c0.4-0.3,0.8-0.6,1.2-1c2-0.2,3,1.6,4.6,2.1
	l0.3,0.2c-0.5,0.7,0,1.1,0.4,1.6c0,0.5,0.3,0.8,0.7,0.9l0,0c0.1,0.6,0.4,0.9,1,1c1.7,1.3,3.1,3.2,5.6,3.2c2,0.9,3.9,1.8,6.6,2.9
	c-1-2.4-1.7-3.9-2.9-5.2c-4.1-5.9-7.3-12.3-10-19c-0.2-1.4-0.4-2.8-1.3-3.9c-1.2-5.3-2.4-10.7-3.5-16c0.4-0.6,0.7-1.2,1.1-1.7
	c2-0.2,3.1,0.6,3.4,2.7c0.3,2.2,0.9,4.4,1.5,7.3c0.6-1.2,0.9-1.8,1.1-2.4c0.8-2.4,1.5-4.8,2.3-7.1c0.4-1.2,1.5-1.9,2.8-1.4
	c1.3,0.5,1.5,1.7,1.1,2.9c-0.5,1.9-1.1,3.8-1.6,5.7c-0.1,0.6-0.2,1.1-0.3,1.7c-1.5,4.8-1.9,9.6-0.1,14.5l-0.1,0.2
	c0.6,4.1,2.3,7.6,5.5,10.6c1.2-2.9,2.1-5.3,3.1-7.8c0.6-0.4,0.8-1,0.9-1.7c0.5-0.3,0.8-0.8,0.9-1.3l0,0c4.3-0.1,4.8,0.5,3,3.8
	c-2.2,4.1-4.3,8.2-4,13.1c-0.2,0.9,0.1,1.5,0.8,2.1c1.9,4.8,3.1,9.8,4.5,15.4c4.1-6.6,7.7-12.5,10.8-18.7c1-2.1,1.8-4.3,1.6-6.7
	c-0.5-8.3-2-16.4-6.7-23.5c0.1-0.2,0.1-0.4-0.2-0.5c1.9-3.4,2.7-3.7,4.5-0.9c0.8,1.2,1.4,2.6,2,4c1.2,2.9,2.3,5.9,3.4,8.8
	c1.2-5.7,1.4-11.3,0.8-16.9c0-0.7-0.1-1.4-0.1-2c0.7-5.2-2.5-9.1-4.4-13.5c0.1-0.2,0.1-0.4-0.2-0.5c0-0.9-0.1-1.7-0.8-2.4
	c-0.1-0.5-0.2-1.1-0.3-1.6c0.1-1,0.1-2,0.2-3l0,0c0.9-0.2,1.9-0.4,2.8-0.5c0.3,0.3,0.7,0.5,1,0.8c0.2,2.1,0.9,4.1,2.2,6.6
	c1.2-2.7,2.1-4.8,3.1-6.8c1.2-2.3,2.8-2.6,4.8-0.9c0,0.5,0,1,0,1.5c-4.4,6.9-4.7,14.3-3.4,22.9c3.3-5.2,6.9-8.8,10.5-12.6l0,0
	c1,0,1.9,0.1,2.9,0.1l0,0c1,2,0.2,3.2-1.3,4.6c-3.8,3.4-7,7.3-9,12.1c-0.5,0.5-0.7,1.1-0.7,1.8c-1.9,2.8-2.6,6-2.9,9.4
	c-0.5,7.5-2.4,14.7-5.8,21.5c-3.1,6.3-6.9,12.1-10.4,18.2c-4.1,7-7.9,14.2-10,22.2c-1.4,5.5-2.5,11-1.5,17.8
	c2.9-5.7,5-10.6,8.2-14.8c3.2-4.3,6.8-8.4,11.1-11.3c6.6-4.4,9-10.8,10.2-18c0.6-3.6,0.6-7.3,0.4-10.9c-0.2-3.5-0.3-7-0.2-10.5
	c0.1-6.8,3.4-12,8.2-16.4c1.8-1.6,3.2-1.4,4.5,0.5c-0.1,0.2,0,0.3,0.2,0.4c-0.6,0.8-1.2,1.6-1.8,2.4c-4.4,3.5-6.8,8-7,14.2
	c3.7-1.8,5.7-4,6-7.4c0.1-1.6,0.9-2.8,2.1-3.8c2.2,0.4,2.3,2,2.2,3.8c-0.2,4.1-2.3,7.1-5.5,9.6c-1.8,1.4-4.5,2.7-4.3,5.2
	c0.5,5.3-0.6,10.6-0.4,17c4.7-6.3,7.8-12,10.1-18.3c0.7-1.8,1-4.1,3.7-3.9c0.4,0.5,0.9,1.1,1.3,1.6c0.3,1.6-1.6,2.9-0.7,4.6
	c1.9-0.7,3.1-4.4,5.3-2.1c2.4,2.5-1.2,3.7-2.4,5.4c-0.4,0.5-0.9,1-1.4,1.4c-7.2,4.6-11,12.1-16.2,18.4l0,0c-1.3,0.7-2.4,1.7-3.1,3
	c-0.2,0.3-0.5,0.5-0.7,0.8c-0.6,0.2-1.1,0.4-1.3,1.1l-0.1-0.1c-7.2,5.2-13.9,10.9-19.1,19.1c7.8-2.6,13.5-6.2,16-13.7
	c0.5-1.6,1.4-3.1,3.4-3.2c1,0.6,1.5,1.6,1.8,2.6c-1.3,2.3-3,4.5-3.7,7.6c2.8-0.1,5.2-0.3,7.6-0.4c0.4,0.4,0.9,0.8,1.3,1.2
	c-0.1,1-0.2,1.9-0.3,2.9l0.1,0c-2.1,0.5-4.4-0.3-6.4,1l-0.2-0.2l-0.3,0.1c-4,0-7.7,1-11,3.1l0,0c-6.5,2.6-11.4,6.9-14.6,13.1
	c-0.1,0.7-0.3,1.3-0.4,2c-1.1,2.2-1.7,4.5-1,7c-0.1,1.1,0,2.2,0.7,3.1c-0.1,0.9-0.2,1.8-0.3,2.6c-0.2,0-0.4,0.2-0.5,0.4
	c-2.1,0.2-3.5-0.3-3.9-2.7c-0.5-3.3-1.9-6.5-1.8-9.7c0.3-8.4-4.6-13.8-10-19L73.3,189.1z"/>
<g>
	<path class="st22" d="M298.5,26.7c-0.2,1.7-0.4,3.4-0.6,5.1c-0.1,0.7-0.2,1.3-0.3,2c-2.7,9.1-4,18.5-3.6,28
		c0.8,17.4,3.8,34.6,4.5,52.1c0.6,15.3,0.6,30.6-2.4,45.7c-0.9,4.4-2.3,8.7-6.2,11.5c-4.8,3.4-8.2,1.9-9-3.8
		c-0.6-4.3-0.2-8.6-1.5-12.8c-0.1-1.3-0.2-2.7-0.2-4c-1.8-15.2-3.8-30.3-5.3-45.5c-1.1-11.1-2.6-22.1-5.8-32.8
		c-2.3-7.6-4.3-15.4-5.1-23.3c-1-9.4-2.1-18.9,0.1-28.3c1.6-7,4.5-13.2,12.3-15.3c-0.4,2.3-2.1,4.5,0.3,6.9
		c4.3,4.5,17.6,6.8,22.4,1.1C298.8,17.9,297.4,22.3,298.5,26.7z"/>
	<path class="st22" d="M367.5,93.2c1.7,3,1.9,6.2,1.3,9.6c-1.7,9.3-4.6,18.4-8.1,27.2c-0.7,1.7-1.2,3.4-1.9,5.1
		c-0.3,0.6-0.6,1.2-0.8,1.8c-2.9,6.1-5.7,12.4-9.1,18.3c-4.2,7.3-10.1,12.8-17.8,16.1c-0.9,0.4-1.9,0.8-2.8,1
		c-1.4,0.3-3.2,0.9-4.1-0.6c-0.9-1.3,0.4-2.6,1.1-3.6c4.9-7.4,9.2-15,13.2-22.9c5.9-11.4,9.1-23.5,8.9-36.5c-0.1-5.5,0.4-11,3.1-16
		c0.4-0.7,0.7-1.5,1.6-1.8c2.7,1.9,5.7,2.4,8.9,2.3c2.1,0,4.4-0.3,6.3,1C367.4,93.8,367.4,93.5,367.5,93.2z"/>
	<path class="st22" d="M224,72.4c-1.4-1.1-1.5-2.7-1.8-4.3c0.3-3.8-0.4-7.5-1.4-11.2c-0.8-2.8-0.7-5.6,1.8-7.7
		c0.8,1.9,2.5,2.8,4.2,2.9c4,0.3,8.1,0.7,12.2-0.3c3-0.7,4.6-2.3,4.9-5.3c1.9,0,2.7,2.5,4.8,2c3.3,4.9,3.6,10.6,4.2,16.1
		c0.8,7.3,2.1,14.3,5,21c-0.3,6.7,1,8.9,6.7,11.3l0,0c0.2,1.6-1.1,3.8,1.9,4.1l0,0c-0.1,2,0.1,3.9,0.6,5.9c3,12.2,2,24.5-0.2,36.7
		c-0.7,4-2.5,8.1-1.4,12.2c1,3.3,0.3,6.5,1.1,9.8c0.8,3-2.4,4.5-4.4,6c-1.9,1.4-2.6-1.2-3.8-2.1c-1.3-1.1-2.5-2.8-4.6-2.5l0,0
		c0.1-0.9,0.2-1.8-0.9-2.1c-3.1-6.2-3-13-2.1-19.5c1.6-11.5-0.8-22.1-6-32.3c-3.7-7.2-7.3-14.5-11-21.8c0.1-4.2,0.2-8.3,0.2-12.5
		C234,72.2,230.3,69.8,224,72.4z"/>
	<path class="st22" d="M210,94.1c2-0.5,3.1,0.9,4.2,2.1c1.6,1.9,3.3,3.8,4.5,6c5.6,10.5,11.8,20.8,15.6,32.2
		c3.7,11.2,8,22.2,12,33.3c1.9,5.2,0.1,7.6-5.5,7.2c-2.9-0.2-4.9-1.7-6.7-3.9c-3.3-4.2-5.9-8.8-8.2-13.6
		c-5.3-11.3-13-20.8-22.2-29.2c-5.4-4.9-9.5-10.6-11.3-17.8c1.5-1.4,0-3.6,1.2-5.1c2.2,0.2,4.7,1.2,6.6-0.2c3.6-2.6,8.7-4.1,8.7-10
		C209,94.7,209.6,94.4,210,94.1z"/>
	<path class="st23" d="M298.5,26.7c-1.2-4.3,0.3-8.8-0.4-13.4c-4.8,5.7-18.1,3.4-22.4-1.1c-2.4-2.4-0.7-4.6-0.3-6.9
		c0.2-0.2,0.4-0.3,0.7-0.2c0.6,0.2,1,0,1.2-0.6c3.9-1.3,7.8-1.2,11.8-0.3c8.9,2,11.6,6.3,10.5,16.5c-0.5,0.4-0.6,0.8-0.4,1.4
		C299,23.6,298.8,25.1,298.5,26.7z"/>
	<path class="st22" d="M253.8,167c2.2-0.4,3.3,1.4,4.6,2.5c1.2,0.9,1.9,3.5,3.8,2.1c2-1.4,5.2-2.9,4.4-6c-0.8-3.3-0.1-6.5-1.1-9.8
		c-1.2-4,0.7-8.1,1.4-12.2c2.1-12.3,3.2-24.5,0.2-36.7c-0.5-2-0.7-3.9-0.6-5.9c2.4,5,3.3,10.3,3.6,15.8c0.5,10.5-0.8,20.9-2,31.2
		c-0.5,4.5-1,8.8,0,13.3c0.5,2.2,0.6,4.6,0.2,6.9c-0.7,4.6-4.4,6.8-8.6,4.7C257,171.8,254.9,169.8,253.8,167z"/>
	<path class="st23" d="M210,94.1c-0.3,0.3-1,0.7-1,1c0,5.9-5.1,7.3-8.7,10c-2,1.4-4.4,0.4-6.6,0.2c-1.2,1.6,0.3,3.7-1.2,5.1
		c-0.1-0.8-0.3-1.6-0.4-2.4c0.4-1.2,0.5-2.5,0.1-3.8C195.1,95.9,202.6,91.6,210,94.1z"/>
	<path class="st22" d="M248.6,48.6c-2.1,0.5-2.9-2-4.8-2c-5-5.3-17.2-3.9-21.3,2.6c-2.5,2.1-2.6,4.9-1.8,7.7c1,3.7,1.7,7.4,1.4,11.2
		c-2-3.3-2.9-7-3.6-10.8c-0.2-1.3-0.2-2.7-0.1-4c0.4-6.3,6.5-11.5,14.6-12.7C240.7,39.4,246.3,42.3,248.6,48.6z"/>
	<path class="st22" d="M224,72.4c6.4-2.5,10.1-0.2,10,6.5c0,4.2-0.1,8.3-0.2,12.5c-3.2-3.5-4.3-8.1-7-11.8c1.2-0.1,2.3-0.4,2-1.9
		c-0.3-1.6-1.7-1.1-2.7-1.3C224.6,75.4,224.3,73.9,224,72.4z"/>
	<path class="st22" d="M264.6,97c-5.8-2.4-7.1-4.6-6.7-11.3C260.3,89.3,262.7,93.1,264.6,97z"/>
	<path class="st22" d="M226,76.3c1,0.2,2.4-0.3,2.7,1.3c0.3,1.6-0.8,1.9-2,1.9C225.3,78.7,226.1,77.4,226,76.3z"/>
	<path class="st22" d="M266.5,101.1c-3-0.2-1.8-2.5-1.9-4.1C265.7,98.1,266.2,99.6,266.5,101.1z"/>
	<path class="st22" d="M335.8,72.4c0.4,3.9-0.7,7.6-1.5,11.3c-2,8.6-2.3,17.1-0.7,25.7c4.2,21.9-4.3,39.3-18.8,54.6
		c-3.4,3.5-7.4,6.2-12.1,7.6c-1.5,0.4-3.6,1.1-4.6-0.6c-1.1-1.8,0.8-3.2,1.9-4.1c9.1-7.2,12.6-17.1,14-28.2c0.7-5.9,0-11.6-1.6-17.3
		c-3.2-12-5.1-24-3.8-36.5c0.5-4.8,1.2-9.6,2.5-14.2c0.7-2.5,1.3-5.3,4.1-6.4c0.6,2.4,3,0.6,4.2,2c3.2,3.8,7.6,4.4,12.2,4
		C333.6,70.2,334.8,71,335.8,72.4z"/>
	<path class="st23" d="M335.8,72.4c-1-1.4-2.2-2.2-4.1-2.1c-4.6,0.3-9.1-0.3-12.2-4c-1.2-1.4-3.7,0.4-4.2-2
		c4.3-3.8,9.2-3.7,14.3-1.8C334.1,64.2,335.8,67.8,335.8,72.4z"/>
	<path class="st23" d="M367.5,93.2c-0.1,0.3-0.2,0.6-0.3,1c-2-1.3-4.2-1-6.3-1c-3.2,0.1-6.2-0.4-8.9-2.3c3.5-3.3,7.5-3.4,11.8-1.8
		l0.2,0.2l0.3,0C366.2,89.9,367.3,91.2,367.5,93.2z"/>
	<path class="st23" d="M222.5,49.2c4.1-6.4,16.3-7.9,21.3-2.6c-0.3,3-1.9,4.6-4.9,5.3c-4.1,0.9-8.1,0.5-12.2,0.3
		C225,52,223.3,51.1,222.5,49.2z"/>
</g>
<g>
	<path class="st24" d="M139.4,212c-0.2,0.3-0.2,0.5,0.1,0.7c0,1.9,0,3.8,0,5.7c-5.7,1.2-11.5,2.3-17.2,3.4c-1.4,0.3-2.9,0.6-2.7,2.3
		c0.2,1.5,1.7,1.9,3,1.9c1.1,0,2.2-0.9,3.2-0.7c3.1,0.5,7-1.9,9.2,2.2c0,2.5-1.8,2.2-3.4,2.3c-1.7-1.2-3.6-1.4-5.7-1.2
		c-2.3,0-4.7,0.1-7,0.1c-0.8-0.4-1.6-0.9-2.5-1.1c-2.4-0.3-4,0.6-4,3.3c0,2.6,1.7,3.6,4.1,3.2c0.9-0.1,1.7-0.7,2.5-1.1
		c1.9,0,3.9,0,5.8,0c0.8,0.4,1.5,0.9,2.3,1.3c-1.1,4.4-2.3,4.8-7.6,4.7c-7.7-0.3-14-4.7-21-7c-4.2-1.4-7.9-1.6-11.9-0.2
		c-1.7,0.6-3.5,2.3-5.1,0.3c-1.6-1.9-1.5-4.4-0.3-6.3c1.6-2.5,3.3-4.9,3.9-7.9c0.2-1.1,0.8-1.6,1.9-1.8c3.4-0.7,4.5-3.6,5.9-6.2
		c0.4-0.8,0.1-2.5,0.9-2.5c3.8,0,4.4-4.5,7.7-5.1c2.2-0.4,1.6-2.2,1.4-3.6l0,0c2.8,0,5.6,1.3,8.2-0.9c8.9-0.4,16.9,2.9,25.1,5.6
		C138,206.1,137.9,209.3,139.4,212z"/>
	<path class="st25" d="M108.8,195.6c-0.2-3,1.9-4.8,3.7-6.7c1.2-0.1,2.2-0.6,3.2-1.3c2,0.3,3.6-0.8,5.4-1.3c2.4,0.1,4.7,0.8,7.1,1.5
		c3,0.9,5.8,2.6,9.1,2.2c-0.4,1.9-0.3,3.6,0.8,5.2c2.2,3.4,1.6,6.2-1.9,8.3c-8.2-2.7-16.2-6-25.1-5.6
		C110.3,197.2,109.6,196.4,108.8,195.6z M117.6,191.3c-0.1-0.9-0.7-1.3-1.5-1.2c-0.8,0-1.4,0.5-1.5,1.4c0,0.7,0.1,1.6,1.1,1.6
		C116.8,193,117.4,192.3,117.6,191.3z M117.1,195.8c0.1,0.6,0.6,0.9,1.1,0.7c0.2-0.1,0.5-0.5,0.5-0.8c0-0.6-0.5-0.9-1.1-0.7
		C117.4,195,117.3,195.5,117.1,195.8z"/>
	<path class="st24" d="M121.1,186.3c4.8-5.7,10.7-8.7,18.3-7.3c-0.1,0.3,0,0.6,0.3,0.8c-0.2,3.6-0.1,7.2-2.4,10.3
		c-3.3,0.3-6.1-1.3-9.1-2.2C125.8,187.1,123.5,186.4,121.1,186.3z"/>
	<path class="st26" d="M139.8,225.2c-0.5,1.1-0.9,2.3-1.4,3.4c-1.1-0.4-2.1-1.3-3.4-1.1c-2.2-4.1-6.1-1.8-9.2-2.2
		c-1-0.2-2.2,0.8-3.2,0.7c-1.3,0-2.8-0.5-3-1.9c-0.2-1.6,1.3-2,2.7-2.3c5.7-1.1,11.5-2.3,17.2-3.4c0.2,1.5,0.3,3,0.5,4.5
		C139.9,223.6,139.8,224.4,139.8,225.2z"/>
	<path class="st24" d="M135,227.5c1.3-0.2,2.3,0.7,3.4,1.1c-1.1,6.2-5.1,9.9-11,11.6c-8.4,2.3-16.4,1.3-23.9-3.4
		c-6.1-3.8-12.4-4.9-19.3-2.5c-2.4,0.9-4,3.4-6.9,3.5c-1-14.8,12.2-33.9,25.6-39c0.2,1.5,0.8,3.2-1.4,3.6c-3.3,0.6-3.9,5.1-7.7,5.1
		c-0.8,0-0.5,1.7-0.9,2.5c-1.4,2.6-2.5,5.5-5.9,6.2c-1.1,0.2-1.7,0.7-1.9,1.8c-0.6,3-2.3,5.4-3.9,7.9c-1.2,1.9-1.3,4.4,0.3,6.3
		c1.6,2,3.4,0.3,5.1-0.3c4-1.4,7.7-1.2,11.9,0.2c7,2.3,13.2,6.8,21,7c5.3,0.2,6.6-0.3,7.6-4.7c3.2,0,4.9-1.3,4.5-4.7
		C133.2,229.7,135,230,135,227.5z"/>
	<path class="st23" d="M119,233.1c-0.8,0.4-1.7,0.9-2.5,1.1c-2.4,0.3-4-0.6-4.1-3.2c0-2.6,1.6-3.6,4-3.3c0.9,0.1,1.7,0.7,2.5,1.1
		C118.9,230.2,118.9,231.6,119,233.1z"/>
	<path class="st23" d="M131.6,229.8c0.4,3.4-1.3,4.7-4.5,4.7c-0.8-0.4-1.5-0.9-2.3-1.3c-0.2-1.7,0.4-3.1,1.1-4.5
		C127.9,228.4,129.8,228.6,131.6,229.8z"/>
	<path class="st24" d="M125.9,228.6c-0.8,1.4-1.4,2.8-1.1,4.5c-1.9,0-3.9,0-5.8,0c0-1.5-0.1-2.9-0.1-4.4
		C121.2,228.7,123.6,228.6,125.9,228.6z"/>
	<path class="st27" d="M108.8,195.6c0.8,0.8,1.5,1.6,2.3,2.3c-2.5,2.1-5.4,0.9-8.2,0.9C104.4,196.8,106.9,196.7,108.8,195.6z"/>
	<path class="st27" d="M117.6,191.3c-0.3,1-0.8,1.7-1.9,1.7c-1,0-1.1-0.8-1.1-1.6c0.1-0.9,0.7-1.3,1.5-1.4
		C116.9,190,117.6,190.4,117.6,191.3z"/>
	<path class="st27" d="M117.1,195.8c0.2-0.3,0.3-0.8,0.5-0.8c0.5-0.2,1,0.1,1.1,0.7c0,0.3-0.2,0.7-0.5,0.8
		C117.7,196.6,117.2,196.4,117.1,195.8z"/>
</g>
<g>
	<path class="st28" d="M278.8,185.3c0.2-0.2,0.3-0.4,0.2-0.7c2.3-2.5,4.9-4.6,7.6-6.5c4-2.9,8.4-5.4,10.8-10c2.1,0,3.8-0.9,5.5-2
		c4.4-2.9,9.2-5,14.1-6.9c10.4-3.9,20.9-4.6,31.2,0.3c4.5,2.1,8.7,4.8,13,7.2c1.6,2.5,3.9,4.2,6.2,5.9l0,0c1.2,2.7,3.5,4.6,5.5,6.6
		c0,0.3,0.1,0.6,0.4,0.8c1,1.8,2.1,1,3.2,0.1c0.3,0,0.7,0,0.9-0.2c3.9-1.8,7.6-3.9,11.6-5.5c5.6-2.3,11.4-4.1,17.4-2.9
		c0.4,1.1,0.1,1.8-0.3,2.3c-2.3,2.8-3.4,5.8-1.8,9.5c0.8,1.8,0,3.8-1.5,4.8c-3.5,2.3-2.8,5-1.4,7.9c0.9,1.9,1.8,3.9-0.7,5.1
		c-4,1.9-2.6,3.9-0.6,6.2c0.6,0.7,1.2,1.4,0.7,2.5c-2,1.1-4.1,0.5-6.2,0.2c-5-0.8-9.5-3.1-14-5.4c-0.1-0.3-0.3-0.6-0.7-0.6
		c-2.2-3.8-5.3-4-9.2-2.7c-6.7,2.2-12.8,5.4-18.4,9.7c-1.2,0.9-2.2,1.9-2.4,3.4c-1.5,0.2-2.7,0.3-4.3,1.2
		c-8.3,5.2-17.2,8.5-27.3,5.8c-2.2-0.6-4.6-0.5-6.9-0.4c-1.1-0.5-2.1-1-3.2-1.5c-2.4-1.9-4.7-4.1-7.6-5.2l0,0
		c-5.6-6.1-11.2-12.1-16.8-18.2C280.9,193.2,278.6,189.8,278.8,185.3z"/>
	<path class="st29" d="M389.3,200.5c0.1,0.1,0.1,0.3,0.2,0.4c0.1,0.1,0.2,0.1,0.3,0.1C389.6,200.8,389.5,200.6,389.3,200.5
		c-2.8-2.6-6.3-3.6-10.7-4.4C382,199.4,385.4,200.6,389.3,200.5z"/>
	<path class="st9" d="M394.9,194.9c-4.7-2.9-9.8-3.3-14.9-3.2C384.6,194.9,389.8,194.9,394.9,194.9z"/>
	<path class="st29" d="M379,182.7c7.4,0.8,13.4-0.1,16.9-2.8C389.9,181.2,384.4,180.7,379,182.7z"/>
	<path class="st9" d="M292.9,182c-0.1-2.1-1.6-2.1-3.1-2.1c-1.5,0-2.4,0.7-2.3,2.3c0,1.6,1.1,2.1,2.5,2.1
		C291.5,184.2,292.9,184,292.9,182z"/>
	<path class="st30" d="M347.1,127.7c7.6-2.9,14.3-7.6,22.2-10.4c0,4.2-3.8,6.4-4,10c-1,0.2-1.7,0.6-2,1.6c-1.2,0.7-2.3,1.4-2.5,3
		l0,0.3l-0.1-0.3c-1.5,0.1-2.3,1-3,2.1c-0.8,0.3-1.6,0.6-2,1.5c-2.6,1.3-3.2,3.2-1.5,5.6c0.2,0.3,0.4,0.6,0.6,0.9
		c0,0.6,0.2,0.9,0.8,0.8c0.1,0.3,0.4,0.4,0.7,0.4c1.9,2.2,3.7,4.3,5.6,6.5c0.1,0.7,0.3,1.3,0.4,2c-1.1,4.9-2,9.8-1.1,14.9
		c-4.3-2.4-8.5-5-13-7.2c-10.3-4.9-20.8-4.2-31.2-0.3c-4.9,1.8-9.7,4-14.1,6.9c-1.7,1.1-3.4,2-5.5,2c7.8-14,19-24.5,33.3-31.8
		c4.5-2.3,9.1-4.2,13.2-7.1C345.2,129.2,346,128.2,347.1,127.7z"/>
	<path class="st31" d="M328.6,145.2c-0.2,0.2-0.3,0.4-0.5,0.7c0.2-0.2,0.5-0.3,0.7-0.5c1.5,0,2.6-0.8,3.2-2.2
		c1.7-0.2,3.2-0.8,4.3-2.2c2.1-0.6,4.3-0.9,6.7-3.5c-3.3,0.7-5.8,0.4-6.8,3.3"/>
	<path class="st31" d="M336.2,140.8c-1.9-0.1-3.4,0.3-4.3,2.2c-1.5,0-2.6,0.8-3.2,2.2"/>
	<path class="st31" d="M337.4,149.6c3.9-1.1,7.3-3,10.3-5.7c-3,0.6-5.6,1.8-8.2,3c-1.1,0.5-2.3,1-2.2,2.6c-0.5,0-1,0-1.5,0.1
		c-0.7,0.1-1.5,0.6-1.3,1.2c0.5,1.1,1.4,0.6,2,0C336.8,150.5,337.1,150.1,337.4,149.6z"/>
	<path class="st31" d="M352.6,150.2c-3.8-0.7-5.9,1.4-8.2,3C347.1,152.7,350.2,153.3,352.6,150.2z"/>
	<path class="st31" d="M319.4,153c2.2-1.3,5.2-1.8,6.1-6.2C322.3,148.7,320.6,150.5,319.4,153z"/>
	<path class="st32" d="M222.7,81.6c-1.1,2.3-2.4,2.5-4.3,2.8C219,82,220.4,81.9,222.7,81.6"/>
	<path class="st30" d="M335.9,229c-2.1-0.5-2.2,0.5-0.7,1.8c0,1,0,2,0,3c-0.8-0.3-1.7-0.5-2.5-0.8l-0.5-0.1
		c-1.2-0.3-2.4-0.5-3.5-0.8c-0.2-0.3-0.5-0.4-0.9-0.3c-0.3-0.4-0.6-0.7-1.2-0.6c-0.7-0.3-1.4-0.5-2.1-0.8c-4.3-2.8-8.7-5.6-13-8.4
		c0.1-0.3,0.1-0.5,0-0.8c2.3-0.2,4.7-0.2,6.9,0.4c10.1,2.7,19-0.6,27.3-5.8c1.6-1,2.8-1,4.3-1.2c1.8,5.9,3.4,11.9,7.8,16.5l-0.1,0.1
		c0,0.4,0.1,0.7,0.2,1c0.9,2.9-1.3,3.9-3.2,5.1c-0.7,0-1.5-0.1-2.2-0.1c-0.6-1-1.3-1.1-2.1-0.2c-0.7,0-1.5-0.1-2.2-0.1
		c-0.4-1.2-0.7-2.5-1.1-3.7c1.1-0.4,2.5,0.4,3.7-1"/>
	<path class="st31" d="M337,223.6c2,4.1,4.7,5.2,9.8,4.3C343.3,226.4,339.7,225.9,337,223.6z"/>
	<path class="st31" d="M342.1,221.9c1.4,1.7,3,2.9,5.7,1.8C346.2,222,344.6,220.8,342.1,221.9z"/>
	<path class="st31" d="M327.6,225.6c1.6,1.8,2.5,3.5,5,2.6C331.6,226.5,330.5,225.3,327.6,225.6z"/>
	<path class="st29" d="M394.9,194.9c-5.2,0-10.4-0.1-14.9-3.2C385.2,191.7,390.3,192,394.9,194.9z"/>
	<path class="st29" d="M395.2,187.4c-5.3,2.2-10.1-0.5-15.1-1.1C385.1,187.2,390.2,185.8,395.2,187.4z"/>
	<path class="st33" d="M292.9,182c0,2-1.4,2.2-2.9,2.3c-1.4,0-2.5-0.4-2.5-2.1c0-1.6,0.8-2.3,2.3-2.3
		C291.3,179.9,292.8,179.9,292.9,182z"/>
	<path class="st5" d="M348.2,236.8c-4.5-0.4-8.9-0.8-13-3"/>
	<path class="st30" d="M335.2,233.9c0-1,0-2,0-3c4,0.8,8,1.5,11.9,2.3c0.4,1.2,0.7,2.5,1.1,3.7"/>
	<path class="st32" d="M347.1,233.1c-4-0.8-8-1.5-11.9-2.3c-1.5-1.3-1.3-2.4,0.7-1.8c4.9,1.2,9.7,2.7,14.9,3.1
		C349.6,233.5,348.2,232.7,347.1,233.1z"/>
</g>
<g>
	<path class="st34" d="M727.5,219.9c0.2,0,0.5-0.1,0.7-0.1c0.8-0.3,1.6-0.6,2.3-1c18.3-11.3,43.7-6.2,55.2,12.6
		c1.7,3.2,0.4,6.7,0.8,10c-2.5,1-3.4,3.5-5,5.4c-0.5,0.1-0.9,0.4-1.1,0.9c-1.7,1.4-3.4,2.8-5.2,4.2c-2,0.9-4,1.7-5.7,3.1
		c-0.8,0-1.6,0.1-2,0.9c-1.5,0-2.7,0.7-4,1.2c-0.8-0.1-1.5-0.1-2.1,0.5c-1,0.2-1.9,0.3-2.9,0.5c-0.3,0-0.6,0.1-1,0.1
		c-0.7,0.1-1.4,0.1-2.1,0.2c-1.2-0.1-2.5-0.3-3.7,0.3c-0.8-0.5-1.6-0.4-2.4-0.1c-2.2-0.9-4.5-0.5-6.8-0.6c-1-1.3-2.5-1.1-3.9-1.4
		c-2.8-0.9-5.5-2.2-8.1-3.6c-3-2.4-6-4.7-9-7.1c-0.1-0.6-0.4-0.9-1-1.1c-0.8-1.3-1.6-2.6-2.5-3.9c3.3-4.8,3.3-4.8-0.1-9.3
		c0.9-1.5,1.8-3.1,2.6-4.6l0,0C722.9,224.7,725.8,222.9,727.5,219.9z M746.3,218.2c0.3,0.3,0.7,0.6,1,1c0.8,2.4-1.1,3.5-2.6,4.7
		c5.7,5.3,5.7,5.5,1.5,11.3c-0.9,1.2-0.9,2,0.3,2.9c2.5,1.9,2,4.3,0.8,6.7c-1.9,0.8-3.6,1.8-2.3,4.4c1.2,2.2-0.6,3.3-1.7,4.6
		c-1.2-0.1-2.6-1.7-3.6,0.6c1.4,1.1,2.7,1.2,4,0c2.3-0.1,3.1-1.4,2.9-3.5c-0.2-2,0.2-3.8,1.2-5.5c1.1-0.3,1.6-1,1.7-2.2
		c0.1-2.3-0.6-4.4-1.3-6.6c-0.4-1.4,2.6-3.5,2.9-5.9c0.1-0.5,0.2-1.1-0.1-1.4c-2.4-3.1-2-7.1-3.3-10.5c-0.3-0.3-0.7-0.7-1-1
		c-0.7-0.8-1.5-1-2.5-0.7c-0.4,0.1-0.5,0.5-0.2,0.6C744.8,217.9,745.6,218,746.3,218.2z M780.7,243.2c1.7-1.2,2.4-3,1.4-4.8
		c-1.1-2.1-0.9-3.8-0.1-5.9c1.2-3.2-1.4-5.8-5.4-5.7c0.9,1.6,4.2,1.6,3.1,4.3c-1.3,3.1-1.3,5.8,0.6,8.6c0.4,0.6-0.1,1.9-0.2,2.9
		c-0.3,0.1-0.7,0.2-0.9,0.3c-0.7,0.4-1.8,0.8-1.2,1.6c0.6,0.9,1.4-0.1,2-0.6C780.4,243.8,780.5,243.5,780.7,243.2z M767.9,252.2
		c2.5-2.6,0.9-6.7,3.6-9.4c0.8-0.8,0.3-2.8-0.2-4.3c-0.2-0.5-0.5-0.9-0.6-1.3c-0.1-0.6,0.1-1.3,0.1-1.9c3-1.7,2.2-4.3,1-6.4
		c-1-1.8-1.2-3.1-0.7-5c0.7-3.3-1.2-4.9-5-4.5c1.1,1.3,3.3,1.3,3.5,3.8c0.2,2.3-2.5,2.3-2.8,4.4c3.5,1.3,4.4,3.8,3.4,7.1
		c-1.3,0.6-2.8,0.8-3.5,2.3c0.8,1.3,2.4,1.8,3,3.2c0.6,1.4,0.6,2.4-0.5,3.5c-2.3,2.4-2.5,3.1-1.8,6.5c0.1,0.5-0.1,1-0.2,1.5
		c-1.1,0.6-2.5,0.7-3.3,1.9C766.3,253.7,766.3,253.7,767.9,252.2z M751.9,216.1c2.1,0.8,3.2,1.2,4.2,1.6c2.6,1,3.4,3.6,2,5.2
		c-2.5,2.7-0.5,3.6,1,5.1c2.1,2,1.8,4.1-0.2,6c-0.6,0.6-1.4,0.9-2,1.5c-0.6,0.5-0.6,1.2-0.1,1.8c0.6,0.7,1.3,1,2.2,0.5
		c2.8-1.8,4.2-7.2,2.3-10.1c-1.1-1.6-1.4-2.9-0.9-4.9C761.4,218,758.1,215.1,751.9,216.1z M750.1,255c5.1,1.2,8.5-0.8,8.3-4.7
		c-0.1-2.8,0.3-5,2.3-7c1.2-1.3,1.3-2.9-0.4-4.3c-0.4,1.3-2.4,4.3-3.8,5.5c-0.9,0.8-1,1.6-0.8,2.7
		C756.4,252.7,756.4,252.7,750.1,255z M735.6,227.8c-0.1-2.2-0.6-3.8-3.1-3.8c-2,0.1-2.9,1.2-3,3.2c-0.1,2.1,1.2,3.1,3,3.3
		C734.5,230.9,735.5,229.7,735.6,227.8z"/>
	<path class="st35" d="M786.4,241.4c-0.4-3.3,0.9-6.8-0.8-10c1.8-1,2.8-2.8,3.8-4.5c2.9-5.2,5.5-10.5,8.2-15.8
		c0.3-0.2,0.7-0.3,1-0.5c0.5,0.1,0.7-0.1,0.6-0.6c0.1-0.3,0.3-0.6,0.4-0.9c5.3-3.4,10.6-5.2,16-0.2c0.1,0.4,0.2,0.7,0.3,1.1
		c1.4,3.6,0.2,6.9-1.4,10c-1.9,3.9-2.2,7.4,0.5,11.1c2.4,3.3,3,6.8,0.8,10.7c-1.6,2.8-1.3,5.8,0.4,8.5c1.7,2.8,1.9,5.6,1.1,8.6
		c-0.3,0-0.6,0.1-0.8,0.3c-0.6-0.1-0.9,0.2-0.9,0.8l-0.1,0.1c-3.7,1.7-7.3,0.9-10.4-1.3C798.1,253.9,791.7,248.2,786.4,241.4z"/>
	<path class="st36" d="M711.7,134.6c0.9-0.1,1.8-0.1,2.7-0.2c1.5,0.1,3,0.2,4.4,0.4c6.6,1.1,12.7,3.1,16.9,8.8
		c-0.7,0.5-2.6,0.5-1.7,1.7c2.5,3.6,0.4,7.6,1.3,11.3c-0.4,0.3-1.5,0.1-1.1,0.9c0.4,0.6,1.1,0,1.5-0.5c1-0.7,2.2-1.7,1.7-2.8
		c-1.4-3,0.3-5.8,0.3-8.7c1.2,0.6,1.4,2.2,2.7,2.6c-0.2,2.4,0.5,5-0.8,7.3c-14,18.5-40.4,14.2-49.1-0.5c1.7-2.1,3.1-4.2-0.2-6.2
		C694.8,140.1,702.4,136.1,711.7,134.6z M728.7,157.2c1.2-1.1,1.2-2.3,0-3.4c0-0.8,0-1.7,0-2.5c0.3-0.3,0.9-0.6,0.2-1
		c-0.1,0-0.4,0.4-0.7,0.6c-3.3,1.1-1.3,2.3-0.1,3.4c0,0.9,0,1.7,0.1,2.6c-0.3,0.3-0.7,0.7-1,1c-0.9,0.5-4-0.3-1.6,2.3
		c0.9,0.9,0.2,2.4,1.6,3.5c0.1-2.1,0.3-3.7,0.4-5.4C728.1,157.8,728.4,157.5,728.7,157.2z M713.7,149.1c0.7-0.6,1-1.3,0.7-2.2
		c-0.1-0.2-0.5-0.5-0.6-0.5c-0.7,0.6-0.4,1.5-0.5,2.3c-0.8,0.4-0.9,1.2-1,2c-3.9,1.1-0.7,2.2,0,3.3c0,0.9,0,1.8,0,2.7
		c-4.3,1.3-1.9,4.5-2,7c-1,0.3-2.4-0.4-3.1,0.9c1.3,0.6,2.4,0.6,3.4-0.7c1.7-2,0.7-4.8,2.1-7c1.2-1.1,1.2-2.2,0-3.3
		c0-0.9-0.1-1.8-0.1-2.7C713.4,150.6,713.6,149.9,713.7,149.1z M728.3,142.7c-0.4,0.3-0.8,0.6-1.1,1c-0.6,0.7-1,1.5,0.1,1.9
		c0.7,0.3,1.1-0.4,1.2-1.1c0-0.5,0.1-1,0.2-1.5c0.5-0.4,1.1-1.2,0.4-1.5C728.3,141.2,728.5,142.3,728.3,142.7z M719.3,138.1
		c0.1,0.8,0.3,1.5,1.1,1.9c-1,2.2-3,4.6,1,6c0.4,1.4-0.2,2.6-0.9,3.8c-1.3,0.8-2.7,1.6-1.1,3.3c1,1.1,1.3,2.2,1,3.6
		c-0.3,0.3-0.7,0.7-1,1c-0.6,0.1-1.8,0.4-1.5,0.9c1.6,3.3-0.7,5.1-3.4,7.2c5.4-1,5.8-1.6,5.3-7.7c0.3-0.3,0.7-0.6,1-0.9
		c2.4-2.4-0.7-4.7,0-7c2.8-0.9,2.3-2.5,1-4.3c-1.3-1.9,0.2-4.2-0.9-6.1c-0.2-0.8-0.3-1.5-1.1-1.9c-1-1.4-2.2-2.3-3.8-0.5
		C717,138.3,718.3,137.8,719.3,138.1z M712.3,144.1c0.2,0.2,0.6,0.6,0.6,0.6c0.7-0.5,0.1-0.7-0.3-0.9c0.1-0.8,0.1-1.6,0.2-2.4
		c0.5-3.2-0.1-3.8-4.4-3.8c2.1,1.4,3.8,2.6,2.2,5.2C710.2,143.6,711.6,143.9,712.3,144.1z M701,142.9c-1.1,0.2-2.1,0.8-2.3,2.1
		c-0.2,1.6,1,1.9,2.2,2c1.2,0,2.4-0.2,2.4-1.8C703.4,143.8,702.4,143.2,701,142.9z M730.3,148.2c-0.1-0.2-0.2-0.5-0.3-0.7
		c-0.1,0.1-0.3,0.1-0.3,0.2c0,0.2-0.1,0.5,0,0.7C729.9,148.6,730.2,148.5,730.3,148.2z M724.8,164c-0.3,0.1-0.6,0.2-0.8,0.4
		c0.1,0.1,0.3,0.3,0.3,0.3c0.3-0.1,0.6-0.2,0.8-0.3C725,164.3,724.9,164.1,724.8,164z"/>
	<path class="st37" d="M826.3,182.9c-0.3,0-0.5,0-0.8,0.1c-3.4-0.6-1.4-3.2-1.9-4.9c0.3-0.1,0.6-0.1,0.9-0.3c1-0.5,1.4-1.6,0.6-2.2
		c-0.6-0.4-1.2,0.6-1.5,1.3c-0.1,0.3-0.2,0.6-0.2,0.9c-1,0.1-2.1,0.3-1.5,1.7c0.4,1,0.6,1.6-0.5,2.4c-1.4,1.1-1.3,1.3,1.1,2.2
		c-2.1,1.3-4.6,1.4-6.9,2c-0.3,0-0.6,0.1-1,0.1c-2,0-4-0.1-6.1-0.1c-0.3,0-0.6-0.1-1-0.1c-1.5,0.3-2.5-1.4-4-1
		c-2.6-1.4-5.2-2.9-7.8-4.3c-0.2-0.6-0.5-0.9-1.2-1l0,0c-1-1.1-2-2.1-2.9-3.2c-0.3-0.5-0.5-1-0.8-1.5c3-2.3,0.1-4.9,0.4-7.3
		c1.4-1.7,2.8-3.4,4.2-5c0.4-0.3,0.8-0.6,1.1-1c1-0.1,1.6-0.8,2.2-1.4c0.3-0.2,0.5-0.4,0.8-0.6c1.2,0,2-0.8,3-1.3
		c0.7,0.2,0.9-0.3,1-0.8c0.3-0.1,0.6-0.1,1-0.2c0.3,0,0.6,0,1-0.1c1.4,0.2,2.7-0.4,4-0.8c0.7,0,1.3-0.1,2-0.1
		c5.7,0.2,11,1.7,15.8,4.7c1.9,1.9,3.9,3.7,5.8,5.6c0.2,0.8,0.5,1.5,1.2,2c0.1,2.2,0.5,4.5-0.7,6.6c-1.5,2.4-3.8,4.1-5.7,6.1
		c-0.2,0-0.4,0.1-0.5,0.3C826.9,182.1,826.5,182.3,826.3,182.9z M830.7,171.1c1.2-1.5,1.4-2.9-0.1-4.3c-0.5-0.4-1-0.8-1.4-1.3
		c-0.1,0.2-0.4,0.5-0.4,0.6c0.2,0.8,0.9,0.8,1.6,0.9c0,1.2,0,2.4,0,3.6c-0.8,0.4-0.8,0.9-0.1,1.4c0.1,1.6,0.1,3.1,0.2,4.7
		c-0.4,0.1-0.9,0.2-1.3,0.3c0.1,0.2,0.2,0.5,0.4,0.5c0.5,0.1,0.8-0.3,1-0.7c2.1-1.7,1.7-3.4,0.2-5.3
		C830.7,171.5,830.7,171.3,830.7,171.1z M817.3,166.1c0,1.6,0.1,3.2,0.1,4.8c-1,0.2-1.9,0.4-1.7,1.8c0.8,4.7-0.7,9-4.2,11.9
		c2.2,0.1,4.2-0.5,4.4-2c0.6-3.9,4-7.4,1.6-11.6c2.7-1.7,2.5-3.4,0-5.2c-0.6-1.5,2-3.2-0.9-5.2C817.4,162.9,813.8,164.5,817.3,166.1
		z M824.4,167.1c0.1,1.1,0.3,2.3,0.5,4c2.1-2.1,1.3-3.2-0.2-4.2c-0.7-1.5,2.1-3.2-0.8-4.6C825.3,163.9,820,165.6,824.4,167.1z
		 M807.6,183.1c0.6-0.1,1.4-0.2,1.6-0.9c0.9-3.6,2.9-7.2,1.4-11.1c3.9-3.6-1.3-6.9-0.4-10.5c0.2-0.7-1-1.6-1.7-1.3
		c-0.6,4.3,2.3,7.5,1.9,11.6c-1.8,0.2-2.3,1.2-1.5,2.8c0.6,1.1,1.1,2.4,0.1,3.2c-1.9,1.7-1.3,4-1.6,6c-0.8,0.1-1.5,0.3-2.3,0.4
		c0.1,0.2,0.3,0.5,0.5,0.6C806.4,184.1,807.1,183.8,807.6,183.1z M802.5,166.4c-0.2-1.2-0.7-2.3-2.1-2.2c-1.3,0.1-1.9,1.2-2,2.4
		c-0.1,1,0.2,2,1.4,2.1C801.4,168.9,802.2,167.9,802.5,166.4z M824.3,173.1c0-0.6-0.2-0.9-0.7-1c-0.5,0-0.9,0.2-0.8,0.8
		c0.1,0.3,0.3,0.6,0.5,0.7C823.8,173.9,824.1,173.6,824.3,173.1z M816,159.4c-0.4-0.5-0.9-0.5-1.3-0.4c-0.2,0.1-0.4,0.3-0.6,0.5
		c0.4,0.1,0.9,0.3,1.3,0.3C815.6,159.9,815.8,159.6,816,159.4z"/>
	<path class="st38" d="M751.7,130.4c1.3-0.4,2.5-1,3.8-1c5.1-0.2,7.9,3.4,6.1,8c-1.7,4.2-2.7,8,0.4,12.1c1.1,1.5,0.9,3.5,0.1,5.3
		c-1.1,2.6-1,5.2,0.4,7.7c1.2,2.1,1.4,4.1-0.5,5.9c-1.7,1.6-3.8,1.7-6,0.9c-2.9-1.1-5.1-3.1-7.3-5c-3.1-2.8-6-5.7-9-8.5
		c1.4-2.3,0.7-4.8,0.8-7.3c3.5-5.7,5.5-12.3,10.3-17.3C751.2,131,751.5,130.8,751.7,130.4z"/>
	<path class="st35" d="M714.1,233.9c1.1-1.1,3-0.8,4-2.2c3.4,4.6,3.4,4.6,0.1,9.3l-0.3,0l-0.3-0.1
		C713.6,238.7,713.6,238.7,714.1,233.9z"/>
	<path class="st38" d="M687.5,149.9c0.7-0.9,1.8-0.9,2.8-1.1c3.2,2,1.8,4.1,0.2,6.2c-0.9-0.2-1.8-0.5-2.6-0.7c0-0.2-0.1-0.3-0.3-0.4
		c-0.1-0.7-0.2-1.3-0.2-2C687.3,151.3,687.4,150.6,687.5,149.9z"/>
	<path class="st12" d="M814.6,186.3c0.3,0,0.6-0.1,1-0.1"/>
	<path class="st39" d="M751.9,216.1c6.1-1,9.4,1.9,8.4,6.6c-0.4,2-0.1,3.3,0.9,4.9c1.9,2.9,0.5,8.3-2.3,10.1
		c-0.8,0.5-1.6,0.2-2.2-0.5c-0.5-0.5-0.5-1.2,0.1-1.8c0.6-0.5,1.4-0.9,2-1.5c2-1.9,2.2-4,0.2-6c-1.5-1.5-3.5-2.4-1-5.1
		c1.4-1.6,0.6-4.2-2-5.2C755.1,217.3,754.1,216.9,751.9,216.1z"/>
	<path class="st39" d="M747.8,218.7c1.2,3.5,0.9,7.4,3.3,10.5c0.2,0.3,0.1,0.9,0.1,1.4c-0.3,2.4-3.3,4.5-2.9,5.9
		c0.6,2.2,1.4,4.3,1.3,6.6c0,1.1-0.6,1.8-1.7,2.2c-0.2-0.2-0.4-0.4-0.6-0.6c1.2-2.4,1.7-4.7-0.8-6.7c-1.2-0.9-1.2-1.7-0.3-2.9
		c4.2-5.8,4.2-6-1.5-11.3c1.6-1.1,3.4-2.3,2.6-4.7C747.5,219,747.6,218.8,747.8,218.7z"/>
	<path class="st39" d="M750.1,255c6.3-2.2,6.4-2.2,5.6-7.8c-0.2-1.1,0-1.9,0.8-2.7c1.4-1.3,3.3-4.2,3.8-5.5c1.7,1.4,1.7,3.1,0.4,4.3
		c-2,2-2.4,4.3-2.3,7C758.5,254.2,755.2,256.1,750.1,255z"/>
	<path class="st39" d="M770.8,235.3c0,0.6-0.2,1.3-0.1,1.9c0,0.5,0.4,0.9,0.6,1.3c0.6,1.4,1,3.5,0.2,4.3c-2.7,2.7-1,6.8-3.6,9.4
		c-0.2-0.2-0.4-0.4-0.6-0.6c0.1-0.5,0.3-1,0.2-1.5c-0.7-3.4-0.5-4.1,1.8-6.5c1.1-1.1,1.1-2.1,0.5-3.5c-0.6-1.4-2.2-1.9-3-3.2
		c0.7-1.5,2.3-1.7,3.5-2.3C770.4,234.9,770.6,235.1,770.8,235.3z"/>
	<path class="st39" d="M780.2,242.6c0.1-1,0.6-2.3,0.2-2.9c-1.9-2.8-1.9-5.6-0.6-8.6c1.1-2.7-2.2-2.6-3.1-4.3
		c4.1-0.1,6.6,2.4,5.4,5.7c-0.8,2.2-1,3.9,0.1,5.9c1,1.8,0.2,3.5-1.4,4.8C780.6,243,780.4,242.8,780.2,242.6z"/>
	<path class="st39" d="M770.2,234.7c1-3.4,0-5.9-3.4-7.1c0.2-2.1,3-2.1,2.8-4.4c-0.2-2.4-2.4-2.4-3.5-3.8c3.8-0.4,5.8,1.1,5,4.5
		c-0.4,1.9-0.3,3.3,0.7,5c1.2,2.1,2,4.7-1,6.4C770.6,235.1,770.4,234.9,770.2,234.7z"/>
	<path class="st40" d="M735.6,227.8c-0.1,1.8-1.1,3.1-3.1,2.8c-1.7-0.3-3-1.2-3-3.3c0.1-2,1-3.1,3-3.2
		C735,224,735.6,225.7,735.6,227.8z"/>
	<path class="st39" d="M743.3,253.7c1.1-1.4,2.8-2.5,1.7-4.6c-1.4-2.6,0.3-3.5,2.3-4.4c0.2,0.2,0.4,0.4,0.6,0.6
		c-1,1.7-1.5,3.5-1.2,5.5c0.2,2.1-0.6,3.4-2.9,3.5C743.6,254.1,743.4,253.9,743.3,253.7z"/>
	<path class="st39" d="M743.8,254.2c-1.3,1.1-2.6,1.1-4,0c0.9-2.3,2.4-0.6,3.6-0.6C743.4,253.9,743.6,254.1,743.8,254.2z"/>
	<path class="st39" d="M767.9,252.2c-1.6,1.4-1.6,1.4-3.9,1.4c0.8-1.2,2.2-1.4,3.3-1.9C767.5,251.9,767.7,252.1,767.9,252.2z"/>
	<path class="st39" d="M780.7,243.2c-0.2,0.3-0.4,0.6-0.6,0.8c-0.6,0.5-1.4,1.5-2,0.6c-0.7-0.9,0.5-1.3,1.2-1.6
		c0.3-0.2,0.6-0.2,0.9-0.3C780.4,242.8,780.6,243,780.7,243.2z"/>
	<path class="st39" d="M746.3,218.2c-0.7-0.2-1.5-0.3-2.2-0.6c-0.3-0.1-0.2-0.5,0.2-0.6c1-0.3,1.8-0.1,2.5,0.7
		C746.6,217.8,746.5,218,746.3,218.2z"/>
	<path class="st39" d="M747.3,219.1c-0.3-0.3-0.7-0.6-1-1c0.2-0.2,0.3-0.4,0.5-0.5c0.3,0.3,0.7,0.7,1,1
		C747.6,218.8,747.5,219,747.3,219.1z"/>
	<path class="st41" d="M833.7,175.7c1.3-2.1,0.8-4.4,0.7-6.6c0.1-0.4,0.1-0.7,0.2-1.1c3.1-2.1,3.5-5.8,5.3-8.7
		c1.7-2.7,3.4-5.3,6.5-6.5c4.3-1.6,7.9,1.1,7.2,5.6c-0.2,1.4-0.8,2.9-1.4,4.2c-0.7,1.4-1.1,3-0.2,4.3c2.4,3.5,2.7,6.9,0.9,10.7
		c-0.5,1.1,0.4,2.2,0.8,3.3c1.8,4.8,1.6,5.3-3.2,7.3c-0.7-0.1-1.3-0.2-2-0.3c-3.2-2-6.2-4.4-8.9-7.1
		C837.8,179,836.1,176.9,833.7,175.7z"/>
	<path class="st42" d="M823.6,178c0.5,1.7-1.5,4.3,1.9,4.9c-0.8,0.9-1.8,1.4-3,1.3c-2.4-0.9-2.6-1.1-1.1-2.2
		c1.1-0.9,0.9-1.5,0.5-2.4c-0.5-1.5,0.5-1.6,1.5-1.7L823.6,178z"/>
	<path class="st12" d="M816.5,259.1c-0.3,0.3-0.6,0.5-0.9,0.8C815.6,259.4,815.9,259.1,816.5,259.1z"/>
	<path class="st43" d="M735.3,156.7c-0.8-3.7,1.3-7.7-1.3-11.3c-0.8-1.2,1-1.2,1.7-1.7l-0.1,0.1c0,0.7,0.4,1,1,1.1l-0.1,0
		c0.1,0.7,0.4,1.1,1.1,1l0-0.2c0,2.9-1.7,5.6-0.3,8.7c0.5,1-0.7,2.1-1.7,2.8C735.5,157,735.4,156.8,735.3,156.7z"/>
	<path class="st44" d="M701,142.9c1.4,0.3,2.3,0.9,2.3,2.3c0,1.6-1.2,1.9-2.4,1.8c-1.2,0-2.4-0.3-2.2-2
		C698.9,143.8,699.9,143.2,701,142.9z"/>
	<path class="st43" d="M719.7,158.1c0.5,6.1,0.1,6.7-5.3,7.7c2.7-2.1,5.1-3.8,3.4-7.2c-0.2-0.5,0.9-0.7,1.5-0.9L719.7,158.1z"/>
	<path class="st43" d="M712.3,144.1c-0.8-0.2-2.1-0.6-1.6-1.4c1.5-2.6-0.1-3.8-2.2-5.2c4.2,0,4.8,0.6,4.4,3.8
		c-0.1,0.8-0.1,1.6-0.2,2.4C712.6,143.9,712.4,144,712.3,144.1z"/>
	<path class="st43" d="M710.4,163.8c0.1-2.5-2.3-5.7,2-7l0.3,0.3c-1.4,2.1-0.4,4.9-2.1,7L710.4,163.8z"/>
	<path class="st43" d="M727.7,158.2c-0.1,1.6-0.2,3.3-0.4,5.4c-1.4-1-0.8-2.6-1.6-3.5c-2.5-2.6,0.7-1.8,1.6-2.3
		C727.5,157.9,727.6,158,727.7,158.2z"/>
	<path class="st43" d="M720.8,139.7c1.1,1.9-0.4,4.2,0.9,6.1l-0.3,0.3c-4-1.4-2-3.8-1-6C720.5,139.9,720.6,139.8,720.8,139.7z"/>
	<path class="st43" d="M720.7,150.1c-0.7,2.3,2.4,4.7,0,7c-0.1-0.1-0.2-0.2-0.4-0.4c0.3-1.4,0-2.5-1-3.6c-1.6-1.7-0.3-2.5,1.1-3.3
		L720.7,150.1z"/>
	<path class="st43" d="M719.3,138.1c-1-0.3-2.3,0.2-3.4-0.9c1.6-1.8,2.7-0.9,3.8,0.5L719.3,138.1z"/>
	<path class="st43" d="M728.7,143.1c-0.1,0.5-0.1,1-0.2,1.5c-0.1,0.8-0.5,1.4-1.2,1.1c-1.1-0.4-0.7-1.3-0.1-1.9
		c0.3-0.4,0.7-0.7,1.1-1C728.4,142.9,728.5,143,728.7,143.1z"/>
	<path class="st43" d="M721.7,145.8c1.3,1.8,1.8,3.4-1,4.3l-0.2-0.3c0.7-1.2,1.3-2.3,0.9-3.8L721.7,145.8z"/>
	<path class="st43" d="M712.6,151c0,0.9,0.1,1.8,0.1,2.7c-0.1,0.1-0.3,0.2-0.4,0.3c-0.7-1.1-3.9-2.2,0-3.3L712.6,151z"/>
	<path class="st43" d="M728.8,151.2c0,0.8,0,1.7,0,2.5c-0.2,0.1-0.3,0.3-0.5,0.4c-1.3-1.2-3.3-2.3,0.1-3.4
		C728.5,150.9,728.6,151,728.8,151.2z"/>
	<path class="st43" d="M710.6,164c-0.9,1.3-2.1,1.2-3.4,0.7c0.8-1.3,2.1-0.7,3.1-0.9L710.6,164z"/>
	<path class="st43" d="M713.3,148.8c0.2-0.8-0.1-1.7,0.5-2.3c0,0,0.5,0.3,0.6,0.5c0.2,0.9,0,1.6-0.7,2.2L713.3,148.8z"/>
	<path class="st43" d="M712.7,153.8c1.2,1.1,1.2,2.2,0,3.3l-0.3-0.3c0-0.9,0-1.8,0-2.7C712.5,154,712.6,153.9,712.7,153.8z"/>
	<path class="st43" d="M728.3,156.8c0-0.9,0-1.7-0.1-2.6c0.2-0.1,0.3-0.3,0.5-0.4c1.2,1.2,1.2,2.3,0,3.4
		C728.6,157,728.5,156.9,728.3,156.8z"/>
	<path class="st43" d="M720.4,140.1c-0.7-0.4-0.9-1.2-1.1-1.9l0.4-0.3c0.8,0.4,0.9,1.2,1.1,1.9C720.6,139.8,720.5,139.9,720.4,140.1
		z"/>
	<path class="st43" d="M728.3,142.7c0.2-0.4,0-1.5,0.8-1.1c0.6,0.3,0.1,1.1-0.4,1.5C728.5,143,728.4,142.9,728.3,142.7z"/>
	<path class="st43" d="M730.3,148.2c-0.2,0.3-0.4,0.4-0.6,0.2c-0.1-0.2-0.1-0.5,0-0.7c0-0.1,0.2-0.1,0.3-0.2
		C730.1,147.7,730.2,147.9,730.3,148.2z"/>
	<path class="st43" d="M712.3,150.8c0.1-0.8,0.3-1.5,1-2l0.4,0.3c-0.1,0.8-0.3,1.5-1.1,1.9L712.3,150.8z"/>
	<path class="st45" d="M735.7,157.1c-0.4,0.5-1.1,1.1-1.5,0.5c-0.5-0.8,0.7-0.6,1.1-0.9C735.4,156.8,735.5,157,735.7,157.1z"/>
	<path class="st43" d="M724.8,164c0.1,0.1,0.2,0.2,0.3,0.4c-0.3,0.1-0.5,0.3-0.8,0.3c-0.1,0-0.2-0.2-0.3-0.3
		C724.2,164.3,724.5,164.1,724.8,164z"/>
	<path class="st43" d="M728.7,157.2c-0.3,0.3-0.7,0.7-1,1c-0.1-0.1-0.3-0.3-0.4-0.4c0.3-0.3,0.7-0.7,1-1
		C728.5,156.9,728.6,157,728.7,157.2z"/>
	<path class="st45" d="M719.4,157.8c0.3-0.3,0.7-0.7,1-1c0.1,0.1,0.3,0.2,0.4,0.4c-0.3,0.3-0.7,0.6-1,0.9
		C719.7,158.1,719.4,157.8,719.4,157.8z"/>
	<path class="st43" d="M728.3,150.7c0.2-0.2,0.6-0.6,0.7-0.6c0.7,0.5,0.1,0.7-0.2,1C728.6,151,728.5,150.9,728.3,150.7z"/>
	<path class="st43" d="M712.7,143.8c0.3,0.3,0.9,0.5,0.3,0.9c0,0-0.4-0.4-0.6-0.6C712.4,144,712.6,143.9,712.7,143.8z"/>
	<path class="st42" d="M817.6,171c2.3,4.2-1,7.8-1.6,11.6c-0.2,1.4-2.3,2.1-4.4,2c3.5-3,4.9-7.3,4.2-11.9c-0.2-1.4,0.6-1.7,1.7-1.8
		L817.6,171z"/>
	<path class="st42" d="M810.6,171c1.5,4-0.5,7.5-1.4,11.1c-0.2,0.7-0.9,0.8-1.6,0.9l-0.2-0.3c0.3-2.1-0.3-4.3,1.6-6
		c1-0.9,0.4-2.1-0.1-3.2c-0.8-1.6-0.3-2.5,1.5-2.8L810.6,171z"/>
	<path class="st41" d="M790.8,175.3c-0.4-0.2-0.8-0.3-1.2-0.5c-1.9-1.2-2.5-2.9-0.7-4.4c0.9-0.7,1.3-1.9,2.3-2.4
		C790.9,170.4,793.8,173,790.8,175.3z"/>
	<path class="st42" d="M810.4,170.8c0.5-4-2.5-7.3-1.9-11.6c0.7-0.4,1.9,0.6,1.7,1.3c-0.9,3.6,4.4,6.9,0.4,10.5L810.4,170.8z"/>
	<path class="st46" d="M802.5,166.4c-0.3,1.4-1,2.4-2.6,2.3c-1.3-0.1-1.5-1.2-1.4-2.1c0.1-1.2,0.6-2.3,2-2.4
		C801.7,164.2,802.3,165.2,802.5,166.4z"/>
	<path class="st42" d="M824.4,167.1c-4.3-1.5,0.9-3.2-0.5-4.8c2.8,1.3,0.1,3.1,0.8,4.6L824.4,167.1z"/>
	<path class="st42" d="M817.3,166.1c-3.5-1.6,0-3.2-0.6-5.5c3,2,0.4,3.7,0.9,5.2L817.3,166.1z"/>
	<path class="st42" d="M817.4,170.9c0-1.6-0.1-3.2-0.1-4.8l0.3-0.3c2.4,1.7,2.7,3.5,0,5.2L817.4,170.9z"/>
	<path class="st42" d="M824.6,166.9c1.6,1,2.3,2,0.2,4.2c-0.2-1.7-0.3-2.8-0.5-4L824.6,166.9z"/>
	<path class="st42" d="M830.4,176.9c-0.1-1.6-0.1-3.1-0.2-4.7c0.2-0.2,0.3-0.3,0.5-0.5c1.5,1.8,1.9,3.6-0.2,5.3L830.4,176.9z"/>
	<path class="st42" d="M823.3,177.8c0.1-0.3,0.1-0.6,0.2-0.9c0.3-0.7,0.9-1.8,1.5-1.3c0.8,0.6,0.5,1.7-0.6,2.2
		c-0.3,0.1-0.6,0.2-0.9,0.3L823.3,177.8z"/>
	<path class="st42" d="M824.3,173.1c-0.2,0.5-0.5,0.8-1,0.6c-0.2-0.1-0.5-0.4-0.5-0.7c-0.2-0.6,0.3-0.9,0.8-0.8
		C824.1,172.2,824.3,172.5,824.3,173.1z"/>
	<path class="st42" d="M830.6,166.8c1.5,1.4,1.3,2.8,0.1,4.3c-0.1-0.1-0.3-0.2-0.4-0.4c0-1.2,0-2.4,0-3.6L830.6,166.8z"/>
	<path class="st42" d="M816,159.4c-0.2,0.2-0.4,0.5-0.6,0.5c-0.4,0-0.9-0.2-1.3-0.3c0.2-0.2,0.4-0.5,0.6-0.5
		C815.1,158.9,815.6,158.9,816,159.4z"/>
	<path class="st42" d="M830.3,167.1c-0.6-0.2-1.4-0.2-1.6-0.9c0-0.2,0.3-0.4,0.4-0.6c0.5,0.4,1,0.8,1.4,1.3L830.3,167.1z"/>
	<path class="st42" d="M807.6,183.1c-0.5,0.8-1.2,1-2,0.8c-0.2-0.1-0.3-0.4-0.5-0.6c0.8-0.1,1.5-0.3,2.3-0.4L807.6,183.1z"/>
	<path class="st47" d="M830.5,177c-0.2,0.4-0.5,0.8-1,0.7c-0.1,0-0.2-0.3-0.4-0.5c0.4-0.1,0.9-0.2,1.3-0.3L830.5,177z"/>
	<path class="st42" d="M830.7,171.1c-0.1,0.2,0,0.4,0,0.6c-0.2,0.1-0.3,0.3-0.5,0.5c-0.8-0.5-0.7-1,0.1-1.4
		C830.4,170.9,830.6,171,830.7,171.1z"/>
	<path class="st43" d="M737.7,145.9c-0.7,0-1-0.4-1.1-1C737.4,144.7,737.6,145.2,737.7,145.9z"/>
	<path class="st43" d="M736.6,144.9c-0.7-0.1-1-0.4-1-1.1C736.5,143.6,736.7,144.1,736.6,144.9z"/>
</g>
<g>
	<path class="st10" d="M203.1,192.7c-1.4,1.8-3,3.5-5.2,4.5c-1.1,0.5-2.1,0.8-3.3,0.9c-1.3,0.1-1.9-0.4-2.2-1.7
		c-0.1-0.3,0.1-0.5-0.4-0.6c-2.5-0.5-3-1.4-2.2-3.8c-1.9-0.1-3-1.2-3-3.1l0,0c0.7-1.1,2.3-1.8,1-3.6c-0.3-0.4,0.1-1,0.5-1.3
		c0.5-0.5,1-1,1.6-1.3c2.9-1.4,5.8-1.9,8.9-1.1c4,1,6.1,4.5,5.1,8.5c-0.2,0.8-0.5,1.5-0.8,2.3C203.1,192.4,203.1,192.5,203.1,192.7z
		 M191,185.4c-0.2,0.1-0.4,0.2-0.6,0.4c-0.4,0.3-1.1,0.4-0.7,1.1c0.4,0.6,0.9,0.1,1.3-0.2c1-0.6,2.1-1,3.3-1.3
		c1.8-0.5,3.7-0.7,5.5-0.7c0.4,0,0.8,0.1,0.8-0.5c0-0.4-0.4-0.6-0.8-0.6C196.8,183.4,193.8,184.1,191,185.4z M196.3,194.2
		c2.1-1.3,3.8-2.9,5.5-4.5c0.4-0.3,0.9-0.8,0.3-1.2c-0.4-0.3-0.8,0.1-1.1,0.4c-1.7,1.6-3.4,3-5.3,4.3c-0.6,0.5-2.2,0.7-1.7,1.5
		C194.7,195.8,195.5,194.3,196.3,194.2z M195.2,188.7c-0.9,0.6-1.8,1.1-2.7,1.6c-0.2,0.1-0.4,0.3-0.3,0.6c0.1,0.4,0.5,0.4,0.8,0.3
		c0.2,0,0.5-0.2,0.7-0.3c2.4-1.4,4.6-3,7.4-3.5c0.3-0.1,0.8-0.3,0.6-0.8c-0.2-0.6-0.6-0.3-1.1-0.2
		C198.6,186.9,196.8,187.6,195.2,188.7z"/>
	<path class="st48" d="M191,185.4c2.8-1.3,5.7-2,8.8-1.9c0.4,0,0.8,0.2,0.8,0.6c0,0.6-0.5,0.5-0.8,0.5c-1.9,0-3.7,0.2-5.5,0.7
		c-1.2,0.3-2.3,0.7-3.3,1.3c-0.4,0.2-0.9,0.8-1.3,0.2c-0.4-0.6,0.3-0.8,0.7-1.1C190.6,185.6,190.8,185.5,191,185.4z"/>
	<path class="st48" d="M196.3,194.2c-0.8,0.1-1.6,1.6-2.2,0.6c-0.5-0.9,1-1.1,1.7-1.5c1.9-1.3,3.7-2.8,5.3-4.3
		c0.3-0.3,0.7-0.8,1.1-0.4c0.5,0.5,0,0.9-0.3,1.2C200.1,191.3,198.4,192.9,196.3,194.2z"/>
	<path class="st48" d="M195.2,188.7c1.6-1.1,3.4-1.8,5.4-2.3c0.4-0.1,0.9-0.4,1.1,0.2c0.2,0.5-0.3,0.7-0.6,0.8
		c-2.8,0.6-5,2.1-7.4,3.5c-0.2,0.1-0.4,0.2-0.7,0.3c-0.3,0.1-0.6,0-0.8-0.3c-0.1-0.3,0.1-0.5,0.3-0.6
		C193.4,189.7,194.2,189.2,195.2,188.7z"/>
</g>
<g>
	<path class="st49" d="M682.4,195.4c-2-2-3.9-4.1-4.8-6.8c-0.4-1.3-0.6-2.7-0.6-4c0-1.6,0.8-2.2,2.4-2.4c0.3,0,0.6,0.2,0.8-0.4
		c0.9-3,2.1-3.4,4.9-2.2c0.4-2.3,1.8-3.4,4.1-3.2l0,0c1.2,1,1.9,3,4.2,1.7c0.5-0.3,1.1,0.3,1.5,0.8c0.5,0.7,1.1,1.3,1.4,2.1
		c1.3,3.6,1.5,7.2,0.1,10.9c-1.8,4.6-6.2,6.7-10.9,5c-0.9-0.3-1.8-0.8-2.7-1.2C682.7,195.4,682.6,195.3,682.4,195.4z M692.8,181.7
		c-0.1-0.3-0.2-0.6-0.4-0.8c-0.3-0.5-0.4-1.4-1.2-0.9c-0.8,0.4-0.2,1.1,0,1.6c0.6,1.3,1,2.7,1.2,4.1c0.3,2.3,0.4,4.5,0.1,6.8
		c0,0.4-0.2,1,0.5,1c0.5,0,0.8-0.4,0.9-0.9C694.4,188.9,694,185.3,692.8,181.7z M681.5,186.9c1.3,2.7,3,5,4.8,7.2
		c0.4,0.5,0.8,1.1,1.4,0.6c0.4-0.4-0.1-1-0.4-1.4c-1.7-2.2-3.2-4.5-4.5-7c-0.5-0.8-0.5-2.8-1.6-2.2
		C679.8,184.8,681.5,186,681.5,186.9z M688.3,186.3c-0.6-1.2-1-2.3-1.6-3.4c-0.1-0.3-0.3-0.6-0.7-0.5c-0.5,0.1-0.5,0.5-0.5,0.9
		c0,0.3,0.1,0.6,0.3,0.9c1.3,3,3,6,3.3,9.4c0,0.4,0.3,0.9,0.9,0.8c0.8-0.2,0.5-0.7,0.4-1.3C690,190.7,689.4,188.4,688.3,186.3z"/>
	<path class="st50" d="M692.8,181.7c1.3,3.5,1.6,7.2,1.1,10.9c-0.1,0.5-0.4,0.9-0.9,0.9c-0.7,0-0.5-0.6-0.5-1
		c0.2-2.3,0.2-4.5-0.1-6.8c-0.2-1.4-0.6-2.8-1.2-4.1c-0.2-0.5-0.8-1.2,0-1.6c0.8-0.5,0.9,0.5,1.2,0.9
		C692.5,181.2,692.6,181.5,692.8,181.7z"/>
	<path class="st50" d="M681.5,186.9c0-0.9-1.7-2.2-0.4-2.8c1.1-0.5,1.2,1.4,1.6,2.2c1.3,2.4,2.8,4.8,4.5,7c0.3,0.4,0.8,1,0.4,1.4
		c-0.6,0.6-1.1-0.1-1.4-0.6C684.5,191.9,682.8,189.6,681.5,186.9z"/>
	<path class="st50" d="M688.3,186.3c1.1,2,1.7,4.4,2.1,6.8c0.1,0.5,0.4,1.1-0.4,1.3c-0.6,0.1-0.8-0.4-0.9-0.8
		c-0.3-3.4-1.9-6.4-3.3-9.4c-0.1-0.3-0.2-0.6-0.3-0.9c0-0.4,0-0.8,0.5-0.9c0.4-0.1,0.5,0.2,0.7,0.5
		C687.2,184,687.7,185.1,688.3,186.3z"/>
</g>
<g>
	<path class="st51" d="M29.9,182.6c0.6-0.1,1.2-0.1,1.8-0.2c0.5,0.2,1.1,0.4,1.6,0.7c2.5,1.2,2.7,2.6,0.6,4.5
		c-0.9,0.8-1.8,1.5-2.7,2.2c-0.5,0.4-1.3,0.8-1.1,1.6c0.1,0.9,1,0.8,1.6,1c1.5,0.4,2.9,0.6,4.4,1c0.9,0.2,2.2,0.2,2.3,1.6
		c0.1,1.4-0.7,2.4-1.8,2.9c-1.4,0.6-2.9,1.2-4.4,1.5c-3,0.5-3.3,1-3.4,4.3c0,0.8,0,1.6,0.1,2.4c-0.3,0.8-0.1,1.8-0.6,2.5
		c-0.3,0-0.5,0.1-0.5,0.4c-0.4-0.1-0.8-0.2-1.2-0.4c-1.2-1.7-1.7-3.7-2.7-5.5c-0.1-0.3-0.2-0.7-0.3-1c-0.1-1.8-1-2.3-2.5-1.9
		c-1.8,0.4-3.7,0.8-5.5,1.2c-0.8,0.1-1.7,0.7-2.3-0.3c-0.7-1-0.1-1.9,0.3-2.8c1-2.2,2.5-3.9,4.1-5.5c1-1,1.2-1.6,0-2.7
		c-1.5-1.4-2.5-3.2-3.4-5c-0.4-0.7-0.7-1.5-0.2-2.3c0.5-0.9,1.4-0.7,2.2-0.6c1.1,0.1,1.9,1.2,2.9,1.4l0,0c0.8,1.3,2.2,1.5,3.3,2.4
		c0.9,0.8,1.7,0.5,2.4-0.3C26.1,184.1,27.9,183.2,29.9,182.6z M21,188.1c-0.4,0.2-1,0.6-0.7,1.3c0.2,0.7,0.6,1.4,1.4,1.2
		c0.8-0.2,0.9-1,0.8-1.7C22.3,188.3,21.7,188.1,21,188.1z M29.6,194.4c-0.6,0.2-0.9,0.7-0.8,1.4c0.1,0.6,0.5,1,1,1
		c0.7,0,1-0.5,0.9-1.2C30.7,194.8,30.3,194.5,29.6,194.4z M25.6,189c0.1,0.7,0.5,0.9,1.1,0.8c0.7-0.1,0.9-0.6,0.8-1.3
		c-0.1-0.6-0.4-1-1-0.8C25.8,187.9,25.6,188.4,25.6,189z M25.5,197.8c-0.5,0.1-0.7,0.5-0.6,1.1c0.1,0.7,0.5,1.1,1.2,1
		c0.5-0.1,0.9-0.3,0.8-1C26.6,198.2,26.2,197.8,25.5,197.8z M20.1,194.3c-0.5,0.1-1,0.3-0.9,1c0.1,0.7,0.5,1.2,1.2,1
		c0.5-0.1,0.8-0.6,0.7-1.2C21.1,194.5,20.7,194.3,20.1,194.3z M32.6,194.9c-0.2,0.2-0.7,0.4-0.5,1.1c0.1,0.6,0.7,0.7,1.2,0.6
		c0.5-0.1,0.7-0.7,0.5-1.2C33.6,194.9,33.2,194.7,32.6,194.9z M29.1,186.7c0.2,0.5,0.3,0.9,0.9,0.7c0.4-0.2,0.6-0.6,0.5-1.1
		c-0.1-0.5-0.5-0.7-0.9-0.6C29,185.8,29.1,186.3,29.1,186.7z M16.8,197.7c0.1,0.4,0.4,0.5,0.7,0.4c0.4-0.1,0.6-0.4,0.5-1
		c-0.1-0.4-0.4-0.6-0.7-0.5C16.9,196.8,16.7,197.2,16.8,197.7z"/>
	<path class="st52" d="M21,188.1c0.7-0.1,1.3,0.2,1.4,0.9c0.1,0.7,0,1.5-0.8,1.7c-0.8,0.2-1.2-0.6-1.4-1.2
		C20,188.7,20.6,188.4,21,188.1z"/>
	<path class="st51" d="M29.6,194.4c0.7,0.1,1.1,0.5,1.1,1.2c0,0.7-0.2,1.3-0.9,1.2c-0.5,0-0.9-0.4-1-1
		C28.7,195.1,29,194.6,29.6,194.4z"/>
	<path class="st52" d="M25.6,189c0-0.6,0.2-1.1,0.9-1.3c0.6-0.2,0.9,0.2,1,0.8c0.2,0.7-0.1,1.2-0.8,1.3
		C26.1,189.9,25.7,189.8,25.6,189z"/>
	<path class="st52" d="M25.5,197.8c0.7,0,1.2,0.3,1.3,1c0.1,0.7-0.3,0.9-0.8,1c-0.7,0.1-1-0.2-1.2-1C24.8,198.3,25,197.9,25.5,197.8
		z"/>
	<path class="st52" d="M20.1,194.3c0.6-0.1,1,0.2,1,0.8c0,0.6-0.2,1.1-0.7,1.2c-0.7,0.1-1.1-0.4-1.2-1
		C19.1,194.6,19.6,194.4,20.1,194.3z"/>
	<path class="st52" d="M32.6,194.9c0.6-0.2,1,0,1.1,0.5c0.1,0.5,0,1.1-0.5,1.2c-0.4,0.1-1,0-1.2-0.6
		C31.9,195.4,32.4,195.1,32.6,194.9z"/>
	<path class="st52" d="M29.1,186.7c0-0.4-0.2-0.9,0.4-1c0.4-0.1,0.8,0.2,0.9,0.6c0.1,0.5-0.1,0.9-0.5,1.1
		C29.5,187.6,29.3,187.2,29.1,186.7z"/>
	<path class="st51" d="M16.8,197.7c-0.1-0.5,0.2-0.9,0.5-1c0.3-0.1,0.6,0.1,0.7,0.5c0.1,0.5-0.1,0.8-0.5,1
		C17.2,198.2,16.9,198.1,16.8,197.7z"/>
</g>
<path class="st7" d="M374.9,83.4c-1.2,0.2-2.3-0.1-2.8-0.6c-2.3-2.2-4.5-1.4-7-0.3c-6.1,2.7-12.2,2.4-18.1-0.7
	c-0.9-0.5-1.9-0.9-1.8-2.1c0.1-1.3,1.2-1.5,2.1-1.8c6.5-2,12.9-2.4,19.3,0.2c1.7,0.7,3.1,0.9,4.4-0.7c0.5-0.7,1.4-1.1,2.1-1.6
	c0.7-0.5,1.4-0.8,2.2-0.2c0.8,0.7,0.1,1.3,0,2.1C375.1,79.4,375.1,81.3,374.9,83.4z"/>
<path class="st7" d="M204.2,76c2.8-0.5,5.2,0.1,6.4,1.3c5.3,5.1,10.3,3.1,15.9,0.7c13.9-6.1,27.7-5.5,41.2,1.5
	c2.1,1.1,4.3,2.1,4.2,4.9c-0.2,2.9-2.8,3.4-4.9,4.1c-14.8,4.6-29.5,5.4-44.1-0.5c-3.9-1.6-7-1.9-10,1.7c-1.2,1.5-3.2,2.5-4.8,3.7
	c-1.5,1-3.2,1.9-4.9,0.5c-1.9-1.5-0.3-3,0-4.7C203.8,85,203.9,80.7,204.2,76z"/>
<path class="st53" d="M432.4-66.8c-0.5,0.8-1.3,0.8-2.2,0.7C430.8-66.8,431.6-66.9,432.4-66.8z"/>
<g>
	<path class="st54" d="M641.8,166c-0.6,0.4-1.2,0.8-1.9,1.3c-4.4,1.6-8.9,2-13.5,1.9c-2.6-0.1-5.2-0.8-7.7,0.6l0,0
		c-4.6,0.4-8.1,2.6-10.8,6.2c-0.9,0.2-1.1,1-1.2,1.8c-2.8,3-2.8,7-3.4,10.7c-1,6.5-0.3,12.9-0.1,19.6c4.9-4.6,10.6-6.6,16.7-7.6
		c1-0.2,1.9-0.4,2.9-0.6c4.5-0.9,7.3-3.7,8.8-7.9c1.1-3,2-6,3.2-8.9c1.6-3.7,3.7-7.2,7.7-8.7c0.9-0.3,2.1-0.7,2.6,0.4
		c0.5,1.1-0.7,1.7-1.4,2.4c-2,0.9-3.9,1.9-5.2,5.2c3-1.6,5.1-2.7,7.1-3.8c2.2,0.3,2.9,1.3,0.7,2.6c-2.6,1.5-5.5,2.7-7.6,5
		c-0.4,0.5-0.9,1-1.2,1.5c-0.4,0.7-1.1,1.5-0.3,2.2c0.7,0.7,1.6,0.1,2.3-0.3c0.4-0.2,0.8-0.6,1.2-0.9c1.3,0.1,3.3-0.3,1.7,2
		c-1.2,1.7-3.3,2.2-5.1,2.9c-2.9,1.1-4.6,3.2-5.6,6.4c7.8-0.5,14.4-2.8,19.9-7.9c2.2-2,4-4.5,5.9-6.7c2.4-2.8,4.9-5.6,9.2-4.9
		c0.2,0.2,0.5,0.4,0.7,0.7c0.5,3.4-2.7,4.3-4.4,6.1c-0.7,0.7-1.6,1.5-1.2,2.5c0.5,1.3,1.8,1.3,3,1.1c2.5-0.5,4.7-1.7,6.7-3.2
		c1.9-1.4,3.8-2.7,5.7-4.1c0.8-0.5,1.6-0.5,2.3,0.1c0.7,0.6,0.9,1.4,0.6,2.2c-0.4,0.9-1,1.7-1.5,2.6c-0.2,0.2-0.5,0.4-0.7,0.7
		c-2.8,1.8-5.9,3.2-8.4,6.5c2.2,0.1,3.6,0.1,5.1,0.3c1.9,0.2,4.6-1.1,5.3,1.3c0.7,2.5-2.7,2.4-4,3.6c-1.3,0.1-2.6,0.2-3.9,0.3
		c-2.6-0.3-5.3-0.7-7.9-0.9c-4.3-0.4-8.7-1.2-12.7,0.9c-4,2.1-8.2,3.6-12.5,4.7c-1.3,0.1-2.6,0.2-3.9,0.4c-4.7,0.1-9.4-0.8-14,0.9
		c-0.4,0.2-0.9,0.5-1.3,0.7c-1-1.3-2-0.6-2.9,0.2c-0.3-0.1-0.5-0.1-0.7,0.2c-2.7,0.4-4.9,1.9-7.1,3.4c-1.9,0.8-3.5,2.1-4.9,3.6
		c-0.6,0-0.9,0.3-1.1,0.9c-0.3,0.3-0.6,0.6-0.9,0.9c-1.7,1-3.2,2.3-4.1,4.1c-0.6,0.1-0.8,0.5-0.9,1c-0.5,0.1-0.8,0.4-0.8,1
		c-0.3,0.1-0.4,0.3-0.4,0.5c-1.9,1.8-3.1,4.1-4.2,6.4c-2.1,2.6-3.7,2-4.9-0.8c-0.3-2.2-0.4-4.5-3-5.5l-0.3-0.2c-3-3.5-6.1-1.8-9,0.1
		c-2.6,1.7-5,3.6-8.3,3.6c-0.3-0.3-0.7-0.7-1-1c0.9-3.5,5.6-2.2,6.9-5.4c-0.8-0.6-1.4-0.3-2.1-0.2c-5.6,0.9-10.7,3.5-16.2,4.4
		c-4.2,0.7-7.4,2.4-9.5,6.1c-0.3,0.3-0.7,0.7-1,1c-1.8,1.3-3.6,2.6-5.3,3.9c-1.4-0.3-4.2,2.2-3.7-1.9c1.9-1,3.9-2,5.7-4.1
		c-1.9,0.1-3.2,0.2-4.5,0.2c-1.4,0-1.4-1.1-1.2-2.1c0.3-0.2,0.5-0.4,0.8-0.6c1.9-0.7,4.2-0.5,6.2-2.1c-3-0.5-5.5-0.9-8.1-1.3
		c-0.1-0.2-0.3-0.3-0.6-0.2c-1-0.9-2.2-1-3.4-0.9c-0.2-0.2-0.4-0.3-0.7-0.1c-0.3-0.5-0.7-0.7-1.3-0.6c-0.6-0.2-1.2-0.5-1.9-0.7
		c-3.5-2.3-6.7-0.8-9.8,0.7c-3.1,1.5-6,3.4-9.3,4.6c-0.7-0.1-1.4-0.6-2.1,0l-0.4,0.3l0.3,0.4c-0.1-0.6-0.2-1.2-0.8-1.5
		c-0.1-4.1,4.4-1.3,5.5-3.7c-1-1-3.2,0.3-3.7-1.8c1.8-2.2,4.2-1.1,6.4-1.4c0.6-0.1,2.6,1.1,1.8-1.2c-4.1-1.4-8.2-1.4-12.3-0.2
		c-1.1,0.3-2.4,0.2-3.3,1.2c-0.8,0.1-1.6,0.2-2.4,0.4c-1.7,0.3-3.3,0.7-5,1c-0.7-0.4-1.4-0.8-2.1-1.2c-0.1-0.8,2.5-2.1-0.2-2.3
		c-2.6-0.2-5.3,0.3-8,0.1c-2.6-0.2-5.5-0.2-6.3-3.6c0.8-0.2,1.6-0.5,2.4-0.7c1.8,0.1,4.7,2.6,4.4-2.1c-0.1-1.2,1.5-0.9,2.4-0.6
		c2,0.7,4,1.7,6.1,2.2c3.8,0.9,4.4,0.1,3.4-3.8c0.3-0.1,0.6-0.3,1-0.4c0.6,0,1.3,0.1,1.9,0.1c0.3,0.1,0.6,0.3,0.9,0.4
		c1.6,1.5,3.4,2.7,5.7,2.9c5.7,1.2,11.7,0.9,17.6,4.5c-1.9-4.5-5.4-6.8-6.2-10.7c0.5-0.6,1.1-0.8,1.9-1c0.4,0.4,0.8,0.7,1.2,1.1
		c0.7,1.8,1.7,3.5,3.2,4.9c0,0.5,0.3,0.9,0.8,0.9l0,0c0.1,0.5,0.4,0.9,0.9,1l0,0c0.1,0.6,0.5,0.9,1,1l0,0c0.1,0.6,0.5,0.8,1,0.9
		l0.1,0c9.1,8.2,26.3,10.6,36.8,5c-1.4-1-2.8-1.8-4.1-2.8c-0.8-0.7-2.2-1.6-1.3-2.8c0.9-1.2,2.1-0.3,3,0.5c3.5,3,7.5,4.1,12,3.1
		c4.1-0.9,8.1-1.2,12.6,1c-6.1-10.7-20.7-13.2-28.5-7.8c-2.6,1.8-5.1,3.9-7.9,5.2c-5.8,2.7-11.7,3.9-17-1.3c0.6-1.7,1.9-0.9,2.9-0.8
		c1.6,1.3,2.6,1.5,2.5-1.1c1.2,0,2.5,0.1,3.7,0.1c2.4,1.2,4.2,0.3,6.2-1.3c-1.7-1.5-3.5-0.6-4.9-1.2c-0.3-1.5,0.5-2.4,1.9-2.9
		c2.8,0,5.6,1,8.2-0.7l0.4,0l0.3-0.2c1.8-0.2,3.3-1,4.8-2.7c-1.9-0.2-3.3-0.3-4.7-0.5c-0.5-0.3-0.9-0.3-1.4,0
		c-0.4-0.6-1-0.7-1.6-0.6c-1.2-0.4-2.5-0.5-3.7-0.3c-5.4-1.3-10.8-0.8-16.3-0.7c-1.2-0.1-2.3-0.2-3.5-0.3c-1.3-1-2.8-1-4.3-1.1
		l0,0.1c-0.4-0.9-1.3-0.9-2.1-0.9l0.1,0.1c-1.1-1.3-2.2-1-3.2,0.1c-1,0.4-1.9,0.8-2.9,1.2c-1.3,0.2-2.7,0.3-4,0.5
		c-1.8-1-2.7-2.1-0.2-3.4c1.1-0.6,2.7-0.2,3.1-2.1c-4.9-3.3-10.3-5.6-16.3-6.5c-2.5-0.4-4.4,0.2-6.1,2.2c-2.1,2.5-4.6,4.6-7,6.9
		c-0.7,0-1.2,0.1-1.7,0.7c-1.2,0.3-2.7,1.2-3.5-0.4c-0.6-1.2,0.6-1.7,1.3-2.3c0.5-0.4,1.5-0.7,1.2-1.3c-1.8-3.4,1.4-3.3,3-4.3
		c1.3-0.8,3-1.2,3.3-3.7c-8.3,0.2-15.7,1.9-22.3,6.5c-0.7,0.1-1.4,0.3-1.8,1c-1.6,0.3-3.1,1-4.4,1.9c-0.5,0.1-1.1,0.3-1.6,0.4
		c-0.6-0.1-1.1,0.1-1.4,0.6l-0.3-0.1l-0.2,0.2c-1.2,0-2.4,0-3.4,0.8c-1.4-0.2-2.8-0.3-4-1.1c-0.2-1.8,1.1-1.9,2.4-2
		c1.2,0,2.6,0.8,3.7-0.6c-1.1-0.8-2.3-1.1-3.6-1.3l0,0c0-0.6,0-1.3,0-1.9c3.2-0.6,6.8,1.3,9.9-1.6c-0.8-0.2-1.2-0.4-1.7-0.4
		c-3.4-0.1-5.2-0.9-6.7-3c-0.1-0.1-0.3,0-0.5,0c-2.7-1.6-5.5-3-8.6-3.8c-0.3-0.1-0.6-0.3-0.9-0.4c-0.6-1.2-3.6-2.8,0.2-3.5
		c1.6-0.3,3.3,0.8,3.2-2.1c0-0.7,1.4-0.5,2.1,0c1,0.9,1.9,1.8,2.8,2.8c3.7,3.6,8,6.1,13.4,5.8c0-3.4-2.3-4.3-4.8-5
		c-0.1-0.6-0.2-1.2-0.4-1.8c1.2-0.2,2.3-0.3,3.5-0.5c-0.3-1.5-1.4-2.2-2.4-3c-0.1-0.8-0.1-1.7-0.2-2.5c3.5,0.2,4.7,3.1,6.4,5.5
		c3.6,5.1,7.4,6.8,12.2,5.4c-2.4-2.6-2.4-2.6-1.3-4.8l0.4,0c5.6,5.3,12.4,3.7,19.3,3.8c-2.8-5.5-7.1-8.3-12.4-9.8
		c-2.7-0.8-5.5-1.6-6.7-4.8c2.7-1.1,4.2,2.4,6.7,1.1c-1.3-2.5-3.1-4.4-4.9-6.4c-4.5-4.8-9.7-7.3-16.5-5.5c-2.4,0.6-5,0.5-7.4,0.4
		c-1.8-0.1-3.8-0.3-3.7-3l0,0c2.1,0.2,2.7-0.1,4.3-2.2c0.6-0.8,1.4-0.3,2.2-0.2c3.9,0.7,3.9,0.7,7.1-0.2c-4.8-2.4-9.3-4.8-14.7-2.9
		c-1,0.2-2,0.4-3,0.6c-0.8-0.1-1.6,0-2.2,0.7c-2.3-0.2-4.3,1.9-6.7,0.9c0-0.3-0.1-0.6-0.3-0.8c0.3-0.7,1.1-1.7,0.8-2.2
		c-0.4-0.9-1.4-0.1-2.2-0.1c-0.5,0-1,0.2-1.5,0.2c-0.2-0.2-0.5-0.4-0.8-0.4c0-0.7,0-1.3,0-2c1.3-0.7,2.6-1.5,3.9-2.2
		c1-0.2,2-0.3,2.9-0.5c2.9,0,5.8,0,8.9,0c-0.2-0.7-0.2-1.2-0.5-1.6c-0.8-1.2-2.4-2.6-0.9-3.8c1.8-1.4,2.4,0.9,3.1,2
		c1.4,2.2,3.3,3.9,5.8,4.5c3,0.7,5.5,2.4,8,4c2.1,1.3,4.1,2.8,7.1,2c-0.8-3.7-3.2-5.9-5.8-7.9c-2.4-1.8-4.9-3.4-7.4-5.1
		c-1-0.7-1.9-1.8-1.2-2.9c1-1.6,1.9-0.1,2.8,0.4c0.8,0.5,1.3,1.6,3.2,1c-2.9-5.5-7.8-7.9-12.9-10c-1.2-0.8-2.4-1.7-1-3.3
		c0.8-0.1,1.7,0.3,2.3-0.5c-0.8-1.3-2.2-1.9-3.3-2.8c-1-0.7-2-1.5-1.1-2.8c0.7-0.9,1.8-0.3,2.7,0.2c0.7,0.4,1.5,0.8,2.1,1.3
		c11,8,20.2,17.3,23.9,31c0.7,2.6,1.2,5.3,3.1,7.7c1.2-2.2,0.6-4,0.8-5.8c0.2-1.6,0.1-4.1,1.8-4.2c2.4,0,2,2.7,1.9,4.3
		c-0.1,5.3,1,10.2,4.1,14.6c3.4,4.8,7,9.3,11.4,13.2c0.8,0.7,1.4,1.8,2.8,1.3c0.5-1.5-1-3.3,1-5c3.2,4.5,4.3,10.1,8.5,13.5
		c4.2,3.4,8.8,5.9,14.1,7c3.5,1.6,7.1,1.7,10.9,1.1c-2.3-1.9-4.7-3.6-7.4-4.5c-3.1-2.8-6.5-5.1-9.7-7.7
		c-7.8-6.3-11.9-15.8-19.9-21.9c-0.3-0.2-0.4-0.5-0.6-0.8c-4.8-7.5-9.4-15.2-10.8-24.3c-0.7-4.6-2-9.1-5.2-12.7
		c-0.8-0.9-1.1-2-0.8-3.2c0.3,0,0.6-0.1,0.9-0.3c3.9,3.7,8.8,6.7,8.4,13.2c0,0.6,0.2,1.6,1.2,1.7c1.5-2.5,2.8-5,4.3-7.3
		c0.8-1.2,0.9-2.2,0.3-3.6c-1.4-3.6-3.3-6.4-7.2-7.7c-2.9-0.9-5.5-2.3-7.7-4.3c0-0.4-0.1-0.9-0.1-1.3c0.9-0.2,1.9-0.4,2.8-0.6
		c1.5,0.8,0.5-0.7,0.9-0.9c0.4-0.1,0.7-0.1,1.1-0.2c1.9,1.7,2.7,4.6,6.4,6c-2.1-3.8-3-7.2-6.4-8.8c-3.3-5-8.3-6.8-13.9-7.3
		c-1-0.1-1.9-0.4-2.9-0.8c-0.9-0.3-2-0.7-1.6-2c0.3-0.9,1.3-1,2.1-0.7c1.5,0.5,2.9,0.9,4-0.9c-2.1-3.5-5.7-1.7-8.5-2.6l0.1,0.1
		c0.6-1.9,0.6-3.4-2-3.4c-1.1-3.3,1.8-2.6,3.3-3.3c7.2,2.2,13.3,6.2,18.3,12.5c0.2-1.2,0.4-1.6,0.3-1.8c-2.8-3.6,0.5-6.1,1.7-8.9
		c0.6-1.3,1.7-0.7,2.2,0.3c0.8,1.7,0.8,3.6,0.4,5.4c-0.7,3.4,0,6.7,1,9.8c2.3,7.2,7.2,13.1,9.8,20.4c3-2.6,4.8-5.1,3.1-8.8
		c-0.5-1.1-0.6-1.7,0.6-2.3c1.5-0.7,1-1.9,0.4-2.9c-0.6-1-1.2-2-1.8-3c-0.5-0.9-1.1-1.9,0-2.7c1.1-0.8,1.8,0.1,2.4,0.9
		c1.8,2.7,2.9,1.2,3.8-0.7c0.3-0.7,0.1-1.6,0.1-2.4c0-0.7,0-1.3,0-2c0.2-2-0.2-3.8-1.8-5.2l0.1,0c-0.1-1.8,3.1-2.5,1.7-4.9
		c0.2-0.3,0.3-0.6,0.3-0.9c3.7,0,3.1,3.1,3.6,5.2c0.6,3.2-0.8,6.4-0.8,9.6c-0.1,0.5-0.1,1-0.2,1.5c-1.6,4.5-3.3,8.9-5.2,14.1
		c4.8-1.7,6.4-6.2,10.6-6.9c1.4,0.2,1.6,1.1,1.3,2.2c-3.3,5-8.8,6.9-13.6,9.9c-3,1.9-4.2,4.1-2.1,7.3c0.1,0.6,0.2,1.3,0.3,1.9
		c0.4,5,0.8,9.9,1.3,15.7c3.4-4.1,1.7-7.9,2.1-11.4c0.3,0,0.4-0.1,0.5-0.4c1.5,0.7,2.5,0.3,2.9-1.4c0.2-0.8,0.8-1.6,1.8-1.1
		c0.5,0.3,0.9,1,1.1,1.5c0.3,1,0,1.9-0.2,2.9c-0.7,3.3-2,6.3-3.6,9.2c-2.8,5.3-3.2,10.6,0.1,15.9c-0.1,0.8,0.1,1.5,0.9,1.9
		c0.8,2.4,2,4.5,3.9,6.2c0.7,1.3,1.3,2.6,3.8,3.9c-1.9-2.8-1.4-4.9-1.9-6.9c0.1-1.5,0-2.8-1.1-4.1c-1-1.3-1.4-3.7,0.3-4.2
		c2.2-0.5,2-1.4,1.7-2.9c-0.3-1.2-0.2-2.5,1.3-2.6c1.4-0.1,1.8,1.3,2,2.4c0.4,2.8,0.2,5.6-0.4,8.3c-1.1,1.4-0.9,2.8-0.3,4.5
		c1.4-1.4,1.7-2.8,1.5-4.5c0.5-2,1.6-2,2.9-0.8c0.3,2.9-1.4,5.4-2.1,8.1c-1,4,0.1,7.2,3.2,9.6c1.5,1.2,3.3,2.1,5,3.2
		c0.1,0.5,0.4,0.8,1,0.7c0.3,0.2,0.6,0.3,0.9,0.4c0.2,0.6,0.6,1.1,1.3,0.6c1.5-1,0.2-3.1,1.7-4.1c0.4,0.1,0.8,0.1,1.2,0.2
		c2.2,1.9,3.3,4.5,4.9,6.9c1.3,1.9,2.8,3,5.3,1.8c-0.5-1.8-1.5-2.9-2.5-4c-0.9-0.9-2.3-1.7-1.8-3.3c0.7-2.2,2.6,1.1,3.6-0.7
		c-0.8-1.6-1.6-3.2-2.4-4.8c-0.1-1.2,0.1-2.4,0.8-3.4c2.7,0.4,3.1,2.7,3.9,4.7c1.2,2.9,2,6,3.2,8.9c1.3,3.1,3.1,6.3,6.2,7.5
		c5.3,2.1,10.9,3.4,17.3,5.3c-3-6.8-5.3-12.8-12.4-15.1c-2.4-0.8-4.7-2.3-4.3-6.5c2.1,2.9,4.4,1.5,6.5,1.7c0.3,0.5,0.8,1.3,1.3,0.9
		c0.9-0.6,0-1.3-0.4-1.8c-0.6-2.1-2-3.8-3.5-5.3c-5.1-4.9-11.2-8-17.8-10.1c-1.1-0.5-2.3-1-3.4-1.5c-1.4-0.9-2.8-1.8-4.2-2.7
		c-11.7-7.1-16.7-18.5-19.4-31.2c-0.4-1.9-1-4.2,1.2-5.7c1.4,0.9,1.5,2,1.7,3.2c0.1,0.6-0.2,2,1.2,1.2c3.2-1.9,2.8,0.6,2.9,2.3
		c0.3,3.9,0.5,7.9,2.7,11.5c-1.9-3.3,2.4-3.7,2.5-6c0.2-2.7-1.9-5.3-0.7-8c2.6-0.1,1.7,2.7,3.1,3.2c1.6-0.6,0.4-3.7,2.8-2.9
		c1.6,0.5,1.6,2.4,1.4,3.9c-0.3,1.8-1,3.5-1.4,5.3c-1.5,6.5-1.4,12.8,3.9,18.3c0.4-2-0.9-3.6-0.3-5.2c0.7-0.1,1.3-0.3,2-0.4
		c0.7,0.7,1,0.2,1.3-0.4l0.1,0c0.4-0.1,0.9-0.1,1.3-0.2c1.1,1.4,1,3,1.4,4.6c0.5,1.9,0.5,4.3,3,5.1c0.9-4.4,0.9-4.5-2.6-9.9
		c-0.4-1.2-1.1-2.7,0.1-3.6c1.2-1,2,0.8,3,1.3c0.5-1.2,0.2-2-0.1-2.8c-0.4-1.2-0.7-2.4,0.7-2.9c1.3-0.5,2.1,0.7,2.7,1.6
		c0.8,1.4,1.3,3,1.9,4.4c0.1,1.7,0.2,3.3,0.2,5c-0.5,7.2,3.4,12,8.6,16.2c-1.9-7-2.6-14.1-2.7-21.2c0.4-2.7,0.5-5.3,0.1-8
		c0.3-1.3,0.3-2.7-0.1-4c0.2-2,0.2-4-0.2-6c0.1-1.1,0.4-2.2-0.6-3.1l0.1,0c0.2-3.4-1-6.3-2.9-8.9c-0.3-1.2-0.9-2.2-1.9-3
		c-2.2-3.1-4.9-5.5-8.3-7l0,0.1c-0.2-0.6-0.6-0.8-1.2-1c-0.3-0.8-1.1-1.1-1.8-1.5c-7.3-4.9-14.6-9.8-21.9-14.8l0,0
		c-0.5-0.6-1-1.3-1.5-1.9c-4.7-4.6-8.6-10-13.5-14.4c-2.5-2.3-2.2-3.1,1-4.9c0.9-0.5,0.6-1,0.7-1.6c0.1-1.3,0.1-2.6,0.1-3.9
		c0.7-0.1,1.3-0.2,2-0.3c1.1,1.5,1.4,3.3,1.8,5c0.8,4.4,2.8,8.2,5.9,11.4c1.6,2.2,3.6,4,6.3,5.9c-0.1-2.9-1-4.7-2.7-6.1
		c-0.4-0.9-0.9-1.6-1.7-2.2c-1.7-1.2-0.5-2,0.3-2.9c0.6,0.1,1.2,0.2,1.8,0.4c0.5,0.2,0.9,0.3,1-0.2c0.1-0.5-0.2-0.9-0.6-1.1
		c0-1.3-1.3-2.4-0.7-3.8c0.7-1.6,2.5,0.5,3.3-0.9c-1.4-4.3-3-8.5-5.5-12.2c-0.8-1.1-2.2-2.5-0.6-3.9c1.8-1.7,2,1.5,3.3,1.4
		c1-2.9-1.8-5.5-0.4-8.3l0.4-0.1c2.4,1.8,2.9,0.3,3.2-1.7c1-0.3,1.7,0.2,2.3,0.8c-0.4,2.5-0.9,4.9-1.2,7.4c-0.7,4.7-0.4,9.2,1.7,14
		c1.5-2.5,0.3-4.4,0.2-6.4c-0.1-0.9-0.1-2.8,0.8-2.4c4.1,1.8,2.6-1.6,3-3.1c0.3-1.2-0.4-2.9,1.2-3.5c2-0.8,1.3,2.3,3.2,2.3
		c0.7-1.5,1.4-3,2.1-4.5c0.5,0,0.9-0.1,1.4-0.1c1.9,1.6,0.9,3.2-0.1,4.8c-1.5,2.5-3.2,4.9-4.8,7.3c-2.1,1.9-3.4,4.2-3.8,7
		c-0.1,0.6-0.2,1.2-0.2,1.9c-0.8,1.1-0.9,2.2,0,3.3c0,1.1-0.1,2.1,1,2.8c0.9,2.7,2.5,4.9,4.9,7.2c0.5-2.9,0.6-5.1-0.6-7.2
		c0-1.1-0.1-2.3,0-3.4c0.1-1.1,0.4-2.5,1.8-2.5c1.7,0,1.2,1.6,1.4,2.6c0.1,0.5,0.2,0.9,0.3,1.4c-0.1,0.1-0.3,0.3-0.2,0.3
		c0.1,0.2,0.3,0.4,0.5,0.6l0,0.1c0,0.7,0,1.4,0.9,1.3c0.6-0.1,1.1-0.6,1.1-1.4c1.3-2.2,1.2-4.6,1-7c0.1-1,0.2-1.9,0.2-2.9
		c0.2-0.4,0.5-0.8,0.7-1.3c2.4-0.6,2.5,1.9,3.7,3c1-2,1.5-3.9,1.3-5.9c0.7-1.4,1.8-1.5,3.1-1c0.2,0.7,0.4,1.4,0.6,2
		c-0.6,5.8-3.5,10.7-6.9,15.3c-1.8,2.4-3.5,4.9-4.8,7.6c-0.5,1.1-1,2.1,0.1,3.1c3.7,3.4,7.2,6.9,10.7,11.1c0.5-3.3-0.7-5.6-1.2-8.1
		c-0.3-1.4-0.7-2.7,0.6-3.6c1.6-1.1,2.3,0.6,3.4,1.1c0.7-0.7,0.4-1.6,0.7-2.4c0.3-1.2,0.7-2.4,2.3-2c1.2,0.3,1.3,1.4,1.3,2.4
		c-0.1,1-0.2,2-0.4,3c-0.6,2.8-1.8,5.4-1.6,8.3c-1.1,1.5-0.6,3.2-0.4,4.8c0.9,6.8,4.4,12.5,7.2,19c1.4-4.7,1.2-6.2-1.6-11.1
		c-1.3-2.3-2.9-4.4-3.3-7.2c-0.2-1.3,0-2.4,1.8-1.9c0.4,2,3.9,1.1,3.8,4.2c-0.1,1.8,0.4,4.3,2.7,5.4c5.5-9.9,5.4-10.7-1.2-19
		c-2.7-3.4-5-7.1-5.7-11.5c-0.4-2.1-0.9-4.5,1.6-6.2c2,2.1,0.8,5.1,2.6,6.9c0.2-0.3,0.4-0.6,0.5-0.9c0.4-1.1,0.8-2.5,2.3-2.1
		c1.2,0.3,0.7,1.6,0.8,2.6c0.2,1.4-0.5,2.9,0.2,4.3c1.4-0.4,1.8-2.9,3.6-1.9c1.5,0.9,0.3,2.4,0.3,3.7c0,2.7-0.5,5.6,2.4,8.1
		c1-6.2,1.7-11.8,1.5-17.6c0-1.9-1.3-2.5-2.6-3.4c-3.8-2.5-7-5.6-9.6-9.3c-1.2-1.6-2.1-3.4-2.6-5.4c-0.2-0.9,0-1.7,0.7-2.2
		c1-0.6,1.4,0.2,1.9,0.9c0.4,0.5,0.8,1.1,1.2,1.6c0.1,1.1,0.7,1.8,1.7,2.5c0-0.9,0.1-1.7,0.1-2.5c0.7,0,1.3,0.1,2,0.1
		c1.7,2.9,2.7,6.3,5.9,9.1c-0.3-4.5-1.3-8.2-3.6-11.4c-2.6-3.8-5.2-7.7-8.9-10.5c0.1-0.4,0.2-0.9,0.3-1.3c0.5,0,1.3,0.1,1.4-0.2
		c1.9-3.6,3.6-1.7,5.4,0.1c0.5,0.5,1,0.9,1.4,1.3c0.2,0.3,0.4,0.7,0.6,1c1.8,3.4,3.6,6.7,5.4,10.1c-0.1,0.7,0,1.4,0.6,1.9
		c0.4,1.3,0.3,2.8,1.2,3.9c0.2,0.6,0.3,1.3,0.5,1.9c-0.1,0.9-0.1,1.7,0.7,2.3c0.1,0.6,0.1,1.1,0.2,1.7c0.4,4.8,1.1,9.6,1.1,14.5
		c2.2-5.3,4.2-10.6,3.7-16.5c0.5-1.4,0.8-2.9,0.2-4.4c0.9-0.7,0.7-1.6,0.7-2.6c0.6-0.6,1.3-1,2.1-1.1c1.1,0.7,0.9,2.4,2.6,3
		c0.7-1.7,2.2-3,2.4-4.9l0,0c1-0.8,1.6-1.8,2.1-2.9l0,0c1.2-0.4,2.9-2.5,3.7-0.9c1.4,2.8,2.4,0.8,3.6,0.3c1.1-0.5,2-1.6,3.5-1.1
		c0,0.3,0.2,0.5,0.4,0.6c-0.6,2.3-2.6,3.2-4.3,4.4c-3.7,2.5-6.7,5.7-8.8,9.6c-0.2,0.3-0.3,0.6-0.5,0.8c-2.6,3.6-3.7,7.7-4.9,12.3
		c4.9-1.5,7.6-5.5,12.1-6.1c1.2,1.5-1.7,2.6-0.4,4c1.8,2,0,2.6-1.3,3.1c-1.5,0.6-3.1,1.1-4.8,1.4c-2.9,0.6-5.1,2.2-7,4.4
		c-7.2,8.6-12.3,18.4-15.6,29.1c-1.3,4.3-2.3,8.7-2.4,13.4c2.2-0.9,3-2.7,4.6-3.6c2.2,0.2,4.5,0.8,5.6-2.3c0.5-1.3,2-0.4,2.8,0.5
		c-1.2,3-4.2,4.2-6.5,6c-8.5,6.8-12.1,21.9-7.4,32.5c0.6-3.6,2.6-6.3,4.2-9.2c1.9-3.5,3.5-7.2,3.7-11.2c1.2-0.1,2.4-0.2,3.6-0.2
		c1.3,1.2,1.5-0.3,2.1-0.9c1.9,1.3,4,0.6,6.1,1c0.1,1.9-1.6,2.7-2.6,3.8c-1.8,2.1-4.2,3.5-5.7,5.9c-4.5,3.8-6.4,9-7.5,14.6
		c1.7-1.8,3.2-3.7,4.4-5.9c1.2-2.1,1.5-4.7,3.2-6.6c1.8,0.9,3,3.9,5.9,1.4c0.8-0.7,1.6,1,1.3,1.9c-0.4,1.5-1.5,2.5-2.6,3.6
		c-1.8,1.7-3.9,3.2-5.4,5.2c-6.7,9.2-7.7,17.7,1.4,26.4c-0.2-3-1.1-5.7-1.8-8.4c-0.5-1.6-1.1-3.5,1.1-4.2c1.8-0.6,2.6,1,3.1,2.5
		c0.1,0.5,0.3,0.9,1.2,1c1.3-2.7,0.9-5.7,1.1-8.6c0.1-1.3-0.1-3.1,1.3-3.5c2.1-0.5,1.9,1.7,2.5,2.9c0.1,0.1,0.5,0.1,0.7,0.1
		c0.1-0.4,0.1-0.7,0.2-1c0.4-1.8-0.5-5,1.9-4.8c2.2,0.1,1.4,3.2,1.4,5.1c-0.1,4.7-2.5,8.6-4.5,12.6c-2.7,5.4-3.9,11-1.9,16.9
		c1.7,5.2,4.3,10,6.8,15.4c3.5-5.4,5.7-10.6,6.5-16.4c1-7.2-0.3-14.3-0.6-21.4c-0.5-13.7-1-27.4,7.7-39.3c0.5-0.6,0.7-1.5,0.9-2.3
		c0.6-3.6-0.2-4.5-3.8-5.1c-3-0.5-5.8-1.5-8.1-3.5c-1.1-0.9-2.7-1.8-2.3-3.6c0.6-2.6,2.8,0.2,4-1c-0.2-0.5-0.4-0.9-0.5-1.4
		c-0.4-1.4-1.3-3.2,0.5-3.9c1.6-0.6,1.9,1.4,2.7,2.4c0.9,1.2,1.2,4,3.6,1.2c0.5-0.5,1.3,0.6,1.8,1.2c0.9,1,0.9,2.9,2.8,3.1
		c1.1-5.6-1.9-9.3-5.7-12.4c-2-1.7-4.5-2.9-6.7-4.4c-3.7-2.5-7.4-5.1-9.5-9.4c-1.3-2.6-1.8-5.4-1.2-8.2c0.1-0.7,0.6-1.3,1.3-1.2
		c0.4,0,1.2,0.5,1.1,0.7c-0.5,3.4,3.2,4.4,4.1,7.1c0.6,1.8,0.2,5.4,4.3,3.6c0.8-0.4,1.3,1.3,1.7,2.2c1.6,3,4,5.1,7.6,6.8
		c-0.9-4.5-2.6-7.9-5-11.1c-1.2-1.7-6.6-2-2.4-5.9c0.1-0.1-0.5-0.8-0.7-1.2c-0.5-0.8-1.3-1.7-0.1-2.6c1.1-0.8,2.2-0.3,3.1,0.5
		c2.6,2.3,3.8,5.4,5,8.5c0.7,1.9,1.3,3.8,1.9,5.7c0.5,1.7,1.1,3.5,1.8,6c2.9-7.7,3.5-14.7,1.1-21.8c-0.4-1.3-1.8-3.5,0.1-3.9
		c2.9-0.6,1.9-1.8,1.4-3.3c-0.3-1-0.6-2.2,0.4-2.7c1.2-0.6,2.2,0.3,3,1.2c1.9,2.2,1.1,5.1,2.3,7.5c0,1.6-0.1,3.3-0.1,4.9
		c-0.8,1.3-0.7,2.7-0.7,4.1c-0.1,0.7-0.2,1.3-0.2,2c-1.8,5.9-3.3,11.8-3.7,18c-0.3,1.3-0.5,2.7-0.2,4c-0.8,3.6-0.9,7.2-0.2,11.5
		c1.5-1.7,1.9-3,2-4.5c0.1-0.9,0.6-2.1,1.3-1.7c3.5,1.7,2.9-2,4.3-3.1c0.8-0.4,1.7-0.3,2.5,0c0.4,1.6-0.2,3.1-0.6,5.2
		c1-0.7,1.6-1.1,2.1-1.5c1.4-0.9,3.2-3,4.6-1.3c1.5,1.9-1.7,2.6-2.4,4.2c1,0.9,3.7,0.6,2.1,3.2c-0.3-0.1-0.5,0-0.7,0.3
		c-4,1.2-8.1,1.6-11.9,3.6c-2.1,1.1-3.2,2.4-3.1,5c0.3,5.3,0,10.6-0.6,17.2c5.7-6.6,12.6-9.6,18.6-14c0.5,0,0.9-0.2,1.1-0.7
		c3.9-2.8,5.1-6.5,4.1-11.3c-1.7-8-6.2-14.5-10.1-21.4c-0.4-1.6-0.9-3.1-1.3-4.7c0-2.3,0.1-4.6,0.1-7c0.3-0.6,0.5-1.2,0.8-1.8
		c0.9-0.9,1.8-1.5,3.2-1.2c0.9,3.6-1.8,7.4,0.7,11.1c2.3-3.1,1.2-7.3,3.8-10c0.5,0,1,0,1.5,0c1.1,3.9-1.2,7.5-1.2,11.3
		c0,2.9-0.4,5.8,2.9,7.9c0.6-1.9,1.1-3.5,1.6-5c0.3-0.8,0.7-1.7,1.6-1.6c1.3,0.1,1.2,1.3,1.3,2.3c0.3,2.7-1.2,5.2-1.4,7.8l0.1,0
		c-0.6,0.2-0.8,0.6-0.6,1.2c-0.5,1.4-0.5,2.7,0,4c-0.1,0.6,0.1,1.1,0.6,1.5c-0.2,0.2-0.1,0.4,0.1,0.5c0.4,3,0.7,6,1.2,9.6
		c3.7-2.7,6.8-5.1,8.7-8.6c0.3-0.1,0.4-0.3,0.3-0.5c3.6-4.6,5.7-9.8,6.6-15.5c0.1-0.9,0.2-1.7,0.3-2.6c0.5-0.3,0.6-0.8,0.5-1.3
		c0.2-1.9,0.3-3.7,0.5-5.6c1-2.5,1.4-5-0.1-7.5l0,0c0-2.4-1.9-3.8-2.8-5.6c-0.6-1.1-1.7-2.2-1.2-3.6c0.9-2.2,2.5,1.6,3.6-0.4
		c-0.8-2.3-1.7-4.6-2.4-6.9c-0.4-1.2-1.1-2.7,0.2-3.7c1.2-1,2.1,1.1,3.5,0.8c0-1.2,0-2.3,0-3.5c0.3-0.1,0.7-0.1,1-0.2
		c0.3,0.2,0.6,0.3,0.9,0.3l0,0c1,2.7,1.9,5.3,2.9,8c0.1,1.3,0.3,2.6,0.4,4c0.3,3.3,0.6,6.5,0.8,9.8c1.3-0.1,1.6-0.9,1.9-1.6
		c1-2.3,1.9-4.6,2.9-6.9c0.3-0.8,1-1.4,1.9-1.3c0.9,0.2,1.3,1,1.4,1.9c0.1,1.5,0,3.1,0,4.7c0.4-0.1,0.6,0,0.7-0.1
		C673,94,673,94,676.5,95c0.4,0.1,0.9-0.2,1.3-0.5c0.8-0.6,1.6-1.2,2.4-1.8c0.7-0.5,1.5-0.9,2.2,0c0.5,0.6,0.1,1.2-0.2,1.8
		c-0.9,1.8-2.5,3.1-4,4.3c-4.3,3.4-9.3,5.8-14.2,8.3c-1.6,0.8-3.4,1.5-3.7,3.6c-0.7,4.3-1.4,8.6-2.2,13.5c3.9-2.6,5.7-5.9,7-9.6
		c0.5-1.3,1-2.7,2.5-2.6c1.4,0,1.1,1.8,2,2.6c0.6-1.2,1-2.5,1.6-3.7c0.7-1.2,0.8-3.1,2.9-2.9c1.9,0.2,0.6,2.5,1.6,3.3
		c1.7-1.3,2.5-3.1,4.3-3.8c1.2,0.3,1.7,1.1,1.8,2.3c-1.1,1.6-2.1,3.3-3.2,4.9c-0.3,0.2-0.5,0.4-0.8,0.7c-1.6,1.2-3.2,2.5-4.8,3.7
		c-0.9,0.2-1.5,0.6-1.7,1.5c-6.1,2.4-11.3,6-16.3,10.2c-4,3.3-6.4,7.7-10.3,11.9c6.1-0.8,6.1-0.8,12.3-7c0.4,0.1,0.7,0.1,1.1,0.2
		c1.8,3-1.7,4.8-2.2,7.8c4.2-1,6.2-3.3,7.2-6.7c1.5-0.1,2.9,0,3.1,1.9c0.1,1-1.4,1.7-0.7,2.9c1.2-0.1,2-0.9,2.6-1.8
		c1.3-0.3,4.2-2.1,3.5,0.1c-1,3.3,2.1,3,2.3,4.8c-0.7,0.6-1.3,1.3-2,1.9c-1.7,0.1-3.4,0-5,0.7c-0.6,0-1.2,0-1.8,0.1
		c-4.4-0.6-8.8-1.2-13.2-1.6c-2.8-0.2-5.7-0.1-8.3,1.7c2.8,0.8,5.4,1.2,8,1.3c3.2,0.2,3.2,0.2,3.9,3.6c0.1,0.3,0.3,0.6,0.6,0.8
		c0.8,0.7,2.3,1.4,1.4,2.7c-1,1.5-2.4,0.2-3.6-0.1c-0.5-0.1-1-0.3-1.4-0.4l-0.1,0c-2-2.4-5.4-1.3-7.7-3.1c-1.4-1.1-2.9-0.7-4.5-0.4
		c-1.5-0.2-2.8,0.2-4,0.9c-7.1,4.1-15.7,5.9-21.6,13.4c6.2-0.8,10.9-2.9,14.6-7c0.9-1,2.5-3.1,3.5-2.1c2.9,2.9,4.1,0.1,5.8-1.2
		c1.9-0.3,3.9-0.8,3.5,2.4c-1.7,1.8-4.4,2.5-5.9,5.4c2.8-0.3,4.4-2,6.3-2.6c0.4,0.2,0.7,0.4,1.1,0.6c0,0.7,0,1.4-0.1,2
		C642.7,164.7,642.3,165.4,641.8,166z M541.9,100L541.9,100c0.2-2.4-1.9-3.2-3.5-4.9c-0.2,2.6,1.9,3.3,2.6,4.9c0.2,1.2,0.2,2.9,2,1
		C542.8,100.4,542.7,99.9,541.9,100z M526.1,78.6c-0.1-0.5,0-1.5-0.8-1.3c-0.7,0.2-0.5,1-0.2,1.6c1.5,6.2,2,12.9,8.2,17.5
		c0.9-3.5,1-6.2-1.4-8.6C529.3,85.2,528,81.7,526.1,78.6z M501.5,160.5c-3-9.5-1.4-19.7-4-29.5c-5.5,5.4-6.5,13.1-2.9,19.6
		c0.7-6.5,0.7-6.5,2.6-8.3c1.2,2.6,0.8,5.2,0.3,7.8C496.6,154.4,497.7,158,501.5,160.5z M605.5,150c-5.8,9.2-6.5,19.1-4.3,29.4
		C604.2,169.8,605.7,160,605.5,150z M534.6,189.3c-0.2-0.2-0.5-0.4-0.7-0.5c-0.7-0.3-0.7,0.2-0.7,0.7c0.1,0.4,0.4,0.5,0.7,0.4
		C534.2,189.8,534.4,189.5,534.6,189.3z M523.5,73.2c-0.1,0.1-0.3,0.2-0.3,0.3c0,0.1,0.1,0.2,0.2,0.4c0.1-0.1,0.3-0.2,0.3-0.3
		C523.8,73.4,523.6,73.3,523.5,73.2z M524.8,75.6c-0.1-0.1-0.2-0.2-0.2-0.4c-0.1,0.1-0.3,0.2-0.3,0.3c0,0.1,0.1,0.2,0.2,0.4
		C524.6,75.8,524.7,75.7,524.8,75.6z"/>
	<path class="st54" d="M506,226.9c0,0.7,0,1.4,0,2.1c-1.4-0.1-2.2-0.7-2.1-2.1C504.6,226.3,505.3,226.8,506,226.9z"/>
	<path class="st54" d="M448.6,197.9c1-0.9,2.2-0.8,3.4-0.8C451.1,198.5,449.8,198,448.6,197.9z"/>
	<path class="st54" d="M561,230.1c0.7-1.1,1.3-1.1,2,0C562.3,230.1,561.6,230.1,561,230.1z"/>
	<path class="st54" d="M452.5,196.9c0.3-0.5,0.8-0.7,1.4-0.6C453.6,196.8,453.1,197,452.5,196.9z"/>
	<path class="st54" d="M678,148c0.2,0.2,0.3,0.3,0.5,0.5c-0.1,0-0.2,0-0.3-0.1C678.1,148.3,678,148.2,678,148L678,148z"/>
	<path class="st54" d="M657.9,78.2c-0.3,0-0.6-0.1-0.9-0.3C657.6,77.1,657.8,77.5,657.9,78.2z"/>
	<path class="st54" d="M604,216.1c-0.4,0-0.7,0-1.1,0c0.1-0.6,0.5-0.9,1.1-0.9C604,215.5,604,215.8,604,216.1z"/>
	<path class="st54" d="M605,218.1c-0.5-0.1-0.9-0.5-1-1C604.5,217.2,604.8,217.5,605,218.1z"/>
	<path class="st54" d="M636.8,132.6c-0.5-0.4-0.7-0.9-0.6-1.5C636.7,131.4,636.9,131.9,636.8,132.6z"/>
	<path class="st54" d="M636.1,127c-0.1-0.6,0-1,0.6-1.2C636.9,126.4,636.7,126.8,636.1,127z"/>
	<path class="st54" d="M654.6,114.1c0.1,0.6,0,1-0.5,1.3C654,114.9,654.2,114.4,654.6,114.1z"/>
	<path class="st54" d="M579.1,144.2c0.2-3.1,1-6.1,1.8-9.1c0.3-1.2,0.7-2.4,2.2-1.9c1.2,0.4,1.8,1.4,1.7,2.7
		c-0.2,1.4-1.1,2.7-0.8,4.3c0.3,1.7,0.7,3.3,1,5l0.1,0C583.1,144.8,580.9,145.4,579.1,144.2z"/>
	<path class="st54" d="M578.8,121c0.1,0.5,0.2,1.3,0.4,1.3c1,0.2,0.8-1.2,1.6-1.4c0.4,1.2,1.9,1.7,2.2,3c-0.7,1.6-1.8,2.8-3.6,3.3
		c-0.8-0.9-2.3-1.8-2.8-0.5c-1.2,3-3.4,2.5-5.6,2.3c2.1-2.3,3-5.4,4.7-7.9C576.7,121,577.8,121,578.8,121z"/>
	<path class="st54" d="M573.3,145.3c-0.1-0.3-0.2-0.6-0.2-1c0-1.3-0.5-3,1.3-3.2c1.9-0.2,2.4,1.3,2.5,2.9c0,0.3,0,0.7,0,1
		C575.8,145.1,574.6,145.2,573.3,145.3z"/>
	<path class="st54" d="M518,76.9c0.5-0.9,1.3-0.8,2.2-0.9c0.5,0.2,0.8,0.6,0.6,1.1c-0.2,0.6-0.5,0.5-1,0.2
		C519.2,77.1,518.6,77,518,76.9z"/>
	<path class="st54" d="M505.5,138.3c-0.6-0.4-1.5-0.6-1-1.6c0.1-0.2,0.6-0.4,0.7-0.3c0.7,0.3,0.7,0.9,0.8,1.5
		C505.9,138.2,505.7,138.3,505.5,138.3z"/>
	<path class="st54" d="M557.7,132c-1.1-0.9-0.7-2-0.6-3.1C558.1,129.8,557.8,130.9,557.7,132z"/>
	<path class="st54" d="M517.1,198.9c-1.1,0-2.1,0.1-3.2,0.1C514.9,197.9,516,197.6,517.1,198.9z"/>
	<path class="st54" d="M531.6,213.2c0.8-0.4,1.7-0.7,2.5-1.1C534.3,214.7,533.2,214.5,531.6,213.2z"/>
	<path class="st54" d="M493,207.8c0.7-0.9,1.4-0.9,1.9,0.1C494.3,207.9,493.7,207.8,493,207.8z"/>
	<path class="st54" d="M525.2,78.9c-0.4-0.6-0.5-1.4,0.2-1.6c0.8-0.2,0.7,0.7,0.8,1.3C525.8,78.7,525.5,78.8,525.2,78.9z"/>
	<path class="st54" d="M534.6,189.3c-0.2,0.2-0.4,0.4-0.7,0.5c-0.4,0.2-0.7,0-0.7-0.4c-0.1-0.5,0-1,0.7-0.7
		C534.2,188.9,534.4,189.2,534.6,189.3z"/>
	<path class="st54" d="M577.2,68.1c0.9,0.6,0.8,1.4,0.7,2.3C577.1,69.8,577.1,68.9,577.2,68.1z"/>
	<path class="st54" d="M583.1,65.6c-0.1-1-0.3-1.9,0.7-2.6C583.9,64,584,65,583.1,65.6z"/>
	<path class="st54" d="M564.3,182.7c0.4,0.6,1.3,1.2,0.4,1.8c-0.5,0.3-1-0.5-1.3-0.9C563.7,183.3,564,183,564.3,182.7z"/>
	<path class="st54" d="M508.1,165c0.7,0.4,1,1.1,0.9,1.9C508.2,166.5,508,165.8,508.1,165z"/>
	<path class="st54" d="M529,187.1c0.3,0.2,0.7,0.4,1,0.7C529.4,187.9,529.1,187.6,529,187.1z"/>
	<path class="st54" d="M530.9,188.1c0.4,0.2,0.9,0.4,1.3,0.6C531.4,189.2,531.1,188.8,530.9,188.1z"/>
	<path class="st54" d="M539,152.8c0.3-0.5,0.7-0.7,1.3-0.4C540,153,539.7,153.5,539,152.8z"/>
	<path class="st54" d="M523.5,73.2c0.1,0.1,0.2,0.2,0.2,0.4c0,0.1-0.2,0.2-0.3,0.3c-0.1-0.1-0.2-0.2-0.2-0.4
		C523.3,73.4,523.4,73.3,523.5,73.2z"/>
	<path class="st54" d="M548.6,202.8c-0.6,0.1-1.2,0-1.6-0.6C547.6,202.2,548.2,202.2,548.6,202.8z"/>
	<path class="st54" d="M524.8,75.6c-0.1,0.1-0.2,0.2-0.3,0.3c-0.1-0.1-0.2-0.2-0.2-0.4c0-0.1,0.2-0.2,0.3-0.3
		C524.6,75.3,524.7,75.5,524.8,75.6z"/>
	<path class="st54" d="M514.8,204.1c0.6,0.1,1,0.5,1.2,1.1C515.6,204.8,515.2,204.5,514.8,204.1z"/>
	<path class="st54" d="M537.6,76.2c0.1,0.3,0.2,0.6,0.2,0.9c-0.2-0.2-0.4-0.4-0.5-0.6C537.4,76.4,537.5,76.3,537.6,76.2z"/>
	<path class="st54" d="M519.2,210.1c0.3,0.3,0.5,0.6,0.8,0.9C519.4,210.9,519.2,210.6,519.2,210.1z"/>
	<path class="st54" d="M520,211c0.5,0.2,0.8,0.5,0.9,1C520.4,212,520.1,211.6,520,211z"/>
	<path class="st54" d="M520.9,212.1c0.5,0.1,0.9,0.4,1,1C521.4,213,521.1,212.6,520.9,212.1z"/>
	<path class="st54" d="M522,213.1c0.3,0.3,0.7,0.6,1,0.9C522.4,213.9,522,213.7,522,213.1z"/>
	<path class="st54" d="M597,222.1c-0.3,0.3-0.5,0.6-0.8,1C596.1,222.4,596.4,222.2,597,222.1z"/>
	<path class="st54" d="M544.2,109.9c-0.6,0-1-0.4-1.2-1C543.6,109.1,544,109.3,544.2,109.9z"/>
	<path class="st54" d="M681.6,89.9c0-0.1-0.1-0.2-0.1-0.3c0.1,0,0.2,0,0.3,0.1c0.1,0.1,0.1,0.3,0.2,0.4
		C681.8,90,681.7,89.9,681.6,89.9z"/>
	<path class="st54" d="M583,124c-0.2-1.4-1.7-1.8-2.2-3c0.8-1.4,1.5-2.9,2.3-4.3c0.5-0.9,1.2-1.7,2.4-1.1c0.9,0.5,1.5,1.5,1.3,2.5
		C586.2,120.4,585.4,122.7,583,124z"/>
	<path class="st54" d="M585,145.1c-0.3-1.7-0.7-3.3-1-5c1.4-0.5,1.7-1.9,2.5-2.9c0.6-0.8,1.4-1.5,2.5-0.8c0.8,0.5,0.9,1.4,0.5,2.2
		C588.4,141,587.9,143.9,585,145.1z"/>
	<path class="st54" d="M578.8,121c-1.1,0-2.2,0-3.2,0.1c0.3-1.1,0.6-2.3,2-2.2C578.8,118.9,579,119.9,578.8,121z"/>
</g>
</svg>
