<svg id="visual" viewBox="0 0 900 600" width="900" height="600" xmlns="http://www.w3.org/2000/svg" xmlns:xlink="http://www.w3.org/1999/xlink" version="1.1"><rect x="0" y="0" width="900" height="600" fill="#35a9ff"></rect><path d="M0 141L16.7 148.7C33.3 156.3 66.7 171.7 100 172.3C133.3 173 166.7 159 200 156C233.3 153 266.7 161 300 161.5C333.3 162 366.7 155 400 156.2C433.3 157.3 466.7 166.7 500 170.5C533.3 174.3 566.7 172.7 600 165.2C633.3 157.7 666.7 144.3 700 139C733.3 133.7 766.7 136.3 800 144.7C833.3 153 866.7 167 883.3 174L900 181L900 0L883.3 0C866.7 0 833.3 0 800 0C766.7 0 733.3 0 700 0C666.7 0 633.3 0 600 0C566.7 0 533.3 0 500 0C466.7 0 433.3 0 400 0C366.7 0 333.3 0 300 0C266.7 0 233.3 0 200 0C166.7 0 133.3 0 100 0C66.7 0 33.3 0 16.7 0L0 0Z" fill="#83ccfb"></path><path d="M0 105L16.7 104.2C33.3 103.3 66.7 101.7 100 98.3C133.3 95 166.7 90 200 88C233.3 86 266.7 87 300 92.3C333.3 97.7 366.7 107.3 400 114.2C433.3 121 466.7 125 500 126.3C533.3 127.7 566.7 126.3 600 120.5C633.3 114.7 666.7 104.3 700 100C733.3 95.7 766.7 97.3 800 104.3C833.3 111.3 866.7 123.7 883.3 129.8L900 136L900 0L883.3 0C866.7 0 833.3 0 800 0C766.7 0 733.3 0 700 0C666.7 0 633.3 0 600 0C566.7 0 533.3 0 500 0C466.7 0 433.3 0 400 0C366.7 0 333.3 0 300 0C266.7 0 233.3 0 200 0C166.7 0 133.3 0 100 0C66.7 0 33.3 0 16.7 0L0 0Z" fill="#c6e5fd"></path><path d="M0 70L16.7 67.3C33.3 64.7 66.7 59.3 100 60.7C133.3 62 166.7 70 200 70C233.3 70 266.7 62 300 57.2C333.3 52.3 366.7 50.7 400 49.7C433.3 48.7 466.7 48.3 500 48C533.3 47.7 566.7 47.3 600 50.7C633.3 54 666.7 61 700 64.7C733.3 68.3 766.7 68.7 800 63.3C833.3 58 866.7 47 883.3 41.5L900 36L900 0L883.3 0C866.7 0 833.3 0 800 0C766.7 0 733.3 0 700 0C666.7 0 633.3 0 600 0C566.7 0 533.3 0 500 0C466.7 0 433.3 0 400 0C366.7 0 333.3 0 300 0C266.7 0 233.3 0 200 0C166.7 0 133.3 0 100 0C66.7 0 33.3 0 16.7 0L0 0Z" fill="#ffffff"></path></svg>