<?xml version="1.0" encoding="utf-8"?>
<!-- Generator: Adobe Illustrator 27.0.0, SVG Export Plug-In . SVG Version: 6.00 Build 0)  -->
<svg version="1.1" id="visual" xmlns="http://www.w3.org/2000/svg" xmlns:xlink="http://www.w3.org/1999/xlink" x="0px" y="0px"
	 viewBox="0 0 974.8 2000" style="enable-background:new 0 0 974.8 2000;" xml:space="preserve">
<style type="text/css">
	.st0{fill:#030E1D;}
	.st1{fill:#012A53;}
	.st2{fill:#022345;}
	.st3{fill:#031C38;}
	.st4{fill:#04152B;}
	.st5{fill:#031124;}
</style>
<path class="st0" d="M0,2000v-25.7c0-25.6,0-77,0-128.3s0-102.7,0-154s0-102.7,0-153.8c0-51.2,0-102.2,0-153.4
	c0-51.1,0-102.5,0-153.8s0-102.7,0-154s0-102.7,0-154s0-102.7,0-154s0-102.7,0-153.8C0,564,0,513,0,461.8C0,410.7,0,359.3,0,308
	s0-102.7,0-154S0,51.3,0,25.7V0h465l10,25.7c10,25.6,30,77-15,128.3s17.1,138.1-37.9,189.4s52.6,53.9,57.6,105
	c5,51.2-83,138.5-30.5,189.7c52.5,51.1-34.2,79.5-16.7,130.8s-42.5,102.7-80,154s-52.5,102.7-50,154s22.5,102.7,0,154
	s1.9,115.1,4.4,166.2c2.5,51.2-16.9,89.8,20.6,141c37.5,51.1,99.2,109.2,74.2,160.5s11.2,101.2,23.7,152.5s-55.5,97.5-15.5,123.1
	l40,25.7H0V2000z"/>
<path class="st1" d="M792.4,2000l-20-25.7c-20-25.6-60-77-75-128.3s-5-102.7,7.5-154s27.5-102.7,5-153.8
	c-22.5-51.2-82.5-102.2-105-153.4c-22.5-51.1-7.5-102.5-2.5-153.8s0-102.7,22.5-154s72.5-102.7,107.5-154s55-102.7,65-154
	s10-102.7,20-153.8c10-51.2,30-102.2,0-153.4c-30-51.1-110-102.5-132.5-153.8s12.5-102.7,15-154S672.4,51.3,657.4,25.7L642.4,0h286
	l-17.5,25.7c-17.5,25.6-52.5,77-50,128.3s42.5,102.7,62.5,154s20,102.7,20,153.8c0,51.2,0,102.2,0,153.4c0,51.1,0,102.5-22.5,153.8
	s-67.5,102.7-77.5,154s15,102.7,32.5,154s27.5,102.7,20,154s-32.5,102.7-47.5,153.8c-15,51.2-20,102.2-2.5,153.4
	c17.5,51.1,57.5,102.5,72.5,153.8s5,102.7,0,154s-5,102.7-5,128.3v25.7L792.4,2000L792.4,2000z"/>
<path class="st2" d="M687.4,2000l-15-25.7c-15-25.6-45-77-55-128.3s0-102.7,12.5-154s27.5-102.7,12.5-153.8
	c-15-51.2-60-102.2-85-153.4c-25-51.1-30-102.5-25-153.8s20-102.7,52.5-154s82.5-102.7,107.5-154s25-102.7,25-154
	s0-102.7,12.5-153.8c12.5-51.2,37.5-102.2,17.5-153.4c-20-51.1-85-102.5-107.5-153.8s-2.5-102.7-10-154s-42.5-102.7-60-128.3
	L552.4,0h91l15,25.7c15,25.6,45,77,42.5,128.3s-37.5,102.7-15,154s102.5,102.7,132.5,153.8c30,51.2,10,102.2,0,153.4
	c-10,51.1-10,102.5-20,153.8s-30,102.7-65,154s-85,102.7-107.5,154s-17.5,102.7-22.5,154s-20,102.7,2.5,153.8
	c22.5,51.2,82.5,102.2,105,153.4c22.5,51.1,7.5,102.5-5,153.8s-22.5,102.7-7.5,154s55,102.7,75,128.3l20,25.7L687.4,2000L687.4,2000
	z"/>
<path class="st3" d="M612.4,2000l-12.5-25.7c-12.5-25.6-37.5-77-45-128.3s2.5-102.7,2.5-154s-10-102.7-20-153.8
	c-10-51.2-20-102.2-42.5-153.4c-22.5-51.1-57.5-102.5-65-153.8s12.5-102.7,40-154s62.5-102.7,100-154s77.5-102.7,87.5-154
	s-10-102.7-15-153.8c-5-51.2,5-102.2-7.5-153.4c-12.5-51.1-47.5-102.5-57.5-153.8s5-102.7,0-154s-30-102.7-42.5-128.3L522.4,0h31
	l17.5,25.7c17.5,25.6,52.5,77,60,128.3s-12.5,102.7,10,154s87.5,102.7,107.5,153.8c20,51.2-5,102.2-17.5,153.4
	c-12.5,51.1-12.5,102.5-12.5,153.8s0,102.7-25,154s-75,102.7-107.5,154s-47.5,102.7-52.5,154s0,102.7,25,153.8
	c25,51.2,70,102.2,85,153.4c15,51.1,0,102.5-12.5,153.8s-22.5,102.7-12.5,154s40,102.7,55,128.3l15,25.7L612.4,2000L612.4,2000z"/>
<path class="st4" d="M552.4,2000l-7.5-25.7c-7.5-25.6-22.5-77-40-128.3s-37.5-102.7-45-154s-2.5-102.7-10-153.8
	c-7.5-51.2-27.5-102.2-60-153.4c-32.5-51.1-77.5-102.5-87.5-153.8s15-102.7,60-154s110-102.7,147.5-154s47.5-102.7,45-154
	s-17.5-102.7-15-153.8c2.5-51.2,22.5-102.2,12.5-153.4c-10-51.1-50-102.5-60-153.8s10-102.7,5-154s-35-102.7-50-128.3L432.4,0h91
	l12.5,25.7c12.5,25.6,37.5,77,42.5,128.3s-10,102.7,0,154s45,102.7,57.5,153.8c12.5,51.2,2.5,102.2,7.5,153.4
	c5,51.1,25,102.5,15,153.8s-50,102.7-87.5,154s-72.5,102.7-100,154s-47.5,102.7-40,154s42.5,102.7,65,153.8
	c22.5,51.2,32.5,102.2,42.5,153.4c10,51.1,20,102.5,20,153.8s-10,102.7-2.5,154s32.5,102.7,45,128.3l12.5,25.7L552.4,2000
	L552.4,2000z"/>
<path class="st5" d="M357.4,2000l10-25.7c10-25.6,30-77,25-128.3s-35-102.7-47.5-154s-7.5-102.7-30-153.8
	c-22.5-51.2-72.5-102.2-110-153.4c-37.5-51.1-62.5-102.5-62.5-153.8s25-102.7,60-154s80-102.7,102.5-154s22.5-102.7,37.5-154
	s45-102.7,47.5-153.8c2.5-51.2-22.5-102.2-45-153.4c-22.5-51.1-42.5-102.5-22.5-153.8s80-102.7,77.5-154s-67.5-102.7-100-128.3
	L267.4,0h166l15,25.7c15,25.6,45,77,50,128.3s-15,102.7-5,154s50,102.7,60,153.8c10,51.2-10,102.2-12.5,153.4
	c-2.5,51.1,12.5,102.5,15,153.8s-7.5,102.7-45,154s-102.5,102.7-147.5,154s-70,102.7-60,154s55,102.7,87.5,153.8
	c32.5,51.2,52.5,102.2,60,153.4c7.5,51.1,2.5,102.5,10,153.8s27.5,102.7,45,154s32.5,102.7,40,128.3l7.5,25.7L357.4,2000L357.4,2000
	z"/>
</svg>
